M48
T01C0.024
T02C0.032
T03C0.040
T04C0.059
T05C0.086
G90
M72
%
M48
M72
T01C0.0240
T02C0.0320
T03C0.0400
T04C0.0590
T05C0.0860
%
T01
X643Y673
X693Y723
X893Y723
X953Y573
X1283Y723
X1363Y623
X1473Y503
X1563Y623
X1803Y623
X1803Y673
X1483Y293
X1823Y1178
X1823Y1257
X1823Y1335
X1823Y1414
X1823Y1493
X1823Y1572
T02
X143Y143
X243Y143
X343Y143
X443Y143
X543Y143
X643Y143
X743Y143
X843Y143
X843Y443
X743Y443
X643Y443
X543Y443
X443Y443
X343Y443
X243Y443
X143Y443
X223Y553
X223Y753
X143Y933
X173Y1093
X173Y1193
X443Y933
X1073Y1423
X1148Y1473
X1073Y1523
X1563Y513
X1523Y443
X1623Y443
X1723Y443
X1763Y513
X1823Y443
X1923Y443
X1923Y143
X1823Y143
X1723Y143
X1623Y143
X1523Y143
X1423Y143
X1323Y143
X1223Y143
X1223Y443
X1323Y443
X1423Y443
T03
X1083Y363
X1083Y263
X1083Y163
X1073Y803
X1173Y803
X1273Y803
X1373Y803
X1473Y803
X1573Y803
X1673Y803
X1773Y803
X1773Y923
X1673Y923
X1573Y923
X1473Y923
X1373Y923
X1273Y923
X1173Y923
X1073Y923
X1073Y1013
X1073Y1113
X1073Y1213
X973Y1213
X973Y1313
X1073Y1313
X1303Y1143
X1523Y1143
X1523Y1543
X1303Y1543
X733Y1503
X733Y1303
X313Y1303
X313Y1503
T04
X313Y1073
X913Y1073
T05
X1698Y1099
M30
