G75*
G70*
%OFA0B0*%
%FSLAX24Y24*%
%IPPOS*%
%LPD*%
%AMOC8*
5,1,8,0,0,1.08239X$1,22.5*
%
%ADD10OC8,0.0850*%
%ADD11O,0.1770X0.0885*%
%ADD12OC8,0.0520*%
%ADD13C,0.1000*%
%ADD14OC8,0.1000*%
%ADD15C,0.0440*%
%ADD16C,0.1260*%
%ADD17OC8,0.0600*%
%ADD18R,0.0870X0.0240*%
%ADD19R,0.0440X0.0440*%
%ADD20C,0.0500*%
%ADD21C,0.0240*%
%ADD22OC8,0.0400*%
%ADD23C,0.0400*%
%ADD24C,0.0200*%
%ADD25OC8,0.0760*%
%ADD26R,0.0760X0.0760*%
D10*
X010826Y001629D03*
X010826Y002629D03*
X010826Y003629D03*
X015726Y009229D03*
X016726Y009229D03*
X017726Y009229D03*
X010726Y010129D03*
X010726Y011129D03*
X010726Y012129D03*
X009726Y012129D03*
X009726Y013129D03*
X010726Y013129D03*
D11*
X009126Y010729D03*
X003126Y010729D03*
D12*
X001426Y001429D03*
X002426Y001429D03*
X003426Y001429D03*
X004426Y001429D03*
X005426Y001429D03*
X006426Y001429D03*
X007426Y001429D03*
X008426Y001429D03*
X008426Y004429D03*
X007426Y004429D03*
X006426Y004429D03*
X005426Y004429D03*
X004426Y004429D03*
X003426Y004429D03*
X002426Y004429D03*
X001426Y004429D03*
X002226Y005529D03*
X002226Y007529D03*
X001426Y009329D03*
X001726Y010929D03*
X001726Y011929D03*
X004426Y009329D03*
X010726Y014229D03*
X011476Y014729D03*
X010726Y015229D03*
X015626Y005129D03*
X015226Y004429D03*
X014226Y004429D03*
X013226Y004429D03*
X012226Y004429D03*
X012226Y001429D03*
X013226Y001429D03*
X014226Y001429D03*
X015226Y001429D03*
X016226Y001429D03*
X017226Y001429D03*
X018226Y001429D03*
X019226Y001429D03*
X019226Y004429D03*
X018226Y004429D03*
X017626Y005129D03*
X017226Y004429D03*
X016226Y004429D03*
D13*
X007326Y013029D03*
X003126Y015029D03*
D14*
X003126Y013029D03*
X007326Y015029D03*
D15*
X006926Y007229D03*
X015626Y006229D03*
X018226Y011780D03*
X018226Y012567D03*
X018226Y013355D03*
X018226Y014142D03*
X018226Y014930D03*
X018226Y015717D03*
D16*
X016977Y010989D03*
D17*
X015226Y011429D03*
X013026Y011429D03*
X013026Y015429D03*
X015226Y015429D03*
D18*
X016596Y007229D03*
X016596Y006729D03*
X016596Y006229D03*
X016596Y005729D03*
X018656Y005729D03*
X018656Y006229D03*
X018656Y006729D03*
X018656Y007229D03*
X012256Y007229D03*
X012256Y006729D03*
X012256Y006229D03*
X012256Y005729D03*
X010196Y005729D03*
X010196Y006229D03*
X010196Y006729D03*
X010196Y007229D03*
X005756Y007229D03*
X005756Y006729D03*
X005756Y006229D03*
X005756Y005729D03*
X003696Y005729D03*
X003696Y006229D03*
X003696Y006729D03*
X003696Y007229D03*
D19*
X008926Y007229D03*
X013626Y006229D03*
D20*
X014726Y008029D02*
X014726Y009229D01*
X015226Y009229D01*
X015226Y010029D01*
X014326Y010029D01*
X014226Y010129D01*
X014226Y011729D01*
X012326Y013629D01*
X012326Y015029D01*
X011926Y015429D01*
X010726Y015429D01*
X010726Y015229D01*
X010726Y015429D02*
X007326Y015429D01*
X007326Y015029D01*
X007326Y015429D02*
X003626Y015429D01*
X003126Y015029D01*
X003126Y013029D02*
X003126Y010729D01*
X003226Y010529D01*
X004426Y009329D01*
X010726Y009329D01*
X010726Y010129D01*
X010726Y009329D02*
X010726Y008329D01*
X010726Y008029D01*
X011726Y008029D02*
X011726Y012829D01*
X011426Y013129D01*
X010726Y013129D01*
X010726Y014229D01*
X008226Y014229D01*
X007926Y013929D01*
X007326Y013929D01*
X007326Y013029D01*
X007326Y011329D01*
X007926Y010729D01*
X009126Y010729D01*
X010726Y011129D02*
X010726Y012129D01*
X009726Y012129D02*
X009726Y013129D01*
X015226Y010029D02*
X018026Y010029D01*
X019226Y011029D01*
X019226Y012429D01*
X018726Y012929D01*
X018226Y012929D01*
X018226Y012567D01*
X018226Y013355D01*
X018226Y012567D02*
X018226Y012529D01*
X015726Y009229D02*
X015226Y009229D01*
X003126Y010729D02*
X003126Y013029D01*
D21*
X002726Y014029D02*
X007326Y014029D01*
X007326Y013929D01*
X002726Y014029D02*
X001726Y013029D01*
X001726Y011929D01*
X001726Y010929D02*
X001426Y010629D01*
X001426Y009329D01*
X002026Y008329D02*
X001726Y008029D01*
X001726Y006029D01*
X002226Y005529D01*
X003726Y005529D01*
X003696Y005699D01*
X003696Y005729D01*
X003696Y006229D02*
X004226Y006229D01*
X005326Y005129D01*
X006726Y005129D01*
X007426Y004429D01*
X007026Y003829D02*
X008626Y003829D01*
X009026Y004229D01*
X009026Y006229D01*
X009526Y006729D01*
X010196Y006729D01*
X010196Y006229D02*
X010726Y006229D01*
X010196Y005729D02*
X009526Y005729D01*
X010196Y005729D01*
X010626Y005179D02*
X007676Y002229D01*
X003226Y002229D01*
X002426Y001429D01*
X001426Y001429D01*
X003426Y001429D02*
X004426Y001429D01*
X005426Y001429D01*
X006326Y001429D02*
X006426Y001429D01*
X007426Y001429D01*
X007526Y001429D01*
X010926Y004829D01*
X012256Y005199D02*
X012726Y004729D01*
X012726Y002929D01*
X013626Y002029D01*
X017626Y002029D01*
X018226Y001429D01*
X019226Y001429D01*
X017226Y001429D02*
X016226Y001429D01*
X015226Y001429D01*
X014226Y001429D02*
X013226Y001429D01*
X011576Y003079D01*
X013226Y003129D02*
X013226Y004429D01*
X014226Y004429D02*
X013126Y005529D01*
X013126Y006129D01*
X013026Y006229D01*
X012256Y006229D01*
X012256Y006729D02*
X013126Y006729D01*
X013626Y006229D01*
X013126Y006729D02*
X011726Y006729D01*
X011726Y007229D02*
X012826Y007229D01*
X012256Y007229D01*
X011726Y007229D02*
X011726Y008029D01*
X011026Y007229D02*
X008926Y007229D01*
X010196Y007229D01*
X010226Y007229D01*
X010726Y008329D02*
X002026Y008329D01*
X002226Y007529D02*
X002526Y007229D01*
X003696Y007229D01*
X005756Y006729D02*
X006426Y006729D01*
X006626Y006229D02*
X005756Y006229D01*
X006626Y006229D02*
X008426Y004429D01*
X007026Y003829D02*
X006426Y004429D01*
X005426Y004429D01*
X012256Y005199D02*
X012256Y005729D01*
X014226Y004429D02*
X015226Y004429D01*
X014726Y005029D02*
X014726Y008029D01*
X015726Y008029D01*
X016596Y007229D02*
X017126Y007229D01*
X018026Y006729D02*
X018656Y006729D01*
X018656Y006229D02*
X018026Y006229D01*
X018626Y006229D02*
X018656Y006229D01*
X016626Y005729D02*
X016596Y005729D01*
X016226Y005729D01*
X015626Y005129D01*
X016226Y004429D02*
X016226Y004329D01*
X014826Y002929D01*
X015426Y002429D02*
X013926Y002429D01*
X013226Y003129D01*
X015426Y002429D02*
X016726Y003729D01*
X017826Y011729D02*
X018226Y011729D01*
X018226Y011780D01*
X017826Y011729D02*
X014126Y015429D01*
X013026Y015429D01*
X015226Y015429D02*
X016426Y014229D01*
X018226Y014229D01*
X018226Y014142D01*
D22*
X012826Y007229D03*
X009526Y005729D03*
X006426Y006729D03*
X018026Y006729D03*
X018026Y006229D03*
D23*
X014726Y005029D03*
X014826Y002929D03*
D24*
X016726Y003729D02*
X016726Y004929D01*
X017326Y005529D01*
X017326Y006029D01*
X017126Y006229D01*
X016596Y006229D01*
X017126Y007229D02*
X017626Y006729D01*
X017626Y005129D01*
X011726Y006729D02*
X011576Y006579D01*
X011576Y003079D01*
X010926Y004829D02*
X011226Y005129D01*
X011226Y007029D01*
X011026Y007229D01*
X010726Y006229D02*
X010876Y006079D01*
X010876Y005429D01*
X010626Y005179D01*
D25*
X010726Y008029D03*
X010726Y009229D03*
X012726Y009229D03*
X013726Y009229D03*
X014726Y009229D03*
X014726Y008029D03*
X013726Y008029D03*
X012726Y008029D03*
X015726Y008029D03*
X016726Y008029D03*
X017726Y008029D03*
D26*
X011726Y008029D03*
X011726Y009229D03*
M02*
