G75*
G70*
%OFA0B0*%
%FSLAX24Y24*%
%IPPOS*%
%LPD*%
%AMOC8*
5,1,8,0,0,1.08239X$1,22.5*
%
%ADD10OC8,0.0930*%
%ADD11O,0.1850X0.0965*%
%ADD12OC8,0.0600*%
%ADD13C,0.1080*%
%ADD14OC8,0.1080*%
%ADD15C,0.0520*%
%ADD16C,0.1340*%
%ADD17OC8,0.0680*%
%ADD18R,0.0520X0.0520*%
%ADD19OC8,0.0480*%
%ADD20C,0.0480*%
%ADD21OC8,0.0840*%
%ADD22R,0.0840X0.0840*%
D10*
X010826Y001629D03*
X010826Y002629D03*
X010826Y003629D03*
X015726Y009229D03*
X016726Y009229D03*
X017726Y009229D03*
X010726Y010129D03*
X010726Y011129D03*
X010726Y012129D03*
X009726Y012129D03*
X009726Y013129D03*
X010726Y013129D03*
D11*
X009126Y010729D03*
X003126Y010729D03*
D12*
X001426Y001429D03*
X002426Y001429D03*
X003426Y001429D03*
X004426Y001429D03*
X005426Y001429D03*
X006426Y001429D03*
X007426Y001429D03*
X008426Y001429D03*
X008426Y004429D03*
X007426Y004429D03*
X006426Y004429D03*
X005426Y004429D03*
X004426Y004429D03*
X003426Y004429D03*
X002426Y004429D03*
X001426Y004429D03*
X002226Y005529D03*
X002226Y007529D03*
X001426Y009329D03*
X001726Y010929D03*
X001726Y011929D03*
X004426Y009329D03*
X010726Y014229D03*
X011476Y014729D03*
X010726Y015229D03*
X015626Y005129D03*
X015226Y004429D03*
X014226Y004429D03*
X013226Y004429D03*
X012226Y004429D03*
X012226Y001429D03*
X013226Y001429D03*
X014226Y001429D03*
X015226Y001429D03*
X016226Y001429D03*
X017226Y001429D03*
X018226Y001429D03*
X019226Y001429D03*
X019226Y004429D03*
X018226Y004429D03*
X017626Y005129D03*
X017226Y004429D03*
X016226Y004429D03*
D13*
X007326Y013029D03*
X003126Y015029D03*
D14*
X003126Y013029D03*
X007326Y015029D03*
D15*
X006926Y007229D03*
X015626Y006229D03*
X018226Y011780D03*
X018226Y012567D03*
X018226Y013355D03*
X018226Y014142D03*
X018226Y014930D03*
X018226Y015717D03*
D16*
X016977Y010989D03*
D17*
X015226Y011429D03*
X013026Y011429D03*
X013026Y015429D03*
X015226Y015429D03*
D18*
X008926Y007229D03*
X013626Y006229D03*
D19*
X012826Y007229D03*
X009526Y005729D03*
X006426Y006729D03*
X018026Y006729D03*
X018026Y006229D03*
D20*
X014726Y005029D03*
X014826Y002929D03*
D21*
X014726Y008029D03*
X013726Y008029D03*
X012726Y008029D03*
X012726Y009229D03*
X013726Y009229D03*
X014726Y009229D03*
X015726Y008029D03*
X016726Y008029D03*
X017726Y008029D03*
X010726Y008029D03*
X010726Y009229D03*
D22*
X011726Y009229D03*
X011726Y008029D03*
M02*
