G75*
G70*
%OFA0B0*%
%FSLAX24Y24*%
%IPPOS*%
%LPD*%
%AMOC8*
5,1,8,0,0,1.08239X$1,22.5*
%
%ADD10C,0.0000*%
%ADD11C,0.0100*%
%ADD12C,0.0160*%
%ADD13R,0.0900X0.0250*%
%ADD14R,0.0300X0.2200*%
%ADD15R,0.0350X0.0500*%
%ADD16C,0.0010*%
%ADD17R,0.0200X0.0150*%
%ADD18R,0.0150X0.0200*%
%ADD19C,0.0060*%
%ADD20C,0.0050*%
D10*
X000841Y001081D02*
X000841Y016077D01*
X019811Y016077D01*
X019811Y001081D01*
X000841Y001081D01*
D11*
X001126Y001929D02*
X001726Y001929D01*
X001746Y001931D01*
X001764Y001937D01*
X001782Y001946D01*
X001797Y001958D01*
X001809Y001973D01*
X001818Y001991D01*
X001824Y002009D01*
X001826Y002029D01*
X001826Y002179D01*
X001776Y002229D01*
X001776Y003629D01*
X001826Y003679D01*
X001826Y003829D01*
X001824Y003849D01*
X001818Y003867D01*
X001809Y003885D01*
X001797Y003900D01*
X001782Y003912D01*
X001764Y003921D01*
X001746Y003927D01*
X001726Y003929D01*
X001126Y003929D01*
X001106Y003927D01*
X001088Y003921D01*
X001070Y003912D01*
X001055Y003900D01*
X001043Y003885D01*
X001034Y003867D01*
X001028Y003849D01*
X001026Y003829D01*
X001026Y003679D01*
X001076Y003629D01*
X001076Y002229D01*
X001026Y002179D01*
X001026Y002029D01*
X001028Y002009D01*
X001034Y001991D01*
X001043Y001973D01*
X001055Y001958D01*
X001070Y001946D01*
X001088Y001937D01*
X001106Y001931D01*
X001126Y001929D01*
X001286Y002402D02*
X001286Y002547D01*
X001335Y002595D01*
X001431Y002595D01*
X001480Y002547D01*
X001480Y002402D01*
X001480Y002498D02*
X001576Y002595D01*
X001576Y002761D02*
X001576Y002954D01*
X001576Y002857D02*
X001286Y002857D01*
X001383Y002761D01*
X001286Y003120D02*
X001576Y003120D01*
X001576Y003313D01*
X002026Y003679D02*
X002076Y003629D01*
X002076Y002229D01*
X002026Y002179D01*
X002026Y002029D01*
X002028Y002009D01*
X002034Y001991D01*
X002043Y001973D01*
X002055Y001958D01*
X002070Y001946D01*
X002088Y001937D01*
X002106Y001931D01*
X002126Y001929D01*
X002726Y001929D01*
X002746Y001931D01*
X002764Y001937D01*
X002782Y001946D01*
X002797Y001958D01*
X002809Y001973D01*
X002818Y001991D01*
X002824Y002009D01*
X002826Y002029D01*
X002826Y002179D01*
X002776Y002229D01*
X002776Y003629D01*
X002826Y003679D01*
X002826Y003829D01*
X002824Y003849D01*
X002818Y003867D01*
X002809Y003885D01*
X002797Y003900D01*
X002782Y003912D01*
X002764Y003921D01*
X002746Y003927D01*
X002726Y003929D01*
X002126Y003929D01*
X002106Y003927D01*
X002088Y003921D01*
X002070Y003912D01*
X002055Y003900D01*
X002043Y003885D01*
X002034Y003867D01*
X002028Y003849D01*
X002026Y003829D01*
X002026Y003679D01*
X002286Y003120D02*
X002576Y003120D01*
X002576Y003313D01*
X002576Y002954D02*
X002576Y002761D01*
X002383Y002954D01*
X002335Y002954D01*
X002286Y002906D01*
X002286Y002809D01*
X002335Y002761D01*
X002335Y002595D02*
X002431Y002595D01*
X002480Y002547D01*
X002480Y002402D01*
X002480Y002498D02*
X002576Y002595D01*
X002576Y002402D02*
X002286Y002402D01*
X002286Y002547D01*
X002335Y002595D01*
X003026Y002179D02*
X003026Y002029D01*
X003028Y002009D01*
X003034Y001991D01*
X003043Y001973D01*
X003055Y001958D01*
X003070Y001946D01*
X003088Y001937D01*
X003106Y001931D01*
X003126Y001929D01*
X003726Y001929D01*
X003746Y001931D01*
X003764Y001937D01*
X003782Y001946D01*
X003797Y001958D01*
X003809Y001973D01*
X003818Y001991D01*
X003824Y002009D01*
X003826Y002029D01*
X003826Y002179D01*
X003776Y002229D01*
X003776Y003629D01*
X003826Y003679D01*
X003826Y003829D01*
X003824Y003849D01*
X003818Y003867D01*
X003809Y003885D01*
X003797Y003900D01*
X003782Y003912D01*
X003764Y003921D01*
X003746Y003927D01*
X003726Y003929D01*
X003126Y003929D01*
X003106Y003927D01*
X003088Y003921D01*
X003070Y003912D01*
X003055Y003900D01*
X003043Y003885D01*
X003034Y003867D01*
X003028Y003849D01*
X003026Y003829D01*
X003026Y003679D01*
X003076Y003629D01*
X003076Y002229D01*
X003026Y002179D01*
X003286Y002402D02*
X003286Y002547D01*
X003335Y002595D01*
X003431Y002595D01*
X003480Y002547D01*
X003480Y002402D01*
X003480Y002498D02*
X003576Y002595D01*
X003528Y002761D02*
X003576Y002809D01*
X003576Y002906D01*
X003528Y002954D01*
X003480Y002954D01*
X003431Y002906D01*
X003431Y002857D01*
X003431Y002906D02*
X003383Y002954D01*
X003335Y002954D01*
X003286Y002906D01*
X003286Y002809D01*
X003335Y002761D01*
X003286Y003120D02*
X003576Y003120D01*
X003576Y003313D01*
X004026Y003679D02*
X004026Y003829D01*
X004028Y003849D01*
X004034Y003867D01*
X004043Y003885D01*
X004055Y003900D01*
X004070Y003912D01*
X004088Y003921D01*
X004106Y003927D01*
X004126Y003929D01*
X004726Y003929D01*
X004746Y003927D01*
X004764Y003921D01*
X004782Y003912D01*
X004797Y003900D01*
X004809Y003885D01*
X004818Y003867D01*
X004824Y003849D01*
X004826Y003829D01*
X004826Y003679D01*
X004776Y003629D01*
X004776Y002229D01*
X004826Y002179D01*
X004826Y002029D01*
X004824Y002009D01*
X004818Y001991D01*
X004809Y001973D01*
X004797Y001958D01*
X004782Y001946D01*
X004764Y001937D01*
X004746Y001931D01*
X004726Y001929D01*
X004126Y001929D01*
X004106Y001931D01*
X004088Y001937D01*
X004070Y001946D01*
X004055Y001958D01*
X004043Y001973D01*
X004034Y001991D01*
X004028Y002009D01*
X004026Y002029D01*
X004026Y002179D01*
X004076Y002229D01*
X004076Y003629D01*
X004026Y003679D01*
X004566Y003290D02*
X004566Y003097D01*
X004276Y003097D01*
X004276Y002883D02*
X004421Y002738D01*
X004421Y002931D01*
X004566Y002883D02*
X004276Y002883D01*
X004325Y002572D02*
X004421Y002572D01*
X004470Y002524D01*
X004470Y002379D01*
X004566Y002379D02*
X004276Y002379D01*
X004276Y002524D01*
X004325Y002572D01*
X004470Y002476D02*
X004566Y002572D01*
X005026Y002179D02*
X005076Y002229D01*
X005076Y003629D01*
X005026Y003679D01*
X005026Y003829D01*
X005028Y003849D01*
X005034Y003867D01*
X005043Y003885D01*
X005055Y003900D01*
X005070Y003912D01*
X005088Y003921D01*
X005106Y003927D01*
X005126Y003929D01*
X005726Y003929D01*
X005746Y003927D01*
X005764Y003921D01*
X005782Y003912D01*
X005797Y003900D01*
X005809Y003885D01*
X005818Y003867D01*
X005824Y003849D01*
X005826Y003829D01*
X005826Y003679D01*
X005776Y003629D01*
X005776Y002229D01*
X005826Y002179D01*
X005826Y002029D01*
X005824Y002009D01*
X005818Y001991D01*
X005809Y001973D01*
X005797Y001958D01*
X005782Y001946D01*
X005764Y001937D01*
X005746Y001931D01*
X005726Y001929D01*
X005126Y001929D01*
X005106Y001931D01*
X005088Y001937D01*
X005070Y001946D01*
X005055Y001958D01*
X005043Y001973D01*
X005034Y001991D01*
X005028Y002009D01*
X005026Y002029D01*
X005026Y002179D01*
X005276Y002379D02*
X005276Y002524D01*
X005325Y002572D01*
X005421Y002572D01*
X005470Y002524D01*
X005470Y002379D01*
X005566Y002379D02*
X005276Y002379D01*
X005470Y002476D02*
X005566Y002572D01*
X005518Y002738D02*
X005566Y002786D01*
X005566Y002883D01*
X005518Y002931D01*
X005421Y002931D01*
X005373Y002883D01*
X005373Y002835D01*
X005421Y002738D01*
X005276Y002738D01*
X005276Y002931D01*
X005276Y003097D02*
X005566Y003097D01*
X005566Y003290D01*
X006026Y003679D02*
X006076Y003629D01*
X006076Y002229D01*
X006026Y002179D01*
X006026Y002029D01*
X006028Y002009D01*
X006034Y001991D01*
X006043Y001973D01*
X006055Y001958D01*
X006070Y001946D01*
X006088Y001937D01*
X006106Y001931D01*
X006126Y001929D01*
X006726Y001929D01*
X006746Y001931D01*
X006764Y001937D01*
X006782Y001946D01*
X006797Y001958D01*
X006809Y001973D01*
X006818Y001991D01*
X006824Y002009D01*
X006826Y002029D01*
X006826Y002179D01*
X006776Y002229D01*
X006776Y003629D01*
X006826Y003679D01*
X006826Y003829D01*
X006824Y003849D01*
X006818Y003867D01*
X006809Y003885D01*
X006797Y003900D01*
X006782Y003912D01*
X006764Y003921D01*
X006746Y003927D01*
X006726Y003929D01*
X006126Y003929D01*
X006106Y003927D01*
X006088Y003921D01*
X006070Y003912D01*
X006055Y003900D01*
X006043Y003885D01*
X006034Y003867D01*
X006028Y003849D01*
X006026Y003829D01*
X006026Y003679D01*
X006576Y003313D02*
X006576Y003120D01*
X006286Y003120D01*
X006286Y002954D02*
X006335Y002857D01*
X006431Y002761D01*
X006431Y002906D01*
X006480Y002954D01*
X006528Y002954D01*
X006576Y002906D01*
X006576Y002809D01*
X006528Y002761D01*
X006431Y002761D01*
X006431Y002595D02*
X006335Y002595D01*
X006286Y002547D01*
X006286Y002402D01*
X006576Y002402D01*
X006480Y002402D02*
X006480Y002547D01*
X006431Y002595D01*
X006480Y002498D02*
X006576Y002595D01*
X007026Y002179D02*
X007076Y002229D01*
X007076Y003629D01*
X007026Y003679D01*
X007026Y003829D01*
X007028Y003849D01*
X007034Y003867D01*
X007043Y003885D01*
X007055Y003900D01*
X007070Y003912D01*
X007088Y003921D01*
X007106Y003927D01*
X007126Y003929D01*
X007726Y003929D01*
X007746Y003927D01*
X007764Y003921D01*
X007782Y003912D01*
X007797Y003900D01*
X007809Y003885D01*
X007818Y003867D01*
X007824Y003849D01*
X007826Y003829D01*
X007826Y003679D01*
X007776Y003629D01*
X007776Y002229D01*
X007826Y002179D01*
X007826Y002029D01*
X007824Y002009D01*
X007818Y001991D01*
X007809Y001973D01*
X007797Y001958D01*
X007782Y001946D01*
X007764Y001937D01*
X007746Y001931D01*
X007726Y001929D01*
X007126Y001929D01*
X007106Y001931D01*
X007088Y001937D01*
X007070Y001946D01*
X007055Y001958D01*
X007043Y001973D01*
X007034Y001991D01*
X007028Y002009D01*
X007026Y002029D01*
X007026Y002179D01*
X007276Y002379D02*
X007276Y002524D01*
X007325Y002572D01*
X007421Y002572D01*
X007470Y002524D01*
X007470Y002379D01*
X007566Y002379D02*
X007276Y002379D01*
X007470Y002476D02*
X007566Y002572D01*
X007566Y002738D02*
X007518Y002738D01*
X007325Y002931D01*
X007276Y002931D01*
X007276Y002738D01*
X007276Y003097D02*
X007566Y003097D01*
X007566Y003290D01*
X008026Y003679D02*
X008076Y003629D01*
X008076Y002229D01*
X008026Y002179D01*
X008026Y002029D01*
X008028Y002009D01*
X008034Y001991D01*
X008043Y001973D01*
X008055Y001958D01*
X008070Y001946D01*
X008088Y001937D01*
X008106Y001931D01*
X008126Y001929D01*
X008726Y001929D01*
X008746Y001931D01*
X008764Y001937D01*
X008782Y001946D01*
X008797Y001958D01*
X008809Y001973D01*
X008818Y001991D01*
X008824Y002009D01*
X008826Y002029D01*
X008826Y002179D01*
X008776Y002229D01*
X008776Y003629D01*
X008826Y003679D01*
X008826Y003829D01*
X008824Y003849D01*
X008818Y003867D01*
X008809Y003885D01*
X008797Y003900D01*
X008782Y003912D01*
X008764Y003921D01*
X008746Y003927D01*
X008726Y003929D01*
X008126Y003929D01*
X008106Y003927D01*
X008088Y003921D01*
X008070Y003912D01*
X008055Y003900D01*
X008043Y003885D01*
X008034Y003867D01*
X008028Y003849D01*
X008026Y003829D01*
X008026Y003679D01*
X008286Y003120D02*
X008576Y003120D01*
X008576Y003313D01*
X008528Y002954D02*
X008576Y002906D01*
X008576Y002809D01*
X008528Y002761D01*
X008480Y002761D01*
X008431Y002809D01*
X008431Y002906D01*
X008480Y002954D01*
X008528Y002954D01*
X008431Y002906D02*
X008383Y002954D01*
X008335Y002954D01*
X008286Y002906D01*
X008286Y002809D01*
X008335Y002761D01*
X008383Y002761D01*
X008431Y002809D01*
X008431Y002595D02*
X008480Y002547D01*
X008480Y002402D01*
X008480Y002498D02*
X008576Y002595D01*
X008431Y002595D02*
X008335Y002595D01*
X008286Y002547D01*
X008286Y002402D01*
X008576Y002402D01*
X009726Y002429D02*
X009726Y002296D01*
X009793Y002229D01*
X010060Y002229D01*
X010126Y002296D01*
X010126Y002429D01*
X010060Y002496D01*
X009793Y002496D01*
X009726Y002429D01*
X009726Y002689D02*
X009726Y002889D01*
X009793Y002956D01*
X009926Y002956D01*
X009993Y002889D01*
X009993Y002689D01*
X010126Y002689D02*
X009726Y002689D01*
X009993Y002823D02*
X010126Y002956D01*
X010376Y002879D02*
X010376Y003079D01*
X010576Y003079D01*
X010576Y003179D02*
X010376Y003179D01*
X010376Y003379D01*
X010126Y003429D02*
X010060Y003496D01*
X009793Y003496D01*
X009726Y003429D01*
X009726Y003296D01*
X009793Y003229D01*
X010060Y003229D01*
X010126Y003296D01*
X010126Y003429D01*
X010060Y003689D02*
X009793Y003689D01*
X009726Y003756D01*
X009726Y003889D01*
X009793Y003956D01*
X009926Y003956D02*
X009926Y003823D01*
X009926Y003956D02*
X010060Y003956D01*
X010126Y003889D01*
X010126Y003756D01*
X010060Y003689D01*
X010376Y003879D02*
X010376Y004079D01*
X010576Y004079D01*
X011076Y004079D02*
X011276Y004079D01*
X011276Y003879D01*
X011276Y003379D02*
X011276Y003179D01*
X011076Y003179D01*
X011076Y003079D02*
X011276Y003079D01*
X011276Y002879D01*
X011276Y002379D02*
X011276Y002179D01*
X011076Y002179D01*
X011076Y002079D02*
X011276Y002079D01*
X011276Y001879D01*
X011276Y001379D02*
X011276Y001179D01*
X011076Y001179D01*
X010576Y001179D02*
X010376Y001179D01*
X010376Y001379D01*
X010126Y001396D02*
X010126Y001529D01*
X010060Y001596D01*
X009793Y001596D01*
X009726Y001529D01*
X009726Y001396D01*
X009793Y001329D01*
X010060Y001329D01*
X010126Y001396D01*
X010126Y001789D02*
X009726Y001789D01*
X010126Y001789D02*
X010126Y002056D01*
X010376Y002079D02*
X010376Y001879D01*
X010376Y002079D02*
X010576Y002079D01*
X010576Y002179D02*
X010376Y002179D01*
X010376Y002379D01*
X011826Y002179D02*
X011826Y002029D01*
X011828Y002009D01*
X011834Y001991D01*
X011843Y001973D01*
X011855Y001958D01*
X011870Y001946D01*
X011888Y001937D01*
X011906Y001931D01*
X011926Y001929D01*
X012526Y001929D01*
X012546Y001931D01*
X012564Y001937D01*
X012582Y001946D01*
X012597Y001958D01*
X012609Y001973D01*
X012618Y001991D01*
X012624Y002009D01*
X012626Y002029D01*
X012626Y002179D01*
X012576Y002229D01*
X012576Y003629D01*
X012626Y003679D01*
X012626Y003829D01*
X012624Y003849D01*
X012618Y003867D01*
X012609Y003885D01*
X012597Y003900D01*
X012582Y003912D01*
X012564Y003921D01*
X012546Y003927D01*
X012526Y003929D01*
X011926Y003929D01*
X011906Y003927D01*
X011888Y003921D01*
X011870Y003912D01*
X011855Y003900D01*
X011843Y003885D01*
X011834Y003867D01*
X011828Y003849D01*
X011826Y003829D01*
X011826Y003679D01*
X011876Y003629D01*
X011876Y002229D01*
X011826Y002179D01*
X012086Y002502D02*
X012086Y002647D01*
X012135Y002695D01*
X012231Y002695D01*
X012280Y002647D01*
X012280Y002502D01*
X012280Y002598D02*
X012376Y002695D01*
X012328Y002861D02*
X012280Y002861D01*
X012231Y002909D01*
X012231Y003006D01*
X012280Y003054D01*
X012328Y003054D01*
X012376Y003006D01*
X012376Y002909D01*
X012328Y002861D01*
X012231Y002909D02*
X012183Y002861D01*
X012135Y002861D01*
X012086Y002909D01*
X012086Y003006D01*
X012135Y003054D01*
X012183Y003054D01*
X012231Y003006D01*
X012280Y003220D02*
X012280Y003365D01*
X012231Y003413D01*
X012135Y003413D01*
X012086Y003365D01*
X012086Y003220D01*
X012376Y003220D01*
X012280Y003316D02*
X012376Y003413D01*
X012826Y003679D02*
X012876Y003629D01*
X012876Y002229D01*
X012826Y002179D01*
X012826Y002029D01*
X012828Y002009D01*
X012834Y001991D01*
X012843Y001973D01*
X012855Y001958D01*
X012870Y001946D01*
X012888Y001937D01*
X012906Y001931D01*
X012926Y001929D01*
X013526Y001929D01*
X013546Y001931D01*
X013564Y001937D01*
X013582Y001946D01*
X013597Y001958D01*
X013609Y001973D01*
X013618Y001991D01*
X013624Y002009D01*
X013626Y002029D01*
X013626Y002179D01*
X013576Y002229D01*
X013576Y003629D01*
X013626Y003679D01*
X013626Y003829D01*
X013624Y003849D01*
X013618Y003867D01*
X013609Y003885D01*
X013597Y003900D01*
X013582Y003912D01*
X013564Y003921D01*
X013546Y003927D01*
X013526Y003929D01*
X012926Y003929D01*
X012906Y003927D01*
X012888Y003921D01*
X012870Y003912D01*
X012855Y003900D01*
X012843Y003885D01*
X012834Y003867D01*
X012828Y003849D01*
X012826Y003829D01*
X012826Y003679D01*
X013125Y003390D02*
X013221Y003390D01*
X013270Y003342D01*
X013270Y003197D01*
X013366Y003197D02*
X013076Y003197D01*
X013076Y003342D01*
X013125Y003390D01*
X013270Y003294D02*
X013366Y003390D01*
X013125Y003031D02*
X013318Y002838D01*
X013366Y002838D01*
X013366Y002672D02*
X013270Y002576D01*
X013270Y002624D02*
X013270Y002479D01*
X013366Y002479D02*
X013076Y002479D01*
X013076Y002624D01*
X013125Y002672D01*
X013221Y002672D01*
X013270Y002624D01*
X013076Y002838D02*
X013076Y003031D01*
X013125Y003031D01*
X012376Y002502D02*
X012086Y002502D01*
X013826Y002179D02*
X013826Y002029D01*
X013828Y002009D01*
X013834Y001991D01*
X013843Y001973D01*
X013855Y001958D01*
X013870Y001946D01*
X013888Y001937D01*
X013906Y001931D01*
X013926Y001929D01*
X014526Y001929D01*
X014546Y001931D01*
X014564Y001937D01*
X014582Y001946D01*
X014597Y001958D01*
X014609Y001973D01*
X014618Y001991D01*
X014624Y002009D01*
X014626Y002029D01*
X014626Y002179D01*
X014576Y002229D01*
X014576Y003629D01*
X014626Y003679D01*
X014626Y003829D01*
X014624Y003849D01*
X014618Y003867D01*
X014609Y003885D01*
X014597Y003900D01*
X014582Y003912D01*
X014564Y003921D01*
X014546Y003927D01*
X014526Y003929D01*
X013926Y003929D01*
X013906Y003927D01*
X013888Y003921D01*
X013870Y003912D01*
X013855Y003900D01*
X013843Y003885D01*
X013834Y003867D01*
X013828Y003849D01*
X013826Y003829D01*
X013826Y003679D01*
X013876Y003629D01*
X013876Y002229D01*
X013826Y002179D01*
X014086Y002502D02*
X014086Y002647D01*
X014135Y002695D01*
X014231Y002695D01*
X014280Y002647D01*
X014280Y002502D01*
X014280Y002598D02*
X014376Y002695D01*
X014328Y002861D02*
X014231Y002861D01*
X014231Y003006D01*
X014280Y003054D01*
X014328Y003054D01*
X014376Y003006D01*
X014376Y002909D01*
X014328Y002861D01*
X014231Y002861D02*
X014135Y002957D01*
X014086Y003054D01*
X014086Y003220D02*
X014086Y003365D01*
X014135Y003413D01*
X014231Y003413D01*
X014280Y003365D01*
X014280Y003220D01*
X014376Y003220D02*
X014086Y003220D01*
X014280Y003316D02*
X014376Y003413D01*
X014826Y003679D02*
X014826Y003829D01*
X014828Y003849D01*
X014834Y003867D01*
X014843Y003885D01*
X014855Y003900D01*
X014870Y003912D01*
X014888Y003921D01*
X014906Y003927D01*
X014926Y003929D01*
X015526Y003929D01*
X015546Y003927D01*
X015564Y003921D01*
X015582Y003912D01*
X015597Y003900D01*
X015609Y003885D01*
X015618Y003867D01*
X015624Y003849D01*
X015626Y003829D01*
X015626Y003679D01*
X015576Y003629D01*
X015576Y002229D01*
X015626Y002179D01*
X015626Y002029D01*
X015624Y002009D01*
X015618Y001991D01*
X015609Y001973D01*
X015597Y001958D01*
X015582Y001946D01*
X015564Y001937D01*
X015546Y001931D01*
X015526Y001929D01*
X014926Y001929D01*
X014906Y001931D01*
X014888Y001937D01*
X014870Y001946D01*
X014855Y001958D01*
X014843Y001973D01*
X014834Y001991D01*
X014828Y002009D01*
X014826Y002029D01*
X014826Y002179D01*
X014876Y002229D01*
X014876Y003629D01*
X014826Y003679D01*
X015125Y003390D02*
X015221Y003390D01*
X015270Y003342D01*
X015270Y003197D01*
X015366Y003197D02*
X015076Y003197D01*
X015076Y003342D01*
X015125Y003390D01*
X015270Y003294D02*
X015366Y003390D01*
X015318Y003031D02*
X015221Y003031D01*
X015173Y002983D01*
X015173Y002935D01*
X015221Y002838D01*
X015076Y002838D01*
X015076Y003031D01*
X015318Y003031D02*
X015366Y002983D01*
X015366Y002886D01*
X015318Y002838D01*
X015366Y002672D02*
X015270Y002576D01*
X015270Y002624D02*
X015270Y002479D01*
X015366Y002479D02*
X015076Y002479D01*
X015076Y002624D01*
X015125Y002672D01*
X015221Y002672D01*
X015270Y002624D01*
X015826Y002179D02*
X015876Y002229D01*
X015876Y003629D01*
X015826Y003679D01*
X015826Y003829D01*
X015828Y003849D01*
X015834Y003867D01*
X015843Y003885D01*
X015855Y003900D01*
X015870Y003912D01*
X015888Y003921D01*
X015906Y003927D01*
X015926Y003929D01*
X016526Y003929D01*
X016546Y003927D01*
X016564Y003921D01*
X016582Y003912D01*
X016597Y003900D01*
X016609Y003885D01*
X016618Y003867D01*
X016624Y003849D01*
X016626Y003829D01*
X016626Y003679D01*
X016576Y003629D01*
X016576Y002229D01*
X016626Y002179D01*
X016626Y002029D01*
X016624Y002009D01*
X016618Y001991D01*
X016609Y001973D01*
X016597Y001958D01*
X016582Y001946D01*
X016564Y001937D01*
X016546Y001931D01*
X016526Y001929D01*
X015926Y001929D01*
X015906Y001931D01*
X015888Y001937D01*
X015870Y001946D01*
X015855Y001958D01*
X015843Y001973D01*
X015834Y001991D01*
X015828Y002009D01*
X015826Y002029D01*
X015826Y002179D01*
X016076Y002479D02*
X016076Y002624D01*
X016125Y002672D01*
X016221Y002672D01*
X016270Y002624D01*
X016270Y002479D01*
X016366Y002479D02*
X016076Y002479D01*
X016270Y002576D02*
X016366Y002672D01*
X016221Y002838D02*
X016221Y003031D01*
X016076Y002983D02*
X016221Y002838D01*
X016366Y002983D02*
X016076Y002983D01*
X016076Y003197D02*
X016076Y003342D01*
X016125Y003390D01*
X016221Y003390D01*
X016270Y003342D01*
X016270Y003197D01*
X016366Y003197D02*
X016076Y003197D01*
X016270Y003294D02*
X016366Y003390D01*
X016826Y003679D02*
X016876Y003629D01*
X016876Y002229D01*
X016826Y002179D01*
X016826Y002029D01*
X016828Y002009D01*
X016834Y001991D01*
X016843Y001973D01*
X016855Y001958D01*
X016870Y001946D01*
X016888Y001937D01*
X016906Y001931D01*
X016926Y001929D01*
X017526Y001929D01*
X017546Y001931D01*
X017564Y001937D01*
X017582Y001946D01*
X017597Y001958D01*
X017609Y001973D01*
X017618Y001991D01*
X017624Y002009D01*
X017626Y002029D01*
X017626Y002179D01*
X017576Y002229D01*
X017576Y003629D01*
X017626Y003679D01*
X017626Y003829D01*
X017624Y003849D01*
X017618Y003867D01*
X017609Y003885D01*
X017597Y003900D01*
X017582Y003912D01*
X017564Y003921D01*
X017546Y003927D01*
X017526Y003929D01*
X016926Y003929D01*
X016906Y003927D01*
X016888Y003921D01*
X016870Y003912D01*
X016855Y003900D01*
X016843Y003885D01*
X016834Y003867D01*
X016828Y003849D01*
X016826Y003829D01*
X016826Y003679D01*
X017135Y003413D02*
X017231Y003413D01*
X017280Y003365D01*
X017280Y003220D01*
X017280Y003316D02*
X017376Y003413D01*
X017376Y003220D02*
X017086Y003220D01*
X017086Y003365D01*
X017135Y003413D01*
X017135Y003054D02*
X017183Y003054D01*
X017231Y003006D01*
X017280Y003054D01*
X017328Y003054D01*
X017376Y003006D01*
X017376Y002909D01*
X017328Y002861D01*
X017231Y002957D02*
X017231Y003006D01*
X017135Y003054D02*
X017086Y003006D01*
X017086Y002909D01*
X017135Y002861D01*
X017135Y002695D02*
X017231Y002695D01*
X017280Y002647D01*
X017280Y002502D01*
X017280Y002598D02*
X017376Y002695D01*
X017376Y002502D02*
X017086Y002502D01*
X017086Y002647D01*
X017135Y002695D01*
X017826Y002179D02*
X017826Y002029D01*
X017828Y002009D01*
X017834Y001991D01*
X017843Y001973D01*
X017855Y001958D01*
X017870Y001946D01*
X017888Y001937D01*
X017906Y001931D01*
X017926Y001929D01*
X018526Y001929D01*
X018546Y001931D01*
X018564Y001937D01*
X018582Y001946D01*
X018597Y001958D01*
X018609Y001973D01*
X018618Y001991D01*
X018624Y002009D01*
X018626Y002029D01*
X018626Y002179D01*
X018576Y002229D01*
X018576Y003629D01*
X018626Y003679D01*
X018626Y003829D01*
X018624Y003849D01*
X018618Y003867D01*
X018609Y003885D01*
X018597Y003900D01*
X018582Y003912D01*
X018564Y003921D01*
X018546Y003927D01*
X018526Y003929D01*
X017926Y003929D01*
X017906Y003927D01*
X017888Y003921D01*
X017870Y003912D01*
X017855Y003900D01*
X017843Y003885D01*
X017834Y003867D01*
X017828Y003849D01*
X017826Y003829D01*
X017826Y003679D01*
X017876Y003629D01*
X017876Y002229D01*
X017826Y002179D01*
X018086Y002502D02*
X018086Y002647D01*
X018135Y002695D01*
X018231Y002695D01*
X018280Y002647D01*
X018280Y002502D01*
X018280Y002598D02*
X018376Y002695D01*
X018376Y002861D02*
X018183Y003054D01*
X018135Y003054D01*
X018086Y003006D01*
X018086Y002909D01*
X018135Y002861D01*
X018376Y002861D02*
X018376Y003054D01*
X018376Y003220D02*
X018086Y003220D01*
X018086Y003365D01*
X018135Y003413D01*
X018231Y003413D01*
X018280Y003365D01*
X018280Y003220D01*
X018280Y003316D02*
X018376Y003413D01*
X018826Y003679D02*
X018876Y003629D01*
X018876Y002229D01*
X018826Y002179D01*
X018826Y002029D01*
X018828Y002009D01*
X018834Y001991D01*
X018843Y001973D01*
X018855Y001958D01*
X018870Y001946D01*
X018888Y001937D01*
X018906Y001931D01*
X018926Y001929D01*
X019526Y001929D01*
X019546Y001931D01*
X019564Y001937D01*
X019582Y001946D01*
X019597Y001958D01*
X019609Y001973D01*
X019618Y001991D01*
X019624Y002009D01*
X019626Y002029D01*
X019626Y002179D01*
X019576Y002229D01*
X019576Y003629D01*
X019626Y003679D01*
X019626Y003829D01*
X019624Y003849D01*
X019618Y003867D01*
X019609Y003885D01*
X019597Y003900D01*
X019582Y003912D01*
X019564Y003921D01*
X019546Y003927D01*
X019526Y003929D01*
X018926Y003929D01*
X018906Y003927D01*
X018888Y003921D01*
X018870Y003912D01*
X018855Y003900D01*
X018843Y003885D01*
X018834Y003867D01*
X018828Y003849D01*
X018826Y003829D01*
X018826Y003679D01*
X019135Y003413D02*
X019231Y003413D01*
X019280Y003365D01*
X019280Y003220D01*
X019376Y003220D02*
X019086Y003220D01*
X019086Y003365D01*
X019135Y003413D01*
X019280Y003316D02*
X019376Y003413D01*
X019376Y003054D02*
X019376Y002861D01*
X019376Y002957D02*
X019086Y002957D01*
X019183Y002861D01*
X019135Y002695D02*
X019231Y002695D01*
X019280Y002647D01*
X019280Y002502D01*
X019280Y002598D02*
X019376Y002695D01*
X019376Y002502D02*
X019086Y002502D01*
X019086Y002647D01*
X019135Y002695D01*
X018376Y002502D02*
X018086Y002502D01*
X017226Y004779D02*
X017126Y004779D01*
X017076Y004829D01*
X016176Y004829D01*
X016126Y004779D01*
X016026Y004779D01*
X016086Y005039D02*
X016086Y005329D01*
X016232Y005329D01*
X016280Y005281D01*
X016280Y005184D01*
X016232Y005136D01*
X016086Y005136D01*
X016183Y005136D02*
X016280Y005039D01*
X016446Y005039D02*
X016639Y005039D01*
X016542Y005039D02*
X016542Y005329D01*
X016446Y005232D01*
X016176Y005429D02*
X017076Y005429D01*
X017126Y005479D01*
X017226Y005479D01*
X017164Y005329D02*
X017309Y005329D01*
X017357Y005281D01*
X017357Y005184D01*
X017309Y005136D01*
X017164Y005136D01*
X017260Y005136D02*
X017357Y005039D01*
X017164Y005039D02*
X017164Y005329D01*
X016901Y005329D02*
X016901Y005039D01*
X016805Y005039D02*
X016998Y005039D01*
X016805Y005232D02*
X016901Y005329D01*
X016917Y005549D02*
X018336Y005549D01*
X017801Y005896D02*
X017801Y006029D01*
X017735Y006096D01*
X017401Y006096D01*
X017468Y006289D02*
X017401Y006356D01*
X017401Y006489D01*
X017468Y006556D01*
X017535Y006556D01*
X017601Y006489D01*
X017668Y006556D01*
X017735Y006556D01*
X017801Y006489D01*
X017801Y006356D01*
X017735Y006289D01*
X017601Y006423D02*
X017601Y006489D01*
X017668Y006750D02*
X017668Y006950D01*
X017601Y007016D01*
X017468Y007016D01*
X017401Y006950D01*
X017401Y006750D01*
X017801Y006750D01*
X017668Y006883D02*
X017801Y007016D01*
X018336Y007409D02*
X016917Y007409D01*
X017096Y007189D02*
X017098Y007213D01*
X017104Y007236D01*
X017114Y007257D01*
X017127Y007277D01*
X017144Y007294D01*
X017163Y007308D01*
X017184Y007319D01*
X017207Y007326D01*
X017230Y007329D01*
X017254Y007328D01*
X017277Y007323D01*
X017299Y007314D01*
X017319Y007302D01*
X017337Y007286D01*
X017352Y007267D01*
X017364Y007247D01*
X017371Y007224D01*
X017375Y007201D01*
X017375Y007177D01*
X017371Y007154D01*
X017364Y007131D01*
X017352Y007111D01*
X017337Y007092D01*
X017319Y007076D01*
X017299Y007064D01*
X017277Y007055D01*
X017254Y007050D01*
X017230Y007049D01*
X017207Y007052D01*
X017184Y007059D01*
X017163Y007070D01*
X017144Y007084D01*
X017127Y007101D01*
X017114Y007121D01*
X017104Y007142D01*
X017098Y007165D01*
X017096Y007189D01*
X016443Y007379D02*
X016310Y007512D01*
X016377Y007512D02*
X016176Y007512D01*
X016176Y007379D02*
X016176Y007779D01*
X016377Y007779D01*
X016443Y007712D01*
X016443Y007579D01*
X016377Y007512D01*
X015843Y007412D02*
X015777Y007479D01*
X015643Y007479D01*
X015576Y007412D01*
X015576Y007146D01*
X015643Y007079D01*
X015777Y007079D01*
X015843Y007146D01*
X015843Y007279D01*
X015710Y007279D01*
X015326Y006529D02*
X015226Y006529D01*
X015226Y005929D01*
X015326Y005929D01*
X015326Y006529D01*
X015226Y006529D02*
X013926Y006529D01*
X013926Y005929D01*
X015226Y005929D01*
X015197Y005779D02*
X014997Y005779D01*
X014997Y005379D01*
X014997Y005512D02*
X015197Y005512D01*
X015264Y005579D01*
X015264Y005712D01*
X015197Y005779D01*
X015131Y005512D02*
X015264Y005379D01*
X014804Y005379D02*
X014537Y005379D01*
X014804Y005646D01*
X014804Y005712D01*
X014737Y005779D01*
X014604Y005779D01*
X014537Y005712D01*
X014343Y005712D02*
X014277Y005779D01*
X014076Y005779D01*
X014076Y005379D01*
X014277Y005379D01*
X014343Y005446D01*
X014343Y005712D01*
X014426Y006029D02*
X014726Y006229D01*
X014426Y006429D01*
X014426Y006029D01*
X014726Y006029D02*
X014726Y006229D01*
X014726Y006429D01*
X014777Y007079D02*
X014643Y007079D01*
X014576Y007146D01*
X014576Y007412D01*
X014643Y007479D01*
X014777Y007479D01*
X014843Y007412D01*
X014843Y007279D02*
X014710Y007279D01*
X014843Y007279D02*
X014843Y007146D01*
X014777Y007079D01*
X013843Y007079D02*
X013710Y007212D01*
X013777Y007212D02*
X013576Y007212D01*
X013576Y007079D02*
X013576Y007479D01*
X013777Y007479D01*
X013843Y007412D01*
X013843Y007279D01*
X013777Y007212D01*
X012543Y007579D02*
X012276Y007579D01*
X012276Y007979D01*
X011936Y007409D02*
X010517Y007409D01*
X010696Y007189D02*
X010698Y007213D01*
X010704Y007236D01*
X010714Y007257D01*
X010727Y007277D01*
X010744Y007294D01*
X010763Y007308D01*
X010784Y007319D01*
X010807Y007326D01*
X010830Y007329D01*
X010854Y007328D01*
X010877Y007323D01*
X010899Y007314D01*
X010919Y007302D01*
X010937Y007286D01*
X010952Y007267D01*
X010964Y007247D01*
X010971Y007224D01*
X010975Y007201D01*
X010975Y007177D01*
X010971Y007154D01*
X010964Y007131D01*
X010952Y007111D01*
X010937Y007092D01*
X010919Y007076D01*
X010899Y007064D01*
X010877Y007055D01*
X010854Y007050D01*
X010830Y007049D01*
X010807Y007052D01*
X010784Y007059D01*
X010763Y007070D01*
X010744Y007084D01*
X010727Y007101D01*
X010714Y007121D01*
X010704Y007142D01*
X010698Y007165D01*
X010696Y007189D01*
X011068Y006856D02*
X011001Y006789D01*
X011001Y006656D01*
X011068Y006589D01*
X011068Y006856D02*
X011135Y006856D01*
X011401Y006589D01*
X011401Y006856D01*
X011335Y006396D02*
X011001Y006396D01*
X011001Y006129D02*
X011335Y006129D01*
X011401Y006196D01*
X011401Y006329D01*
X011335Y006396D01*
X011936Y005549D02*
X010517Y005549D01*
X008483Y006279D02*
X008216Y006279D01*
X008216Y006679D01*
X008023Y006612D02*
X008023Y006546D01*
X007756Y006279D01*
X008023Y006279D01*
X008023Y006612D02*
X007956Y006679D01*
X007822Y006679D01*
X007756Y006612D01*
X007562Y006612D02*
X007495Y006679D01*
X007295Y006679D01*
X007295Y006279D01*
X007495Y006279D01*
X007562Y006346D01*
X007562Y006612D01*
X007326Y006929D02*
X007326Y007529D01*
X007226Y007529D01*
X007226Y006929D01*
X007326Y006929D01*
X008626Y006929D01*
X008626Y007529D01*
X007326Y007529D01*
X007826Y007429D02*
X007826Y007229D01*
X008126Y007429D01*
X008126Y007029D01*
X007826Y007229D01*
X007826Y007029D01*
X010076Y007779D02*
X010343Y007779D01*
X011076Y007679D02*
X011343Y007679D01*
X011210Y007812D02*
X011210Y007546D01*
X010143Y009279D02*
X009876Y009279D01*
X009993Y009629D02*
X009726Y009629D01*
X009993Y009629D02*
X010126Y009762D01*
X009993Y009896D01*
X009726Y009896D01*
X009926Y010089D02*
X009926Y010356D01*
X010276Y010379D02*
X010276Y010579D01*
X010476Y010579D01*
X010476Y010679D02*
X010276Y010679D01*
X010276Y010879D01*
X010276Y011379D02*
X010276Y011579D01*
X010476Y011579D01*
X010476Y011679D02*
X010276Y011679D01*
X010276Y011879D01*
X010176Y011879D02*
X010176Y011679D01*
X009976Y011679D01*
X009476Y011679D02*
X009276Y011679D01*
X009276Y011879D01*
X009154Y012029D02*
X008887Y012029D01*
X009020Y012162D02*
X009020Y011896D01*
X008693Y011829D02*
X008693Y012229D01*
X008560Y012096D01*
X008426Y012229D01*
X008426Y011829D01*
X008126Y011829D02*
X004126Y011829D01*
X004126Y009629D01*
X008126Y009629D01*
X008126Y011829D01*
X009276Y012379D02*
X009276Y012579D01*
X009476Y012579D01*
X009476Y012679D02*
X009276Y012679D01*
X009276Y012879D01*
X008954Y013229D02*
X008687Y013229D01*
X008493Y013429D02*
X008493Y013029D01*
X008360Y013296D02*
X008493Y013429D01*
X008360Y013296D02*
X008226Y013429D01*
X008226Y013029D01*
X007776Y013679D02*
X007776Y013929D01*
X006876Y013929D01*
X006876Y013679D01*
X007326Y013679D01*
X007776Y013679D01*
X007326Y013679D02*
X007326Y013579D01*
X005326Y014029D02*
X005334Y014211D01*
X005359Y014391D01*
X005400Y014569D01*
X005457Y014741D01*
X005530Y014908D01*
X005617Y015068D01*
X005719Y015219D01*
X005834Y015360D01*
X005961Y015491D01*
X006099Y015609D01*
X006248Y015714D01*
X006406Y015805D01*
X006571Y015881D01*
X006743Y015942D01*
X006919Y015987D01*
X007099Y016016D01*
X007280Y016028D01*
X007462Y016024D01*
X007643Y016004D01*
X007822Y015967D01*
X007996Y015914D01*
X008164Y015845D01*
X008326Y015761D01*
X008479Y015663D01*
X008623Y015551D01*
X008756Y015427D01*
X008877Y015291D01*
X008986Y015145D01*
X009080Y014989D01*
X009160Y014826D01*
X009225Y014656D01*
X009274Y014480D01*
X009307Y014301D01*
X009324Y014120D01*
X009324Y013938D01*
X009307Y013757D01*
X009274Y013578D01*
X009225Y013402D01*
X009160Y013232D01*
X009080Y013069D01*
X008986Y012913D01*
X008877Y012767D01*
X008756Y012631D01*
X008623Y012507D01*
X008479Y012395D01*
X008326Y012297D01*
X008164Y012213D01*
X007996Y012144D01*
X007822Y012091D01*
X007643Y012054D01*
X007462Y012034D01*
X007280Y012030D01*
X007099Y012042D01*
X006919Y012071D01*
X006743Y012116D01*
X006571Y012177D01*
X006406Y012253D01*
X006248Y012344D01*
X006099Y012449D01*
X005961Y012567D01*
X005834Y012698D01*
X005719Y012839D01*
X005617Y012990D01*
X005530Y013150D01*
X005457Y013317D01*
X005400Y013489D01*
X005359Y013667D01*
X005334Y013847D01*
X005326Y014029D01*
X006196Y013989D02*
X006196Y013856D01*
X006263Y013789D01*
X006263Y013596D02*
X006196Y013529D01*
X006196Y013396D01*
X006263Y013329D01*
X006530Y013329D01*
X006596Y013396D01*
X006596Y013529D01*
X006530Y013596D01*
X006596Y013789D02*
X006330Y014056D01*
X006263Y014056D01*
X006196Y013989D01*
X006396Y014250D02*
X006396Y014516D01*
X006263Y014383D02*
X006530Y014383D01*
X006596Y014056D02*
X006596Y013789D01*
X007326Y014279D02*
X007326Y014479D01*
X009276Y013579D02*
X009276Y013379D01*
X009276Y013579D02*
X009476Y013579D01*
X009976Y013579D02*
X010176Y013579D01*
X010176Y013379D01*
X010276Y013379D02*
X010276Y013579D01*
X010476Y013579D01*
X010626Y013684D02*
X010626Y013841D01*
X010976Y013579D02*
X011176Y013579D01*
X011176Y013379D01*
X011376Y013106D02*
X011776Y013106D01*
X011643Y012973D01*
X011776Y012839D01*
X011376Y012839D01*
X011176Y012879D02*
X011176Y012679D01*
X010976Y012679D01*
X010976Y012579D02*
X011176Y012579D01*
X011176Y012379D01*
X011376Y012446D02*
X011443Y012379D01*
X011510Y012379D01*
X011576Y012446D01*
X011576Y012579D01*
X011643Y012646D01*
X011710Y012646D01*
X011776Y012579D01*
X011776Y012446D01*
X011710Y012379D01*
X011376Y012446D02*
X011376Y012579D01*
X011443Y012646D01*
X011176Y011879D02*
X011176Y011679D01*
X010976Y011679D01*
X010976Y011579D02*
X011176Y011579D01*
X011176Y011379D01*
X011493Y011423D02*
X011760Y011423D01*
X011626Y011556D02*
X011626Y011289D01*
X011693Y011096D02*
X011426Y011096D01*
X011693Y011096D02*
X011826Y010962D01*
X011693Y010829D01*
X011426Y010829D01*
X011176Y010879D02*
X011176Y010679D01*
X010976Y010679D01*
X010976Y010579D02*
X011176Y010579D01*
X011176Y010379D01*
X011176Y009879D02*
X011176Y009679D01*
X010976Y009679D01*
X010476Y009679D02*
X010276Y009679D01*
X010276Y009879D01*
X011576Y010079D02*
X011843Y010079D01*
X011710Y010212D02*
X011710Y009946D01*
X012676Y009879D02*
X012943Y009879D01*
X012676Y009879D02*
X012676Y010279D01*
X012426Y010829D02*
X013626Y010829D01*
X013652Y010831D01*
X013678Y010836D01*
X013703Y010844D01*
X013726Y010856D01*
X013748Y010870D01*
X013767Y010888D01*
X013785Y010907D01*
X013799Y010929D01*
X013811Y010952D01*
X013819Y010977D01*
X013824Y011003D01*
X013826Y011029D01*
X013826Y015829D01*
X013824Y015855D01*
X013819Y015881D01*
X013811Y015906D01*
X013799Y015929D01*
X013785Y015951D01*
X013767Y015970D01*
X013748Y015988D01*
X013726Y016002D01*
X013703Y016014D01*
X013678Y016022D01*
X013652Y016027D01*
X013626Y016029D01*
X012426Y016029D01*
X012400Y016027D01*
X012374Y016022D01*
X012349Y016014D01*
X012326Y016002D01*
X012304Y015988D01*
X012285Y015970D01*
X012267Y015951D01*
X012253Y015929D01*
X012241Y015906D01*
X012233Y015881D01*
X012228Y015855D01*
X012226Y015829D01*
X012226Y011029D01*
X012228Y011003D01*
X012233Y010977D01*
X012241Y010952D01*
X012253Y010929D01*
X012267Y010907D01*
X012285Y010888D01*
X012304Y010870D01*
X012326Y010856D01*
X012349Y010844D01*
X012374Y010836D01*
X012400Y010831D01*
X012426Y010829D01*
X013576Y010279D02*
X013576Y009879D01*
X013576Y010012D02*
X013777Y010012D01*
X013843Y010079D01*
X013843Y010212D01*
X013777Y010279D01*
X013576Y010279D01*
X013710Y010012D02*
X013843Y009879D01*
X014576Y009946D02*
X014643Y009879D01*
X014777Y009879D01*
X014843Y009946D01*
X014843Y010079D01*
X014710Y010079D01*
X014843Y010212D02*
X014777Y010279D01*
X014643Y010279D01*
X014576Y010212D01*
X014576Y009946D01*
X015276Y009679D02*
X015276Y009479D01*
X015276Y009679D02*
X015476Y009679D01*
X015460Y009829D02*
X015326Y009829D01*
X015393Y009829D02*
X015393Y010229D01*
X015326Y010229D02*
X015460Y010229D01*
X015633Y010162D02*
X015633Y009896D01*
X015700Y009829D01*
X015834Y009829D01*
X015900Y009896D01*
X015900Y010029D01*
X015767Y010029D01*
X015900Y010162D02*
X015834Y010229D01*
X015700Y010229D01*
X015633Y010162D01*
X015976Y009679D02*
X016176Y009679D01*
X016176Y009479D01*
X016276Y009479D02*
X016276Y009679D01*
X016476Y009679D01*
X016460Y009829D02*
X016326Y009829D01*
X016393Y009829D02*
X016393Y010229D01*
X016326Y010229D02*
X016460Y010229D01*
X016633Y010229D02*
X016834Y010229D01*
X016900Y010162D01*
X016900Y010029D01*
X016834Y009962D01*
X016633Y009962D01*
X016633Y009829D02*
X016633Y010229D01*
X016767Y009962D02*
X016900Y009829D01*
X016976Y009679D02*
X017176Y009679D01*
X017176Y009479D01*
X017276Y009479D02*
X017276Y009679D01*
X017476Y009679D01*
X017460Y009829D02*
X017326Y009829D01*
X017393Y009829D02*
X017393Y010229D01*
X017326Y010229D02*
X017460Y010229D01*
X017633Y010229D02*
X017633Y009829D01*
X017900Y009829D01*
X017976Y009679D02*
X018176Y009679D01*
X018176Y009479D01*
X018176Y008979D02*
X018176Y008779D01*
X017976Y008779D01*
X017476Y008779D02*
X017276Y008779D01*
X017276Y008979D01*
X017176Y008979D02*
X017176Y008779D01*
X016976Y008779D01*
X016476Y008779D02*
X016276Y008779D01*
X016276Y008979D01*
X016176Y008979D02*
X016176Y008779D01*
X015976Y008779D01*
X015476Y008779D02*
X015276Y008779D01*
X015276Y008979D01*
X016976Y010729D02*
X016976Y011229D01*
X016726Y010979D02*
X017226Y010979D01*
X017726Y011229D02*
X017726Y010729D01*
X019976Y010729D01*
X019976Y011229D01*
X017726Y011229D01*
X017726Y016229D01*
X019976Y016229D01*
X019976Y011229D01*
X019976Y011729D02*
X020226Y011729D01*
X020226Y012479D02*
X019976Y012479D01*
X019976Y014979D02*
X020226Y014979D01*
X020226Y015729D02*
X019976Y015729D01*
X019976Y016229D02*
X019976Y016729D01*
X017726Y016729D01*
X017726Y016229D01*
X016026Y015829D02*
X016026Y011029D01*
X016024Y011003D01*
X016019Y010977D01*
X016011Y010952D01*
X015999Y010929D01*
X015985Y010907D01*
X015967Y010888D01*
X015948Y010870D01*
X015926Y010856D01*
X015903Y010844D01*
X015878Y010836D01*
X015852Y010831D01*
X015826Y010829D01*
X014626Y010829D01*
X014600Y010831D01*
X014574Y010836D01*
X014549Y010844D01*
X014526Y010856D01*
X014504Y010870D01*
X014485Y010888D01*
X014467Y010907D01*
X014453Y010929D01*
X014441Y010952D01*
X014433Y010977D01*
X014428Y011003D01*
X014426Y011029D01*
X014426Y015829D01*
X014428Y015855D01*
X014433Y015881D01*
X014441Y015906D01*
X014453Y015929D01*
X014467Y015951D01*
X014485Y015970D01*
X014504Y015988D01*
X014526Y016002D01*
X014549Y016014D01*
X014574Y016022D01*
X014600Y016027D01*
X014626Y016029D01*
X015826Y016029D01*
X015852Y016027D01*
X015878Y016022D01*
X015903Y016014D01*
X015926Y016002D01*
X015948Y015988D01*
X015967Y015970D01*
X015985Y015951D01*
X015999Y015929D01*
X016011Y015906D01*
X016019Y015881D01*
X016024Y015855D01*
X016026Y015829D01*
X015226Y014929D02*
X015226Y012529D01*
X015226Y012179D02*
X015226Y011929D01*
X014960Y012979D02*
X014693Y012979D01*
X014626Y013046D01*
X014626Y013179D01*
X014693Y013246D01*
X014760Y013439D02*
X014626Y013573D01*
X015026Y013573D01*
X015026Y013706D02*
X015026Y013439D01*
X014960Y013246D02*
X015026Y013179D01*
X015026Y013046D01*
X014960Y012979D01*
X015026Y013900D02*
X014626Y013900D01*
X014626Y014100D01*
X014693Y014166D01*
X014826Y014166D01*
X014893Y014100D01*
X014893Y013900D01*
X014893Y014033D02*
X015026Y014166D01*
X013026Y014929D02*
X013026Y012529D01*
X013026Y012179D02*
X013026Y011929D01*
X012760Y012979D02*
X012493Y012979D01*
X012426Y013046D01*
X012426Y013179D01*
X012493Y013246D01*
X012560Y013439D02*
X012426Y013573D01*
X012826Y013573D01*
X012826Y013706D02*
X012826Y013439D01*
X012760Y013246D02*
X012826Y013179D01*
X012826Y013046D01*
X012760Y012979D01*
X012826Y013900D02*
X012426Y013900D01*
X012826Y013900D02*
X012826Y014166D01*
X010626Y014616D02*
X010626Y014841D01*
X009926Y014802D02*
X009526Y014802D01*
X009660Y014668D01*
X009526Y014475D02*
X009860Y014475D01*
X009926Y014408D01*
X009926Y014275D01*
X009860Y014208D01*
X009526Y014208D01*
X010076Y013904D02*
X010076Y015554D01*
X010626Y015616D02*
X010626Y015774D01*
X009926Y014935D02*
X009926Y014668D01*
X010176Y012879D02*
X010176Y012679D01*
X009976Y012679D01*
X009976Y012579D02*
X010176Y012579D01*
X010176Y012379D01*
X010276Y012379D02*
X010276Y012579D01*
X010476Y012579D01*
X010476Y012679D02*
X010276Y012679D01*
X010276Y012879D01*
X006976Y012529D02*
X006676Y012529D01*
X006826Y012679D02*
X006826Y012379D01*
X006126Y010959D02*
X006126Y010729D01*
X005226Y010729D01*
X005676Y010499D02*
X005676Y010959D01*
X006126Y010729D01*
X005676Y010499D01*
X005656Y010229D02*
X005856Y010229D01*
X005923Y010162D01*
X005923Y009896D01*
X005856Y009829D01*
X005656Y009829D01*
X005656Y010229D01*
X006116Y010096D02*
X006249Y010229D01*
X006249Y009829D01*
X006116Y009829D02*
X006383Y009829D01*
X006126Y010499D02*
X006126Y010729D01*
X006626Y010729D01*
X003926Y009629D02*
X003926Y009029D01*
X003924Y009009D01*
X003918Y008991D01*
X003909Y008973D01*
X003897Y008958D01*
X003882Y008946D01*
X003864Y008937D01*
X003846Y008931D01*
X003826Y008929D01*
X003676Y008929D01*
X003626Y008979D01*
X002226Y008979D01*
X002176Y008929D01*
X002026Y008929D01*
X002006Y008931D01*
X001988Y008937D01*
X001970Y008946D01*
X001955Y008958D01*
X001943Y008973D01*
X001934Y008991D01*
X001928Y009009D01*
X001926Y009029D01*
X001926Y009629D01*
X001928Y009649D01*
X001934Y009667D01*
X001943Y009685D01*
X001955Y009700D01*
X001970Y009712D01*
X001988Y009721D01*
X002006Y009727D01*
X002026Y009729D01*
X002176Y009729D01*
X002226Y009679D01*
X003626Y009679D01*
X003676Y009729D01*
X003826Y009729D01*
X003846Y009727D01*
X003864Y009721D01*
X003882Y009712D01*
X003897Y009700D01*
X003909Y009685D01*
X003918Y009667D01*
X003924Y009649D01*
X003926Y009629D01*
X003511Y009421D02*
X003511Y009227D01*
X003462Y009179D01*
X003317Y009179D01*
X003317Y009469D01*
X003462Y009469D01*
X003511Y009421D01*
X003152Y009469D02*
X002958Y009469D01*
X002958Y009179D01*
X003152Y009179D01*
X003055Y009324D02*
X002958Y009324D01*
X002793Y009179D02*
X002599Y009179D01*
X002599Y009469D01*
X002434Y009421D02*
X002434Y009324D01*
X002385Y009276D01*
X002240Y009276D01*
X002337Y009276D02*
X002434Y009179D01*
X002240Y009179D02*
X002240Y009469D01*
X002385Y009469D01*
X002434Y009421D01*
X002297Y009979D02*
X002097Y009979D01*
X002097Y010379D01*
X002297Y010379D01*
X002364Y010312D01*
X002364Y010046D01*
X002297Y009979D01*
X001904Y009979D02*
X001637Y009979D01*
X001637Y010379D01*
X001904Y010379D01*
X001770Y010179D02*
X001637Y010179D01*
X001443Y009979D02*
X001176Y009979D01*
X001176Y010379D01*
X001210Y012346D02*
X001210Y012612D01*
X001076Y012479D02*
X001343Y012479D01*
X002023Y013448D02*
X002290Y013448D01*
X002356Y013514D01*
X002356Y013648D01*
X002290Y013715D01*
X002356Y013908D02*
X002090Y014175D01*
X002023Y014175D01*
X001956Y014108D01*
X001956Y013975D01*
X002023Y013908D01*
X002023Y013715D02*
X001956Y013648D01*
X001956Y013514D01*
X002023Y013448D01*
X002356Y013908D02*
X002356Y014175D01*
X002156Y014368D02*
X002156Y014635D01*
X002676Y014379D02*
X002676Y014129D01*
X003576Y014129D01*
X003576Y014379D01*
X003126Y014379D01*
X002676Y014379D01*
X003126Y014379D02*
X003126Y014479D01*
X001126Y014029D02*
X001134Y014211D01*
X001159Y014391D01*
X001200Y014569D01*
X001257Y014741D01*
X001330Y014908D01*
X001417Y015068D01*
X001519Y015219D01*
X001634Y015360D01*
X001761Y015491D01*
X001899Y015609D01*
X002048Y015714D01*
X002206Y015805D01*
X002371Y015881D01*
X002543Y015942D01*
X002719Y015987D01*
X002899Y016016D01*
X003080Y016028D01*
X003262Y016024D01*
X003443Y016004D01*
X003622Y015967D01*
X003796Y015914D01*
X003964Y015845D01*
X004126Y015761D01*
X004279Y015663D01*
X004423Y015551D01*
X004556Y015427D01*
X004677Y015291D01*
X004786Y015145D01*
X004880Y014989D01*
X004960Y014826D01*
X005025Y014656D01*
X005074Y014480D01*
X005107Y014301D01*
X005124Y014120D01*
X005124Y013938D01*
X005107Y013757D01*
X005074Y013578D01*
X005025Y013402D01*
X004960Y013232D01*
X004880Y013069D01*
X004786Y012913D01*
X004677Y012767D01*
X004556Y012631D01*
X004423Y012507D01*
X004279Y012395D01*
X004126Y012297D01*
X003964Y012213D01*
X003796Y012144D01*
X003622Y012091D01*
X003443Y012054D01*
X003262Y012034D01*
X003080Y012030D01*
X002899Y012042D01*
X002719Y012071D01*
X002543Y012116D01*
X002371Y012177D01*
X002206Y012253D01*
X002048Y012344D01*
X001899Y012449D01*
X001761Y012567D01*
X001634Y012698D01*
X001519Y012839D01*
X001417Y012990D01*
X001330Y013150D01*
X001257Y013317D01*
X001200Y013489D01*
X001159Y013667D01*
X001134Y013847D01*
X001126Y014029D01*
X003126Y013779D02*
X003126Y013579D01*
X003626Y015379D02*
X003626Y015679D01*
X003776Y015529D02*
X003476Y015529D01*
X004017Y007409D02*
X005436Y007409D01*
X004901Y007216D02*
X004901Y006950D01*
X004501Y006950D01*
X004196Y007189D02*
X004198Y007213D01*
X004204Y007236D01*
X004214Y007257D01*
X004227Y007277D01*
X004244Y007294D01*
X004263Y007308D01*
X004284Y007319D01*
X004307Y007326D01*
X004330Y007329D01*
X004354Y007328D01*
X004377Y007323D01*
X004399Y007314D01*
X004419Y007302D01*
X004437Y007286D01*
X004452Y007267D01*
X004464Y007247D01*
X004471Y007224D01*
X004475Y007201D01*
X004475Y007177D01*
X004471Y007154D01*
X004464Y007131D01*
X004452Y007111D01*
X004437Y007092D01*
X004419Y007076D01*
X004399Y007064D01*
X004377Y007055D01*
X004354Y007050D01*
X004330Y007049D01*
X004307Y007052D01*
X004284Y007059D01*
X004263Y007070D01*
X004244Y007084D01*
X004227Y007101D01*
X004214Y007121D01*
X004204Y007142D01*
X004198Y007165D01*
X004196Y007189D01*
X004568Y006756D02*
X004501Y006689D01*
X004501Y006556D01*
X004568Y006489D01*
X004701Y006623D02*
X004701Y006689D01*
X004768Y006756D01*
X004835Y006756D01*
X004901Y006689D01*
X004901Y006556D01*
X004835Y006489D01*
X004835Y006296D02*
X004501Y006296D01*
X004501Y006029D02*
X004835Y006029D01*
X004901Y006096D01*
X004901Y006229D01*
X004835Y006296D01*
X004701Y006689D02*
X004635Y006756D01*
X004568Y006756D01*
X004017Y005549D02*
X005436Y005549D01*
X002576Y005929D02*
X002576Y006029D01*
X002526Y006079D01*
X002526Y006979D01*
X002576Y007029D01*
X002576Y007129D01*
X002316Y007066D02*
X002316Y007260D01*
X002316Y007066D02*
X002026Y007066D01*
X001926Y006979D02*
X001926Y006079D01*
X001876Y006029D01*
X001876Y005929D01*
X002026Y005989D02*
X002026Y006134D01*
X002075Y006182D01*
X002171Y006182D01*
X002220Y006134D01*
X002220Y005989D01*
X002316Y005989D02*
X002026Y005989D01*
X002220Y006086D02*
X002316Y006182D01*
X002316Y006348D02*
X002316Y006541D01*
X002316Y006445D02*
X002026Y006445D01*
X002123Y006348D01*
X002123Y006707D02*
X002026Y006804D01*
X002316Y006804D01*
X002316Y006900D02*
X002316Y006707D01*
X001926Y006979D02*
X001876Y007029D01*
X001876Y007129D01*
X001576Y002402D02*
X001286Y002402D01*
X003286Y002402D02*
X003576Y002402D01*
X014086Y002502D02*
X014376Y002502D01*
X016026Y005479D02*
X016126Y005479D01*
X016176Y005429D01*
X017401Y005829D02*
X017735Y005829D01*
X017801Y005896D01*
X018176Y007579D02*
X018443Y007579D01*
X018176Y007579D02*
X018176Y007979D01*
D12*
X015726Y012179D02*
X015226Y012179D01*
X014726Y012179D01*
X014726Y012529D02*
X015226Y012529D01*
X015726Y012529D01*
X013526Y012529D02*
X013026Y012529D01*
X012526Y012529D01*
X012526Y012179D02*
X013026Y012179D01*
X013526Y012179D01*
D13*
X007326Y014254D03*
X003126Y013804D03*
D14*
X007626Y010729D03*
D15*
X008301Y010729D03*
X003951Y010729D03*
D16*
X001327Y011935D02*
X001382Y011864D01*
X001381Y011864D02*
X001347Y011835D01*
X001316Y011803D01*
X001287Y011768D01*
X001261Y011732D01*
X001238Y011693D01*
X001218Y011653D01*
X001202Y011611D01*
X001189Y011568D01*
X001179Y011524D01*
X001173Y011479D01*
X001171Y011434D01*
X001082Y011434D01*
X001081Y011434D01*
X001083Y011482D01*
X001089Y011530D01*
X001098Y011577D01*
X001111Y011623D01*
X001127Y011669D01*
X001147Y011712D01*
X001169Y011755D01*
X001195Y011795D01*
X001224Y011834D01*
X001255Y011870D01*
X001290Y011904D01*
X001326Y011935D01*
X001332Y011928D01*
X001296Y011897D01*
X001262Y011864D01*
X001231Y011828D01*
X001203Y011790D01*
X001177Y011750D01*
X001155Y011709D01*
X001135Y011665D01*
X001120Y011621D01*
X001107Y011575D01*
X001098Y011528D01*
X001092Y011481D01*
X001090Y011434D01*
X001099Y011434D01*
X001101Y011481D01*
X001107Y011527D01*
X001116Y011573D01*
X001128Y011618D01*
X001144Y011662D01*
X001163Y011705D01*
X001185Y011746D01*
X001210Y011785D01*
X001238Y011822D01*
X001268Y011858D01*
X001302Y011891D01*
X001337Y011921D01*
X001343Y011914D01*
X001308Y011884D01*
X001275Y011852D01*
X001245Y011817D01*
X001217Y011780D01*
X001193Y011741D01*
X001171Y011701D01*
X001152Y011659D01*
X001137Y011615D01*
X001125Y011571D01*
X001116Y011526D01*
X001110Y011480D01*
X001108Y011434D01*
X001117Y011434D01*
X001119Y011483D01*
X001126Y011533D01*
X001136Y011581D01*
X001150Y011628D01*
X001169Y011674D01*
X001190Y011719D01*
X001216Y011761D01*
X001244Y011801D01*
X001276Y011839D01*
X001311Y011874D01*
X001348Y011907D01*
X001354Y011900D01*
X001317Y011868D01*
X001283Y011833D01*
X001251Y011796D01*
X001223Y011756D01*
X001198Y011714D01*
X001177Y011671D01*
X001159Y011625D01*
X001145Y011579D01*
X001135Y011531D01*
X001128Y011483D01*
X001126Y011434D01*
X001135Y011434D01*
X001137Y011482D01*
X001144Y011530D01*
X001154Y011576D01*
X001168Y011622D01*
X001185Y011667D01*
X001206Y011710D01*
X001231Y011751D01*
X001258Y011790D01*
X001289Y011827D01*
X001323Y011861D01*
X001359Y011892D01*
X001365Y011885D01*
X001329Y011855D01*
X001296Y011821D01*
X001265Y011785D01*
X001238Y011746D01*
X001214Y011706D01*
X001193Y011663D01*
X001176Y011619D01*
X001162Y011574D01*
X001152Y011528D01*
X001146Y011481D01*
X001144Y011434D01*
X001153Y011434D01*
X001155Y011481D01*
X001161Y011527D01*
X001171Y011572D01*
X001185Y011616D01*
X001202Y011660D01*
X001222Y011701D01*
X001246Y011741D01*
X001273Y011779D01*
X001302Y011815D01*
X001335Y011848D01*
X001370Y011878D01*
X001376Y011871D01*
X001341Y011841D01*
X001309Y011809D01*
X001280Y011774D01*
X001253Y011737D01*
X001230Y011697D01*
X001210Y011656D01*
X001193Y011614D01*
X001180Y011570D01*
X001170Y011525D01*
X001164Y011480D01*
X001162Y011434D01*
X002570Y011434D02*
X002480Y011434D01*
X002481Y011434D02*
X002479Y011488D01*
X002473Y011541D01*
X002463Y011594D01*
X002449Y011646D01*
X002432Y011697D01*
X002411Y011746D01*
X002387Y011794D01*
X002359Y011840D01*
X002328Y011884D01*
X002294Y011926D01*
X002258Y011965D01*
X002218Y012002D01*
X002176Y012035D01*
X002132Y012066D01*
X002086Y012093D01*
X002128Y012172D01*
X002177Y012144D01*
X002223Y012112D01*
X002268Y012077D01*
X002310Y012040D01*
X002349Y011999D01*
X002386Y011956D01*
X002420Y011911D01*
X002451Y011864D01*
X002478Y011814D01*
X002502Y011763D01*
X002523Y011711D01*
X002540Y011657D01*
X002553Y011602D01*
X002563Y011547D01*
X002569Y011491D01*
X002571Y011434D01*
X002562Y011434D01*
X002560Y011490D01*
X002554Y011545D01*
X002544Y011600D01*
X002531Y011655D01*
X002514Y011708D01*
X002494Y011760D01*
X002470Y011810D01*
X002443Y011859D01*
X002413Y011906D01*
X002379Y011951D01*
X002343Y011993D01*
X002304Y012033D01*
X002262Y012070D01*
X002218Y012105D01*
X002172Y012136D01*
X002124Y012164D01*
X002120Y012156D01*
X002167Y012128D01*
X002213Y012097D01*
X002256Y012063D01*
X002298Y012027D01*
X002336Y011987D01*
X002372Y011945D01*
X002405Y011901D01*
X002435Y011855D01*
X002462Y011806D01*
X002485Y011756D01*
X002506Y011705D01*
X002522Y011652D01*
X002535Y011599D01*
X002545Y011544D01*
X002551Y011489D01*
X002553Y011434D01*
X002544Y011434D01*
X002542Y011489D01*
X002536Y011543D01*
X002527Y011597D01*
X002514Y011650D01*
X002497Y011702D01*
X002477Y011753D01*
X002454Y011802D01*
X002427Y011850D01*
X002398Y011896D01*
X002365Y011940D01*
X002330Y011981D01*
X002291Y012020D01*
X002251Y012057D01*
X002208Y012090D01*
X002162Y012121D01*
X002115Y012148D01*
X002111Y012140D01*
X002158Y012113D01*
X002202Y012083D01*
X002245Y012050D01*
X002285Y012014D01*
X002323Y011975D01*
X002358Y011934D01*
X002390Y011891D01*
X002420Y011845D01*
X002446Y011798D01*
X002469Y011749D01*
X002489Y011699D01*
X002505Y011647D01*
X002518Y011595D01*
X002527Y011542D01*
X002533Y011488D01*
X002535Y011434D01*
X002526Y011434D01*
X002524Y011491D01*
X002517Y011548D01*
X002507Y011604D01*
X002492Y011659D01*
X002474Y011713D01*
X002452Y011765D01*
X002426Y011816D01*
X002397Y011865D01*
X002364Y011911D01*
X002328Y011956D01*
X002289Y011997D01*
X002247Y012036D01*
X002203Y012071D01*
X002156Y012104D01*
X002107Y012133D01*
X002103Y012125D01*
X002151Y012096D01*
X002198Y012064D01*
X002242Y012029D01*
X002283Y011991D01*
X002321Y011950D01*
X002357Y011906D01*
X002389Y011860D01*
X002418Y011812D01*
X002444Y011761D01*
X002466Y011710D01*
X002484Y011656D01*
X002498Y011602D01*
X002508Y011546D01*
X002515Y011490D01*
X002517Y011434D01*
X002508Y011434D01*
X002506Y011490D01*
X002499Y011545D01*
X002489Y011600D01*
X002475Y011654D01*
X002457Y011706D01*
X002436Y011758D01*
X002410Y011807D01*
X002382Y011855D01*
X002350Y011901D01*
X002315Y011944D01*
X002277Y011984D01*
X002236Y012022D01*
X002192Y012057D01*
X002146Y012088D01*
X002098Y012117D01*
X002094Y012109D01*
X002142Y012081D01*
X002187Y012050D01*
X002230Y012015D01*
X002270Y011978D01*
X002308Y011938D01*
X002343Y011895D01*
X002374Y011850D01*
X002403Y011803D01*
X002427Y011754D01*
X002449Y011703D01*
X002466Y011651D01*
X002480Y011598D01*
X002490Y011544D01*
X002497Y011489D01*
X002499Y011434D01*
X002490Y011434D01*
X002488Y011488D01*
X002482Y011542D01*
X002472Y011596D01*
X002458Y011648D01*
X002440Y011700D01*
X002419Y011750D01*
X002395Y011799D01*
X002367Y011845D01*
X002335Y011890D01*
X002301Y011932D01*
X002264Y011972D01*
X002224Y012008D01*
X002182Y012042D01*
X002137Y012073D01*
X002090Y012101D01*
X001303Y012160D02*
X001348Y012082D01*
X001347Y012082D02*
X001303Y012054D01*
X001261Y012023D01*
X001221Y011990D01*
X001183Y011954D01*
X001148Y011915D01*
X001116Y011874D01*
X001086Y011830D01*
X001060Y011785D01*
X001037Y011738D01*
X001017Y011690D01*
X001001Y011640D01*
X000988Y011590D01*
X000979Y011538D01*
X000973Y011486D01*
X000971Y011434D01*
X000882Y011433D01*
X000881Y011434D01*
X000883Y011489D01*
X000889Y011543D01*
X000898Y011598D01*
X000911Y011651D01*
X000927Y011704D01*
X000946Y011755D01*
X000969Y011805D01*
X000995Y011853D01*
X001024Y011900D01*
X001056Y011944D01*
X001091Y011987D01*
X001129Y012027D01*
X001169Y012064D01*
X001211Y012099D01*
X001256Y012131D01*
X001302Y012160D01*
X001307Y012152D01*
X001258Y012122D01*
X001211Y012088D01*
X001167Y012050D01*
X001125Y012010D01*
X001086Y011967D01*
X001050Y011921D01*
X001018Y011873D01*
X000989Y011823D01*
X000963Y011771D01*
X000941Y011718D01*
X000923Y011663D01*
X000909Y011606D01*
X000899Y011549D01*
X000892Y011492D01*
X000890Y011434D01*
X000899Y011434D01*
X000901Y011491D01*
X000908Y011548D01*
X000918Y011605D01*
X000932Y011660D01*
X000950Y011715D01*
X000972Y011768D01*
X000997Y011819D01*
X001026Y011869D01*
X001058Y011916D01*
X001093Y011961D01*
X001131Y012004D01*
X001173Y012044D01*
X001216Y012080D01*
X001263Y012114D01*
X001311Y012145D01*
X001316Y012137D01*
X001268Y012107D01*
X001222Y012073D01*
X001179Y012037D01*
X001138Y011997D01*
X001100Y011955D01*
X001065Y011911D01*
X001033Y011864D01*
X001005Y011815D01*
X000980Y011764D01*
X000958Y011711D01*
X000941Y011658D01*
X000927Y011603D01*
X000917Y011547D01*
X000910Y011491D01*
X000908Y011434D01*
X000917Y011434D01*
X000919Y011490D01*
X000925Y011546D01*
X000935Y011601D01*
X000949Y011655D01*
X000967Y011708D01*
X000988Y011760D01*
X001013Y011811D01*
X001041Y011859D01*
X001072Y011905D01*
X001107Y011950D01*
X001144Y011991D01*
X001185Y012030D01*
X001227Y012066D01*
X001273Y012099D01*
X001320Y012129D01*
X001325Y012121D01*
X001278Y012092D01*
X001233Y012059D01*
X001191Y012023D01*
X001151Y011985D01*
X001114Y011944D01*
X001079Y011900D01*
X001048Y011854D01*
X001021Y011806D01*
X000996Y011757D01*
X000975Y011705D01*
X000958Y011653D01*
X000944Y011599D01*
X000934Y011544D01*
X000928Y011489D01*
X000926Y011434D01*
X000935Y011434D01*
X000937Y011489D01*
X000943Y011543D01*
X000953Y011597D01*
X000967Y011650D01*
X000984Y011702D01*
X001004Y011753D01*
X001029Y011802D01*
X001056Y011849D01*
X001087Y011895D01*
X001120Y011938D01*
X001157Y011979D01*
X001197Y012017D01*
X001239Y012052D01*
X001283Y012084D01*
X001329Y012113D01*
X001334Y012105D01*
X001288Y012077D01*
X001244Y012045D01*
X001203Y012010D01*
X001164Y011972D01*
X001127Y011932D01*
X001094Y011890D01*
X001064Y011845D01*
X001036Y011798D01*
X001013Y011749D01*
X000992Y011699D01*
X000975Y011648D01*
X000962Y011595D01*
X000952Y011542D01*
X000946Y011488D01*
X000944Y011434D01*
X000953Y011434D01*
X000955Y011487D01*
X000961Y011541D01*
X000971Y011593D01*
X000984Y011645D01*
X001001Y011696D01*
X001021Y011746D01*
X001044Y011794D01*
X001071Y011840D01*
X001101Y011884D01*
X001134Y011926D01*
X001170Y011966D01*
X001209Y012003D01*
X001250Y012038D01*
X001293Y012069D01*
X001338Y012098D01*
X001343Y012090D01*
X001298Y012062D01*
X001255Y012031D01*
X001215Y011997D01*
X001177Y011960D01*
X001141Y011921D01*
X001109Y011879D01*
X001079Y011835D01*
X001052Y011789D01*
X001029Y011742D01*
X001009Y011693D01*
X000992Y011643D01*
X000979Y011591D01*
X000970Y011539D01*
X000964Y011487D01*
X000962Y011434D01*
X000882Y011425D02*
X000972Y011425D01*
X000971Y011424D02*
X000973Y011370D01*
X000979Y011317D01*
X000989Y011264D01*
X001003Y011212D01*
X001020Y011161D01*
X001041Y011111D01*
X001065Y011063D01*
X001093Y011017D01*
X001124Y010973D01*
X001158Y010932D01*
X001195Y010892D01*
X001234Y010856D01*
X001177Y010788D01*
X001176Y010787D01*
X001135Y010825D01*
X001097Y010865D01*
X001061Y010908D01*
X001028Y010953D01*
X000998Y011000D01*
X000972Y011048D01*
X000948Y011099D01*
X000928Y011151D01*
X000911Y011204D01*
X000898Y011258D01*
X000889Y011313D01*
X000883Y011368D01*
X000881Y011424D01*
X000890Y011424D01*
X000892Y011369D01*
X000898Y011314D01*
X000907Y011260D01*
X000920Y011206D01*
X000937Y011154D01*
X000956Y011102D01*
X000980Y011053D01*
X001006Y011004D01*
X001036Y010958D01*
X001068Y010913D01*
X001103Y010871D01*
X001142Y010831D01*
X001182Y010794D01*
X001188Y010801D01*
X001148Y010838D01*
X001110Y010877D01*
X001075Y010919D01*
X001043Y010963D01*
X001014Y011009D01*
X000988Y011057D01*
X000965Y011106D01*
X000945Y011157D01*
X000929Y011209D01*
X000916Y011262D01*
X000907Y011315D01*
X000901Y011370D01*
X000899Y011424D01*
X000908Y011424D01*
X000910Y011370D01*
X000916Y011317D01*
X000925Y011264D01*
X000938Y011211D01*
X000954Y011160D01*
X000973Y011109D01*
X000996Y011061D01*
X001021Y011013D01*
X001050Y010968D01*
X001082Y010924D01*
X001117Y010883D01*
X001154Y010844D01*
X001194Y010808D01*
X001200Y010815D01*
X001160Y010851D01*
X001123Y010889D01*
X001089Y010930D01*
X001058Y010973D01*
X001029Y011018D01*
X001004Y011065D01*
X000981Y011113D01*
X000962Y011163D01*
X000946Y011214D01*
X000934Y011265D01*
X000925Y011318D01*
X000919Y011371D01*
X000917Y011424D01*
X000926Y011424D01*
X000928Y011367D01*
X000935Y011310D01*
X000945Y011254D01*
X000960Y011199D01*
X000978Y011145D01*
X001000Y011092D01*
X001026Y011042D01*
X001055Y010993D01*
X001088Y010946D01*
X001124Y010902D01*
X001163Y010860D01*
X001205Y010822D01*
X001211Y010828D01*
X001170Y010867D01*
X001131Y010908D01*
X001095Y010951D01*
X001063Y010998D01*
X001034Y011046D01*
X001008Y011096D01*
X000987Y011148D01*
X000968Y011202D01*
X000954Y011256D01*
X000944Y011312D01*
X000937Y011368D01*
X000935Y011424D01*
X000944Y011424D01*
X000946Y011368D01*
X000953Y011313D01*
X000963Y011258D01*
X000977Y011204D01*
X000995Y011151D01*
X001017Y011100D01*
X001042Y011050D01*
X001071Y011003D01*
X001103Y010957D01*
X001138Y010914D01*
X001176Y010873D01*
X001217Y010835D01*
X001223Y010842D01*
X001182Y010880D01*
X001145Y010920D01*
X001110Y010962D01*
X001078Y011007D01*
X001050Y011055D01*
X001025Y011104D01*
X001003Y011155D01*
X000986Y011207D01*
X000972Y011260D01*
X000962Y011314D01*
X000955Y011369D01*
X000953Y011424D01*
X000962Y011424D01*
X000964Y011370D01*
X000970Y011316D01*
X000980Y011262D01*
X000994Y011209D01*
X001012Y011158D01*
X001033Y011108D01*
X001058Y011059D01*
X001086Y011012D01*
X001117Y010968D01*
X001151Y010926D01*
X001189Y010886D01*
X001229Y010849D01*
X002270Y010784D02*
X002213Y010853D01*
X002213Y010852D02*
X002253Y010889D01*
X002291Y010928D01*
X002325Y010970D01*
X002357Y011014D01*
X002385Y011061D01*
X002410Y011109D01*
X002431Y011159D01*
X002449Y011210D01*
X002462Y011263D01*
X002472Y011316D01*
X002479Y011370D01*
X002481Y011424D01*
X002570Y011425D01*
X002571Y011424D01*
X002569Y011368D01*
X002563Y011312D01*
X002553Y011257D01*
X002540Y011202D01*
X002523Y011149D01*
X002503Y011096D01*
X002479Y011045D01*
X002452Y010996D01*
X002421Y010949D01*
X002388Y010904D01*
X002352Y010861D01*
X002313Y010821D01*
X002271Y010783D01*
X002265Y010790D01*
X002306Y010827D01*
X002345Y010867D01*
X002381Y010909D01*
X002414Y010954D01*
X002444Y011001D01*
X002471Y011050D01*
X002494Y011100D01*
X002515Y011152D01*
X002531Y011205D01*
X002544Y011259D01*
X002554Y011313D01*
X002560Y011369D01*
X002562Y011424D01*
X002553Y011424D01*
X002551Y011369D01*
X002545Y011315D01*
X002536Y011260D01*
X002523Y011207D01*
X002506Y011155D01*
X002486Y011103D01*
X002463Y011054D01*
X002436Y011005D01*
X002407Y010959D01*
X002374Y010915D01*
X002338Y010873D01*
X002300Y010834D01*
X002259Y010797D01*
X002254Y010804D01*
X002294Y010840D01*
X002332Y010879D01*
X002367Y010921D01*
X002399Y010964D01*
X002429Y011010D01*
X002455Y011058D01*
X002478Y011107D01*
X002498Y011158D01*
X002514Y011209D01*
X002527Y011262D01*
X002536Y011316D01*
X002542Y011370D01*
X002544Y011424D01*
X002535Y011424D01*
X002533Y011370D01*
X002527Y011317D01*
X002518Y011264D01*
X002505Y011212D01*
X002489Y011161D01*
X002470Y011110D01*
X002447Y011062D01*
X002421Y011015D01*
X002392Y010970D01*
X002360Y010926D01*
X002325Y010885D01*
X002288Y010847D01*
X002248Y010811D01*
X002242Y010818D01*
X002281Y010853D01*
X002318Y010891D01*
X002353Y010932D01*
X002384Y010975D01*
X002413Y011019D01*
X002439Y011066D01*
X002461Y011114D01*
X002481Y011163D01*
X002497Y011214D01*
X002509Y011266D01*
X002518Y011318D01*
X002524Y011371D01*
X002526Y011424D01*
X002517Y011424D01*
X002515Y011372D01*
X002509Y011319D01*
X002500Y011268D01*
X002488Y011217D01*
X002472Y011166D01*
X002453Y011118D01*
X002431Y011070D01*
X002405Y011024D01*
X002377Y010980D01*
X002346Y010938D01*
X002312Y010898D01*
X002275Y010860D01*
X002236Y010825D01*
X002231Y010832D01*
X002272Y010869D01*
X002311Y010910D01*
X002347Y010953D01*
X002379Y010999D01*
X002409Y011047D01*
X002434Y011097D01*
X002456Y011149D01*
X002474Y011202D01*
X002489Y011257D01*
X002499Y011312D01*
X002506Y011368D01*
X002508Y011424D01*
X002499Y011424D01*
X002497Y011369D01*
X002490Y011313D01*
X002480Y011259D01*
X002466Y011205D01*
X002448Y011152D01*
X002426Y011101D01*
X002401Y011052D01*
X002372Y011004D01*
X002340Y010959D01*
X002304Y010916D01*
X002266Y010876D01*
X002225Y010838D01*
X002219Y010845D01*
X002260Y010882D01*
X002298Y010922D01*
X002333Y010964D01*
X002364Y011009D01*
X002393Y011056D01*
X002418Y011105D01*
X002439Y011156D01*
X002457Y011208D01*
X002471Y011261D01*
X002481Y011315D01*
X002488Y011369D01*
X002490Y011424D01*
X001082Y011425D02*
X001172Y011425D01*
X001171Y011424D02*
X001173Y011379D01*
X001179Y011334D01*
X001189Y011290D01*
X001202Y011247D01*
X001218Y011206D01*
X001238Y011165D01*
X001261Y011126D01*
X001287Y011090D01*
X001316Y011055D01*
X001347Y011023D01*
X001381Y010994D01*
X001327Y010923D01*
X001326Y010923D01*
X001290Y010954D01*
X001255Y010988D01*
X001224Y011024D01*
X001195Y011063D01*
X001169Y011103D01*
X001147Y011146D01*
X001127Y011190D01*
X001111Y011235D01*
X001098Y011281D01*
X001089Y011328D01*
X001083Y011376D01*
X001081Y011424D01*
X001090Y011424D01*
X001092Y011377D01*
X001098Y011330D01*
X001107Y011283D01*
X001120Y011237D01*
X001135Y011193D01*
X001155Y011150D01*
X001177Y011108D01*
X001202Y011068D01*
X001231Y011030D01*
X001262Y010994D01*
X001296Y010961D01*
X001332Y010930D01*
X001337Y010937D01*
X001302Y010967D01*
X001268Y011000D01*
X001238Y011036D01*
X001210Y011073D01*
X001185Y011112D01*
X001163Y011154D01*
X001144Y011196D01*
X001128Y011240D01*
X001116Y011285D01*
X001107Y011331D01*
X001101Y011377D01*
X001099Y011424D01*
X001108Y011424D01*
X001110Y011378D01*
X001116Y011332D01*
X001124Y011287D01*
X001137Y011243D01*
X001152Y011200D01*
X001171Y011157D01*
X001193Y011117D01*
X001217Y011078D01*
X001245Y011041D01*
X001275Y011006D01*
X001308Y010974D01*
X001343Y010944D01*
X001348Y010951D01*
X001311Y010984D01*
X001276Y011019D01*
X001244Y011057D01*
X001216Y011097D01*
X001190Y011139D01*
X001169Y011184D01*
X001150Y011230D01*
X001136Y011277D01*
X001126Y011326D01*
X001119Y011375D01*
X001117Y011424D01*
X001126Y011424D01*
X001128Y011375D01*
X001135Y011327D01*
X001145Y011279D01*
X001159Y011233D01*
X001177Y011187D01*
X001198Y011144D01*
X001223Y011102D01*
X001251Y011062D01*
X001283Y011025D01*
X001317Y010990D01*
X001354Y010958D01*
X001359Y010966D01*
X001323Y010997D01*
X001289Y011031D01*
X001258Y011068D01*
X001231Y011107D01*
X001206Y011148D01*
X001185Y011191D01*
X001167Y011236D01*
X001154Y011282D01*
X001144Y011329D01*
X001137Y011376D01*
X001135Y011424D01*
X001144Y011424D01*
X001146Y011377D01*
X001152Y011330D01*
X001162Y011284D01*
X001176Y011239D01*
X001193Y011195D01*
X001214Y011152D01*
X001238Y011112D01*
X001265Y011073D01*
X001296Y011037D01*
X001329Y011003D01*
X001365Y010973D01*
X001370Y010980D01*
X001335Y011010D01*
X001302Y011043D01*
X001273Y011079D01*
X001246Y011117D01*
X001222Y011157D01*
X001201Y011198D01*
X001185Y011242D01*
X001171Y011286D01*
X001161Y011332D01*
X001155Y011378D01*
X001153Y011424D01*
X001162Y011424D01*
X001164Y011378D01*
X001170Y011333D01*
X001180Y011288D01*
X001193Y011245D01*
X001210Y011202D01*
X001230Y011161D01*
X001253Y011122D01*
X001280Y011084D01*
X001309Y011049D01*
X001341Y011017D01*
X001376Y010987D01*
X002370Y011433D02*
X002280Y011433D01*
X002281Y011434D02*
X002279Y011480D01*
X002273Y011525D01*
X002263Y011570D01*
X002249Y011614D01*
X002232Y011656D01*
X002212Y011698D01*
X002188Y011737D01*
X002161Y011774D01*
X002131Y011809D01*
X002098Y011841D01*
X002063Y011870D01*
X002116Y011941D01*
X002117Y011942D01*
X002155Y011911D01*
X002190Y011877D01*
X002223Y011840D01*
X002253Y011801D01*
X002279Y011760D01*
X002303Y011717D01*
X002323Y011673D01*
X002340Y011627D01*
X002353Y011580D01*
X002363Y011532D01*
X002369Y011483D01*
X002371Y011434D01*
X002362Y011434D01*
X002360Y011482D01*
X002354Y011530D01*
X002344Y011578D01*
X002331Y011624D01*
X002315Y011669D01*
X002295Y011713D01*
X002272Y011756D01*
X002245Y011796D01*
X002216Y011835D01*
X002184Y011871D01*
X002149Y011904D01*
X002112Y011935D01*
X002106Y011928D01*
X002143Y011897D01*
X002177Y011864D01*
X002209Y011829D01*
X002238Y011791D01*
X002264Y011751D01*
X002287Y011709D01*
X002306Y011666D01*
X002323Y011621D01*
X002336Y011575D01*
X002345Y011529D01*
X002351Y011482D01*
X002353Y011434D01*
X002344Y011434D01*
X002342Y011481D01*
X002336Y011527D01*
X002327Y011573D01*
X002314Y011619D01*
X002298Y011663D01*
X002279Y011705D01*
X002256Y011747D01*
X002231Y011786D01*
X002202Y011823D01*
X002171Y011858D01*
X002137Y011891D01*
X002101Y011920D01*
X002095Y011913D01*
X002131Y011884D01*
X002164Y011852D01*
X002195Y011817D01*
X002223Y011781D01*
X002248Y011742D01*
X002271Y011701D01*
X002290Y011659D01*
X002306Y011616D01*
X002318Y011571D01*
X002327Y011526D01*
X002333Y011480D01*
X002335Y011434D01*
X002326Y011434D01*
X002324Y011479D01*
X002318Y011525D01*
X002309Y011569D01*
X002297Y011613D01*
X002281Y011656D01*
X002263Y011697D01*
X002241Y011737D01*
X002216Y011775D01*
X002188Y011812D01*
X002158Y011845D01*
X002125Y011877D01*
X002090Y011906D01*
X002085Y011899D01*
X002119Y011870D01*
X002151Y011839D01*
X002181Y011806D01*
X002209Y011770D01*
X002233Y011733D01*
X002255Y011693D01*
X002273Y011652D01*
X002288Y011610D01*
X002301Y011567D01*
X002309Y011523D01*
X002315Y011479D01*
X002317Y011434D01*
X002308Y011434D01*
X002306Y011482D01*
X002299Y011530D01*
X002289Y011577D01*
X002275Y011623D01*
X002257Y011668D01*
X002235Y011711D01*
X002210Y011752D01*
X002182Y011791D01*
X002151Y011827D01*
X002116Y011861D01*
X002079Y011892D01*
X002074Y011884D01*
X002110Y011854D01*
X002144Y011821D01*
X002175Y011785D01*
X002203Y011747D01*
X002227Y011706D01*
X002249Y011664D01*
X002266Y011620D01*
X002280Y011575D01*
X002290Y011528D01*
X002297Y011481D01*
X002299Y011434D01*
X002290Y011434D01*
X002288Y011481D01*
X002281Y011527D01*
X002271Y011572D01*
X002258Y011617D01*
X002240Y011660D01*
X002220Y011702D01*
X002195Y011742D01*
X002168Y011779D01*
X002137Y011815D01*
X002104Y011847D01*
X002068Y011877D01*
X002104Y010908D02*
X002052Y010981D01*
X002053Y010980D02*
X002089Y011010D01*
X002124Y011042D01*
X002155Y011077D01*
X002183Y011115D01*
X002208Y011154D01*
X002230Y011196D01*
X002248Y011240D01*
X002262Y011285D01*
X002272Y011330D01*
X002279Y011377D01*
X002281Y011424D01*
X002370Y011425D01*
X002371Y011424D01*
X002369Y011374D01*
X002362Y011324D01*
X002352Y011275D01*
X002338Y011226D01*
X002321Y011179D01*
X002300Y011134D01*
X002275Y011090D01*
X002247Y011048D01*
X002216Y011009D01*
X002181Y010972D01*
X002144Y010938D01*
X002105Y010907D01*
X002100Y010914D01*
X002139Y010945D01*
X002175Y010979D01*
X002209Y011015D01*
X002240Y011054D01*
X002267Y011095D01*
X002292Y011138D01*
X002312Y011183D01*
X002330Y011229D01*
X002344Y011277D01*
X002354Y011325D01*
X002360Y011375D01*
X002362Y011424D01*
X002353Y011424D01*
X002351Y011375D01*
X002345Y011327D01*
X002335Y011279D01*
X002321Y011232D01*
X002304Y011186D01*
X002284Y011142D01*
X002259Y011100D01*
X002232Y011059D01*
X002202Y011021D01*
X002169Y010985D01*
X002133Y010952D01*
X002094Y010922D01*
X002089Y010929D01*
X002127Y010959D01*
X002162Y010991D01*
X002195Y011027D01*
X002225Y011064D01*
X002252Y011104D01*
X002276Y011146D01*
X002296Y011190D01*
X002313Y011235D01*
X002326Y011281D01*
X002336Y011328D01*
X002342Y011376D01*
X002344Y011424D01*
X002335Y011424D01*
X002333Y011377D01*
X002327Y011330D01*
X002317Y011283D01*
X002304Y011238D01*
X002288Y011193D01*
X002268Y011150D01*
X002244Y011109D01*
X002218Y011070D01*
X002188Y011033D01*
X002156Y010998D01*
X002121Y010966D01*
X002084Y010936D01*
X002079Y010944D01*
X002115Y010973D01*
X002150Y011004D01*
X002182Y011038D01*
X002210Y011075D01*
X002237Y011114D01*
X002260Y011154D01*
X002279Y011197D01*
X002296Y011240D01*
X002309Y011285D01*
X002318Y011331D01*
X002324Y011377D01*
X002326Y011424D01*
X002317Y011424D01*
X002315Y011378D01*
X002309Y011332D01*
X002300Y011287D01*
X002287Y011243D01*
X002271Y011200D01*
X002251Y011159D01*
X002229Y011119D01*
X002203Y011080D01*
X002175Y011044D01*
X002143Y011011D01*
X002110Y010979D01*
X002074Y010951D01*
X002068Y010958D01*
X002104Y010986D01*
X002137Y011017D01*
X002168Y011050D01*
X002196Y011086D01*
X002221Y011123D01*
X002243Y011163D01*
X002263Y011204D01*
X002279Y011246D01*
X002291Y011290D01*
X002300Y011334D01*
X002306Y011379D01*
X002308Y011424D01*
X002299Y011424D01*
X002297Y011380D01*
X002291Y011335D01*
X002282Y011292D01*
X002270Y011249D01*
X002254Y011207D01*
X002235Y011167D01*
X002214Y011128D01*
X002189Y011091D01*
X002161Y011056D01*
X002131Y011023D01*
X002098Y010993D01*
X002063Y010966D01*
X002058Y010973D01*
X002095Y011003D01*
X002130Y011036D01*
X002162Y011071D01*
X002191Y011109D01*
X002216Y011150D01*
X002238Y011192D01*
X002256Y011237D01*
X002271Y011282D01*
X002281Y011329D01*
X002288Y011376D01*
X002290Y011424D01*
X002620Y007133D02*
X002530Y007133D01*
X002531Y007134D02*
X002528Y007146D01*
X002523Y007158D01*
X002515Y007168D01*
X002505Y007176D01*
X002493Y007181D01*
X002481Y007184D01*
X002480Y007273D01*
X002481Y007274D01*
X002505Y007271D01*
X002528Y007264D01*
X002550Y007254D01*
X002570Y007240D01*
X002587Y007223D01*
X002601Y007203D01*
X002611Y007181D01*
X002618Y007158D01*
X002621Y007134D01*
X002612Y007134D01*
X002609Y007156D01*
X002603Y007178D01*
X002593Y007198D01*
X002580Y007217D01*
X002564Y007233D01*
X002545Y007246D01*
X002525Y007256D01*
X002503Y007262D01*
X002481Y007265D01*
X002481Y007256D01*
X002502Y007253D01*
X002522Y007247D01*
X002541Y007238D01*
X002558Y007226D01*
X002573Y007211D01*
X002585Y007194D01*
X002594Y007175D01*
X002600Y007155D01*
X002603Y007134D01*
X002594Y007134D01*
X002591Y007153D01*
X002586Y007172D01*
X002577Y007189D01*
X002566Y007205D01*
X002552Y007219D01*
X002536Y007230D01*
X002519Y007239D01*
X002500Y007244D01*
X002481Y007247D01*
X002481Y007238D01*
X002501Y007235D01*
X002520Y007229D01*
X002538Y007219D01*
X002553Y007206D01*
X002566Y007191D01*
X002576Y007173D01*
X002582Y007154D01*
X002585Y007134D01*
X002576Y007134D01*
X002573Y007152D01*
X002567Y007170D01*
X002558Y007186D01*
X002547Y007200D01*
X002533Y007211D01*
X002517Y007220D01*
X002499Y007226D01*
X002481Y007229D01*
X002481Y007220D01*
X002500Y007217D01*
X002517Y007210D01*
X002533Y007200D01*
X002547Y007186D01*
X002557Y007170D01*
X002564Y007153D01*
X002567Y007134D01*
X002558Y007134D01*
X002555Y007151D01*
X002549Y007166D01*
X002540Y007181D01*
X002528Y007193D01*
X002513Y007202D01*
X002498Y007208D01*
X002481Y007211D01*
X002481Y007202D01*
X002498Y007199D01*
X002514Y007191D01*
X002528Y007181D01*
X002538Y007167D01*
X002546Y007151D01*
X002549Y007134D01*
X002540Y007134D01*
X002537Y007149D01*
X002531Y007162D01*
X002521Y007174D01*
X002509Y007184D01*
X002496Y007190D01*
X002481Y007193D01*
X001972Y007273D02*
X001972Y007183D01*
X001971Y007184D02*
X001959Y007181D01*
X001947Y007176D01*
X001937Y007168D01*
X001929Y007158D01*
X001924Y007146D01*
X001921Y007134D01*
X001832Y007133D01*
X001831Y007134D01*
X001834Y007158D01*
X001841Y007181D01*
X001851Y007203D01*
X001865Y007223D01*
X001882Y007240D01*
X001902Y007254D01*
X001924Y007264D01*
X001947Y007271D01*
X001971Y007274D01*
X001971Y007265D01*
X001949Y007262D01*
X001927Y007256D01*
X001907Y007246D01*
X001888Y007233D01*
X001872Y007217D01*
X001859Y007198D01*
X001849Y007178D01*
X001843Y007156D01*
X001840Y007134D01*
X001849Y007134D01*
X001852Y007155D01*
X001858Y007175D01*
X001867Y007194D01*
X001879Y007211D01*
X001894Y007226D01*
X001911Y007238D01*
X001930Y007247D01*
X001950Y007253D01*
X001971Y007256D01*
X001971Y007247D01*
X001952Y007244D01*
X001933Y007239D01*
X001916Y007230D01*
X001900Y007219D01*
X001886Y007205D01*
X001875Y007189D01*
X001866Y007172D01*
X001861Y007153D01*
X001858Y007134D01*
X001867Y007134D01*
X001870Y007154D01*
X001876Y007173D01*
X001886Y007191D01*
X001899Y007206D01*
X001914Y007219D01*
X001932Y007229D01*
X001951Y007235D01*
X001971Y007238D01*
X001971Y007229D01*
X001953Y007226D01*
X001935Y007220D01*
X001919Y007211D01*
X001905Y007200D01*
X001894Y007186D01*
X001885Y007170D01*
X001879Y007152D01*
X001876Y007134D01*
X001885Y007134D01*
X001888Y007153D01*
X001895Y007170D01*
X001905Y007186D01*
X001919Y007200D01*
X001935Y007210D01*
X001952Y007217D01*
X001971Y007220D01*
X001971Y007211D01*
X001954Y007208D01*
X001939Y007202D01*
X001924Y007193D01*
X001912Y007181D01*
X001903Y007166D01*
X001897Y007151D01*
X001894Y007134D01*
X001903Y007134D01*
X001906Y007151D01*
X001914Y007167D01*
X001924Y007181D01*
X001938Y007191D01*
X001954Y007199D01*
X001971Y007202D01*
X001971Y007193D01*
X001956Y007190D01*
X001943Y007184D01*
X001931Y007174D01*
X001921Y007162D01*
X001915Y007149D01*
X001912Y007134D01*
X001832Y005925D02*
X001922Y005925D01*
X001921Y005924D02*
X001924Y005912D01*
X001929Y005900D01*
X001937Y005890D01*
X001947Y005882D01*
X001959Y005877D01*
X001971Y005874D01*
X001972Y005785D01*
X001971Y005784D01*
X001947Y005787D01*
X001924Y005794D01*
X001902Y005804D01*
X001882Y005818D01*
X001865Y005835D01*
X001851Y005855D01*
X001841Y005877D01*
X001834Y005900D01*
X001831Y005924D01*
X001840Y005924D01*
X001843Y005902D01*
X001849Y005880D01*
X001859Y005860D01*
X001872Y005841D01*
X001888Y005825D01*
X001907Y005812D01*
X001927Y005802D01*
X001949Y005796D01*
X001971Y005793D01*
X001971Y005802D01*
X001950Y005805D01*
X001930Y005811D01*
X001911Y005820D01*
X001894Y005832D01*
X001879Y005847D01*
X001867Y005864D01*
X001858Y005883D01*
X001852Y005903D01*
X001849Y005924D01*
X001858Y005924D01*
X001861Y005905D01*
X001866Y005886D01*
X001875Y005869D01*
X001886Y005853D01*
X001900Y005839D01*
X001916Y005828D01*
X001933Y005819D01*
X001952Y005814D01*
X001971Y005811D01*
X001971Y005820D01*
X001951Y005823D01*
X001932Y005829D01*
X001914Y005839D01*
X001899Y005852D01*
X001886Y005867D01*
X001876Y005885D01*
X001870Y005904D01*
X001867Y005924D01*
X001876Y005924D01*
X001879Y005906D01*
X001885Y005888D01*
X001894Y005872D01*
X001905Y005858D01*
X001919Y005847D01*
X001935Y005838D01*
X001953Y005832D01*
X001971Y005829D01*
X001971Y005838D01*
X001952Y005841D01*
X001935Y005848D01*
X001919Y005858D01*
X001905Y005872D01*
X001895Y005888D01*
X001888Y005905D01*
X001885Y005924D01*
X001894Y005924D01*
X001897Y005907D01*
X001903Y005892D01*
X001912Y005877D01*
X001924Y005865D01*
X001939Y005856D01*
X001954Y005850D01*
X001971Y005847D01*
X001971Y005856D01*
X001954Y005859D01*
X001938Y005867D01*
X001924Y005877D01*
X001914Y005891D01*
X001906Y005907D01*
X001903Y005924D01*
X001912Y005924D01*
X001915Y005909D01*
X001921Y005896D01*
X001931Y005884D01*
X001943Y005874D01*
X001956Y005868D01*
X001971Y005865D01*
X002480Y005785D02*
X002480Y005875D01*
X002481Y005874D02*
X002493Y005877D01*
X002505Y005882D01*
X002515Y005890D01*
X002523Y005900D01*
X002528Y005912D01*
X002531Y005924D01*
X002620Y005925D01*
X002621Y005924D01*
X002618Y005900D01*
X002611Y005877D01*
X002601Y005855D01*
X002587Y005835D01*
X002570Y005818D01*
X002550Y005804D01*
X002528Y005794D01*
X002505Y005787D01*
X002481Y005784D01*
X002481Y005793D01*
X002503Y005796D01*
X002525Y005802D01*
X002545Y005812D01*
X002564Y005825D01*
X002580Y005841D01*
X002593Y005860D01*
X002603Y005880D01*
X002609Y005902D01*
X002612Y005924D01*
X002603Y005924D01*
X002600Y005903D01*
X002594Y005883D01*
X002585Y005864D01*
X002573Y005847D01*
X002558Y005832D01*
X002541Y005820D01*
X002522Y005811D01*
X002502Y005805D01*
X002481Y005802D01*
X002481Y005811D01*
X002500Y005814D01*
X002519Y005819D01*
X002536Y005828D01*
X002552Y005839D01*
X002566Y005853D01*
X002577Y005869D01*
X002586Y005886D01*
X002591Y005905D01*
X002594Y005924D01*
X002585Y005924D01*
X002582Y005904D01*
X002576Y005885D01*
X002566Y005867D01*
X002553Y005852D01*
X002538Y005839D01*
X002520Y005829D01*
X002501Y005823D01*
X002481Y005820D01*
X002481Y005829D01*
X002499Y005832D01*
X002517Y005838D01*
X002533Y005847D01*
X002547Y005858D01*
X002558Y005872D01*
X002567Y005888D01*
X002573Y005906D01*
X002576Y005924D01*
X002567Y005924D01*
X002564Y005905D01*
X002557Y005888D01*
X002547Y005872D01*
X002533Y005858D01*
X002517Y005848D01*
X002500Y005841D01*
X002481Y005838D01*
X002481Y005847D01*
X002498Y005850D01*
X002513Y005856D01*
X002528Y005865D01*
X002540Y005877D01*
X002549Y005892D01*
X002555Y005907D01*
X002558Y005924D01*
X002549Y005924D01*
X002546Y005907D01*
X002538Y005891D01*
X002528Y005877D01*
X002514Y005867D01*
X002498Y005859D01*
X002481Y005856D01*
X002481Y005865D01*
X002496Y005868D01*
X002509Y005874D01*
X002521Y005884D01*
X002531Y005896D01*
X002537Y005909D01*
X002540Y005924D01*
X010053Y013866D02*
X010108Y013937D01*
X010158Y013900D01*
X010211Y013866D01*
X010266Y013836D01*
X010322Y013809D01*
X010380Y013785D01*
X010439Y013766D01*
X010500Y013750D01*
X010561Y013738D01*
X010623Y013729D01*
X010686Y013725D01*
X010748Y013724D01*
X010811Y013728D01*
X010873Y013735D01*
X010934Y013746D01*
X010995Y013761D01*
X011055Y013779D01*
X011113Y013802D01*
X011170Y013827D01*
X011225Y013857D01*
X011278Y013889D01*
X011330Y013925D01*
X011378Y013965D01*
X011425Y014007D01*
X011468Y014051D01*
X011509Y014099D01*
X011547Y014149D01*
X011581Y014201D01*
X011612Y014255D01*
X011640Y014311D01*
X011664Y014369D01*
X011685Y014428D01*
X011770Y014402D01*
X011771Y014401D01*
X011749Y014339D01*
X011724Y014278D01*
X011695Y014219D01*
X011662Y014161D01*
X011626Y014106D01*
X011587Y014053D01*
X011545Y014002D01*
X011500Y013954D01*
X011451Y013909D01*
X011401Y013867D01*
X011348Y013827D01*
X011292Y013792D01*
X011235Y013759D01*
X011175Y013730D01*
X011114Y013705D01*
X011052Y013684D01*
X010988Y013666D01*
X010924Y013652D01*
X010858Y013642D01*
X010793Y013636D01*
X010727Y013634D01*
X010661Y013636D01*
X010595Y013642D01*
X010529Y013652D01*
X010465Y013666D01*
X010401Y013683D01*
X010339Y013705D01*
X010278Y013730D01*
X010218Y013759D01*
X010161Y013791D01*
X010105Y013827D01*
X010052Y013866D01*
X010058Y013873D01*
X010110Y013834D01*
X010166Y013799D01*
X010223Y013767D01*
X010282Y013738D01*
X010342Y013713D01*
X010404Y013692D01*
X010467Y013674D01*
X010531Y013661D01*
X010596Y013651D01*
X010661Y013645D01*
X010727Y013643D01*
X010792Y013645D01*
X010857Y013651D01*
X010922Y013661D01*
X010986Y013675D01*
X011049Y013692D01*
X011111Y013714D01*
X011171Y013739D01*
X011230Y013767D01*
X011287Y013799D01*
X011342Y013835D01*
X011395Y013874D01*
X011445Y013916D01*
X011493Y013960D01*
X011538Y014008D01*
X011580Y014058D01*
X011619Y014111D01*
X011655Y014166D01*
X011687Y014223D01*
X011716Y014282D01*
X011741Y014342D01*
X011762Y014404D01*
X011754Y014407D01*
X011732Y014345D01*
X011707Y014285D01*
X011679Y014227D01*
X011647Y014171D01*
X011612Y014116D01*
X011573Y014064D01*
X011531Y014014D01*
X011487Y013967D01*
X011440Y013922D01*
X011390Y013881D01*
X011337Y013842D01*
X011283Y013807D01*
X011226Y013775D01*
X011168Y013747D01*
X011108Y013722D01*
X011046Y013701D01*
X010984Y013683D01*
X010920Y013670D01*
X010856Y013660D01*
X010791Y013654D01*
X010727Y013652D01*
X010662Y013654D01*
X010597Y013660D01*
X010533Y013669D01*
X010469Y013683D01*
X010407Y013700D01*
X010345Y013722D01*
X010285Y013746D01*
X010227Y013775D01*
X010170Y013806D01*
X010116Y013842D01*
X010063Y013880D01*
X010069Y013887D01*
X010121Y013849D01*
X010175Y013814D01*
X010231Y013783D01*
X010289Y013755D01*
X010348Y013730D01*
X010409Y013709D01*
X010471Y013692D01*
X010534Y013678D01*
X010598Y013669D01*
X010662Y013663D01*
X010727Y013661D01*
X010791Y013663D01*
X010855Y013669D01*
X010919Y013679D01*
X010982Y013692D01*
X011044Y013709D01*
X011105Y013730D01*
X011164Y013755D01*
X011222Y013783D01*
X011278Y013815D01*
X011332Y013850D01*
X011384Y013888D01*
X011434Y013929D01*
X011480Y013973D01*
X011525Y014020D01*
X011566Y014069D01*
X011604Y014121D01*
X011639Y014175D01*
X011671Y014231D01*
X011699Y014289D01*
X011724Y014349D01*
X011745Y014409D01*
X011736Y014412D01*
X011716Y014352D01*
X011691Y014293D01*
X011663Y014235D01*
X011631Y014180D01*
X011597Y014126D01*
X011559Y014075D01*
X011518Y014026D01*
X011474Y013979D01*
X011428Y013936D01*
X011378Y013895D01*
X011327Y013857D01*
X011273Y013822D01*
X011218Y013791D01*
X011160Y013763D01*
X011101Y013739D01*
X011041Y013718D01*
X010980Y013701D01*
X010917Y013687D01*
X010854Y013678D01*
X010790Y013672D01*
X010727Y013670D01*
X010663Y013672D01*
X010599Y013678D01*
X010536Y013687D01*
X010474Y013701D01*
X010412Y013718D01*
X010352Y013738D01*
X010293Y013763D01*
X010235Y013791D01*
X010180Y013822D01*
X010126Y013856D01*
X010074Y013894D01*
X010080Y013901D01*
X010131Y013864D01*
X010184Y013830D01*
X010239Y013799D01*
X010296Y013771D01*
X010355Y013747D01*
X010415Y013726D01*
X010476Y013709D01*
X010538Y013696D01*
X010600Y013687D01*
X010663Y013681D01*
X010727Y013679D01*
X010790Y013681D01*
X010853Y013687D01*
X010915Y013696D01*
X010977Y013710D01*
X011038Y013727D01*
X011098Y013747D01*
X011157Y013771D01*
X011214Y013799D01*
X011269Y013830D01*
X011322Y013864D01*
X011373Y013902D01*
X011422Y013942D01*
X011468Y013986D01*
X011511Y014032D01*
X011552Y014080D01*
X011589Y014131D01*
X011624Y014184D01*
X011655Y014240D01*
X011683Y014296D01*
X011707Y014355D01*
X011728Y014415D01*
X011719Y014417D01*
X011699Y014358D01*
X011675Y014300D01*
X011647Y014244D01*
X011616Y014189D01*
X011582Y014136D01*
X011545Y014086D01*
X011504Y014038D01*
X011461Y013992D01*
X011416Y013949D01*
X011367Y013909D01*
X011317Y013872D01*
X011264Y013838D01*
X011209Y013807D01*
X011153Y013780D01*
X011095Y013756D01*
X011036Y013735D01*
X010975Y013718D01*
X010914Y013705D01*
X010852Y013696D01*
X010789Y013690D01*
X010727Y013688D01*
X010664Y013690D01*
X010601Y013695D01*
X010539Y013705D01*
X010478Y013718D01*
X010417Y013735D01*
X010358Y013755D01*
X010300Y013779D01*
X010244Y013807D01*
X010189Y013837D01*
X010136Y013871D01*
X010086Y013908D01*
X010091Y013915D01*
X010143Y013877D01*
X010197Y013843D01*
X010253Y013812D01*
X010311Y013784D01*
X010371Y013760D01*
X010432Y013740D01*
X010494Y013723D01*
X010557Y013711D01*
X010620Y013702D01*
X010684Y013698D01*
X010749Y013697D01*
X010813Y013701D01*
X010877Y013708D01*
X010940Y013719D01*
X011002Y013735D01*
X011063Y013754D01*
X011123Y013777D01*
X011182Y013803D01*
X011239Y013833D01*
X011293Y013867D01*
X011346Y013904D01*
X011396Y013944D01*
X011444Y013987D01*
X011488Y014033D01*
X011530Y014082D01*
X011569Y014133D01*
X011604Y014187D01*
X011636Y014243D01*
X011665Y014300D01*
X011690Y014359D01*
X011711Y014420D01*
X011702Y014423D01*
X011681Y014363D01*
X011656Y014304D01*
X011628Y014247D01*
X011596Y014192D01*
X011561Y014139D01*
X011523Y014088D01*
X011482Y014039D01*
X011437Y013994D01*
X011390Y013951D01*
X011340Y013911D01*
X011288Y013874D01*
X011234Y013841D01*
X011178Y013811D01*
X011120Y013785D01*
X011061Y013762D01*
X011000Y013743D01*
X010938Y013728D01*
X010875Y013717D01*
X010812Y013710D01*
X010748Y013706D01*
X010685Y013707D01*
X010621Y013711D01*
X010558Y013720D01*
X010496Y013732D01*
X010434Y013748D01*
X010374Y013769D01*
X010315Y013792D01*
X010257Y013820D01*
X010202Y013851D01*
X010148Y013885D01*
X010097Y013922D01*
X010102Y013930D01*
X010153Y013892D01*
X010206Y013858D01*
X010261Y013828D01*
X010318Y013801D01*
X010377Y013777D01*
X010437Y013757D01*
X010498Y013741D01*
X010560Y013729D01*
X010622Y013720D01*
X010685Y013716D01*
X010748Y013715D01*
X010811Y013719D01*
X010874Y013726D01*
X010936Y013737D01*
X010997Y013752D01*
X011058Y013771D01*
X011117Y013793D01*
X011174Y013819D01*
X011230Y013849D01*
X011283Y013882D01*
X011335Y013918D01*
X011384Y013958D01*
X011431Y014000D01*
X011475Y014045D01*
X011516Y014093D01*
X011554Y014144D01*
X011589Y014196D01*
X011620Y014251D01*
X011648Y014308D01*
X011673Y014366D01*
X011693Y014425D01*
X011770Y015056D02*
X011684Y015030D01*
X011685Y015030D02*
X011664Y015089D01*
X011640Y015147D01*
X011612Y015203D01*
X011581Y015257D01*
X011547Y015309D01*
X011509Y015359D01*
X011468Y015407D01*
X011425Y015451D01*
X011378Y015493D01*
X011330Y015533D01*
X011278Y015569D01*
X011225Y015601D01*
X011170Y015631D01*
X011113Y015656D01*
X011055Y015679D01*
X010995Y015697D01*
X010934Y015712D01*
X010873Y015723D01*
X010811Y015730D01*
X010748Y015734D01*
X010686Y015733D01*
X010623Y015729D01*
X010561Y015720D01*
X010500Y015708D01*
X010439Y015692D01*
X010380Y015673D01*
X010322Y015649D01*
X010266Y015622D01*
X010211Y015592D01*
X010158Y015558D01*
X010108Y015521D01*
X010053Y015592D01*
X010052Y015592D01*
X010105Y015631D01*
X010161Y015667D01*
X010218Y015699D01*
X010278Y015728D01*
X010339Y015753D01*
X010401Y015775D01*
X010465Y015792D01*
X010529Y015806D01*
X010595Y015816D01*
X010661Y015822D01*
X010727Y015824D01*
X010792Y015822D01*
X010858Y015816D01*
X010924Y015806D01*
X010988Y015792D01*
X011052Y015774D01*
X011114Y015753D01*
X011175Y015728D01*
X011234Y015699D01*
X011292Y015666D01*
X011347Y015631D01*
X011401Y015591D01*
X011451Y015549D01*
X011500Y015504D01*
X011545Y015456D01*
X011587Y015405D01*
X011626Y015352D01*
X011662Y015297D01*
X011695Y015239D01*
X011724Y015180D01*
X011749Y015119D01*
X011771Y015057D01*
X011762Y015054D01*
X011741Y015116D01*
X011716Y015176D01*
X011687Y015235D01*
X011655Y015292D01*
X011619Y015347D01*
X011580Y015400D01*
X011538Y015450D01*
X011493Y015498D01*
X011445Y015542D01*
X011395Y015584D01*
X011342Y015623D01*
X011287Y015659D01*
X011230Y015691D01*
X011171Y015719D01*
X011111Y015744D01*
X011049Y015766D01*
X010986Y015783D01*
X010922Y015797D01*
X010857Y015807D01*
X010792Y015813D01*
X010727Y015815D01*
X010661Y015813D01*
X010596Y015807D01*
X010531Y015797D01*
X010467Y015784D01*
X010404Y015766D01*
X010342Y015745D01*
X010282Y015720D01*
X010223Y015691D01*
X010166Y015659D01*
X010110Y015624D01*
X010058Y015585D01*
X010063Y015578D01*
X010116Y015616D01*
X010170Y015651D01*
X010227Y015683D01*
X010285Y015712D01*
X010345Y015736D01*
X010407Y015758D01*
X010469Y015775D01*
X010533Y015789D01*
X010597Y015798D01*
X010662Y015804D01*
X010727Y015806D01*
X010791Y015804D01*
X010856Y015798D01*
X010920Y015788D01*
X010984Y015775D01*
X011046Y015757D01*
X011108Y015736D01*
X011168Y015711D01*
X011226Y015683D01*
X011283Y015651D01*
X011337Y015616D01*
X011390Y015577D01*
X011440Y015536D01*
X011487Y015491D01*
X011531Y015444D01*
X011573Y015394D01*
X011612Y015342D01*
X011647Y015287D01*
X011679Y015231D01*
X011707Y015173D01*
X011732Y015113D01*
X011754Y015051D01*
X011745Y015049D01*
X011724Y015109D01*
X011699Y015169D01*
X011671Y015227D01*
X011639Y015283D01*
X011604Y015337D01*
X011566Y015389D01*
X011525Y015438D01*
X011480Y015485D01*
X011434Y015529D01*
X011384Y015570D01*
X011332Y015608D01*
X011278Y015643D01*
X011222Y015675D01*
X011164Y015703D01*
X011105Y015728D01*
X011044Y015749D01*
X010982Y015766D01*
X010919Y015779D01*
X010855Y015789D01*
X010791Y015795D01*
X010727Y015797D01*
X010662Y015795D01*
X010598Y015789D01*
X010534Y015780D01*
X010471Y015766D01*
X010409Y015749D01*
X010348Y015728D01*
X010289Y015703D01*
X010231Y015675D01*
X010175Y015644D01*
X010121Y015609D01*
X010069Y015571D01*
X010074Y015564D01*
X010126Y015602D01*
X010180Y015636D01*
X010235Y015667D01*
X010293Y015695D01*
X010352Y015720D01*
X010412Y015740D01*
X010474Y015757D01*
X010536Y015771D01*
X010599Y015780D01*
X010663Y015786D01*
X010727Y015788D01*
X010790Y015786D01*
X010854Y015780D01*
X010917Y015771D01*
X010979Y015757D01*
X011041Y015740D01*
X011101Y015719D01*
X011160Y015695D01*
X011218Y015667D01*
X011273Y015636D01*
X011327Y015601D01*
X011378Y015563D01*
X011428Y015522D01*
X011474Y015479D01*
X011518Y015432D01*
X011559Y015383D01*
X011597Y015332D01*
X011631Y015278D01*
X011663Y015223D01*
X011691Y015165D01*
X011716Y015106D01*
X011736Y015046D01*
X011728Y015043D01*
X011707Y015103D01*
X011683Y015162D01*
X011655Y015218D01*
X011624Y015274D01*
X011589Y015327D01*
X011552Y015378D01*
X011511Y015426D01*
X011468Y015472D01*
X011422Y015516D01*
X011373Y015556D01*
X011322Y015594D01*
X011269Y015628D01*
X011214Y015659D01*
X011157Y015687D01*
X011098Y015711D01*
X011038Y015731D01*
X010977Y015748D01*
X010915Y015762D01*
X010853Y015771D01*
X010790Y015777D01*
X010727Y015779D01*
X010663Y015777D01*
X010600Y015771D01*
X010538Y015762D01*
X010476Y015749D01*
X010415Y015732D01*
X010355Y015711D01*
X010296Y015687D01*
X010239Y015659D01*
X010184Y015628D01*
X010131Y015594D01*
X010080Y015557D01*
X010086Y015550D01*
X010136Y015587D01*
X010189Y015621D01*
X010244Y015651D01*
X010300Y015679D01*
X010358Y015703D01*
X010417Y015723D01*
X010478Y015740D01*
X010539Y015753D01*
X010601Y015763D01*
X010664Y015768D01*
X010727Y015770D01*
X010789Y015768D01*
X010852Y015762D01*
X010914Y015753D01*
X010975Y015740D01*
X011036Y015723D01*
X011095Y015702D01*
X011153Y015678D01*
X011209Y015651D01*
X011264Y015620D01*
X011317Y015586D01*
X011367Y015549D01*
X011416Y015509D01*
X011461Y015466D01*
X011504Y015420D01*
X011545Y015372D01*
X011582Y015322D01*
X011616Y015269D01*
X011647Y015214D01*
X011675Y015158D01*
X011699Y015100D01*
X011719Y015041D01*
X011711Y015038D01*
X011690Y015099D01*
X011665Y015158D01*
X011636Y015215D01*
X011604Y015271D01*
X011569Y015325D01*
X011530Y015376D01*
X011488Y015425D01*
X011444Y015471D01*
X011396Y015514D01*
X011346Y015554D01*
X011293Y015591D01*
X011239Y015625D01*
X011182Y015655D01*
X011123Y015681D01*
X011063Y015704D01*
X011002Y015723D01*
X010940Y015739D01*
X010877Y015750D01*
X010813Y015757D01*
X010749Y015761D01*
X010684Y015760D01*
X010620Y015756D01*
X010557Y015747D01*
X010494Y015735D01*
X010432Y015718D01*
X010371Y015698D01*
X010311Y015674D01*
X010253Y015646D01*
X010197Y015615D01*
X010143Y015580D01*
X010091Y015543D01*
X010097Y015536D01*
X010148Y015573D01*
X010202Y015607D01*
X010257Y015638D01*
X010315Y015666D01*
X010374Y015689D01*
X010434Y015710D01*
X010496Y015726D01*
X010558Y015738D01*
X010621Y015747D01*
X010685Y015751D01*
X010748Y015752D01*
X010812Y015748D01*
X010875Y015741D01*
X010938Y015730D01*
X011000Y015715D01*
X011061Y015696D01*
X011120Y015673D01*
X011178Y015647D01*
X011234Y015617D01*
X011288Y015584D01*
X011340Y015547D01*
X011390Y015507D01*
X011437Y015464D01*
X011482Y015419D01*
X011523Y015370D01*
X011561Y015320D01*
X011596Y015266D01*
X011628Y015211D01*
X011656Y015154D01*
X011681Y015095D01*
X011702Y015035D01*
X011693Y015033D01*
X011673Y015092D01*
X011648Y015150D01*
X011620Y015207D01*
X011589Y015262D01*
X011554Y015314D01*
X011516Y015365D01*
X011475Y015413D01*
X011431Y015458D01*
X011384Y015500D01*
X011335Y015540D01*
X011283Y015576D01*
X011230Y015609D01*
X011174Y015639D01*
X011117Y015665D01*
X011058Y015687D01*
X010997Y015706D01*
X010936Y015721D01*
X010874Y015732D01*
X010811Y015739D01*
X010748Y015743D01*
X010685Y015742D01*
X010622Y015738D01*
X010560Y015729D01*
X010498Y015717D01*
X010437Y015701D01*
X010377Y015681D01*
X010318Y015657D01*
X010261Y015630D01*
X010206Y015600D01*
X010153Y015566D01*
X010102Y015528D01*
X016022Y005523D02*
X016022Y005433D01*
X016021Y005434D02*
X016009Y005431D01*
X015997Y005426D01*
X015987Y005418D01*
X015979Y005408D01*
X015974Y005396D01*
X015971Y005384D01*
X015882Y005383D01*
X015881Y005384D01*
X015884Y005408D01*
X015891Y005431D01*
X015901Y005453D01*
X015915Y005473D01*
X015932Y005490D01*
X015952Y005504D01*
X015974Y005514D01*
X015997Y005521D01*
X016021Y005524D01*
X016021Y005515D01*
X015999Y005512D01*
X015977Y005506D01*
X015957Y005496D01*
X015938Y005483D01*
X015922Y005467D01*
X015909Y005448D01*
X015899Y005428D01*
X015893Y005406D01*
X015890Y005384D01*
X015899Y005384D01*
X015902Y005405D01*
X015908Y005425D01*
X015917Y005444D01*
X015929Y005461D01*
X015944Y005476D01*
X015961Y005488D01*
X015980Y005497D01*
X016000Y005503D01*
X016021Y005506D01*
X016021Y005497D01*
X016002Y005494D01*
X015983Y005489D01*
X015966Y005480D01*
X015950Y005469D01*
X015936Y005455D01*
X015925Y005439D01*
X015916Y005422D01*
X015911Y005403D01*
X015908Y005384D01*
X015917Y005384D01*
X015920Y005404D01*
X015926Y005423D01*
X015936Y005441D01*
X015949Y005456D01*
X015964Y005469D01*
X015982Y005479D01*
X016001Y005485D01*
X016021Y005488D01*
X016021Y005479D01*
X016003Y005476D01*
X015985Y005470D01*
X015969Y005461D01*
X015955Y005450D01*
X015944Y005436D01*
X015935Y005420D01*
X015929Y005402D01*
X015926Y005384D01*
X015935Y005384D01*
X015938Y005403D01*
X015945Y005420D01*
X015955Y005436D01*
X015969Y005450D01*
X015985Y005460D01*
X016002Y005467D01*
X016021Y005470D01*
X016021Y005461D01*
X016004Y005458D01*
X015989Y005452D01*
X015974Y005443D01*
X015962Y005431D01*
X015953Y005416D01*
X015947Y005401D01*
X015944Y005384D01*
X015953Y005384D01*
X015956Y005401D01*
X015964Y005417D01*
X015974Y005431D01*
X015988Y005441D01*
X016004Y005449D01*
X016021Y005452D01*
X016021Y005443D01*
X016006Y005440D01*
X015993Y005434D01*
X015981Y005424D01*
X015971Y005412D01*
X015965Y005399D01*
X015962Y005384D01*
X015882Y004875D02*
X015972Y004875D01*
X015971Y004874D02*
X015974Y004862D01*
X015979Y004850D01*
X015987Y004840D01*
X015997Y004832D01*
X016009Y004827D01*
X016021Y004824D01*
X016022Y004735D01*
X016021Y004734D01*
X015997Y004737D01*
X015974Y004744D01*
X015952Y004754D01*
X015932Y004768D01*
X015915Y004785D01*
X015901Y004805D01*
X015891Y004827D01*
X015884Y004850D01*
X015881Y004874D01*
X015890Y004874D01*
X015893Y004852D01*
X015899Y004830D01*
X015909Y004810D01*
X015922Y004791D01*
X015938Y004775D01*
X015957Y004762D01*
X015977Y004752D01*
X015999Y004746D01*
X016021Y004743D01*
X016021Y004752D01*
X016000Y004755D01*
X015980Y004761D01*
X015961Y004770D01*
X015944Y004782D01*
X015929Y004797D01*
X015917Y004814D01*
X015908Y004833D01*
X015902Y004853D01*
X015899Y004874D01*
X015908Y004874D01*
X015911Y004855D01*
X015916Y004836D01*
X015925Y004819D01*
X015936Y004803D01*
X015950Y004789D01*
X015966Y004778D01*
X015983Y004769D01*
X016002Y004764D01*
X016021Y004761D01*
X016021Y004770D01*
X016001Y004773D01*
X015982Y004779D01*
X015964Y004789D01*
X015949Y004802D01*
X015936Y004817D01*
X015926Y004835D01*
X015920Y004854D01*
X015917Y004874D01*
X015926Y004874D01*
X015929Y004856D01*
X015935Y004838D01*
X015944Y004822D01*
X015955Y004808D01*
X015969Y004797D01*
X015985Y004788D01*
X016003Y004782D01*
X016021Y004779D01*
X016021Y004788D01*
X016002Y004791D01*
X015985Y004798D01*
X015969Y004808D01*
X015955Y004822D01*
X015945Y004838D01*
X015938Y004855D01*
X015935Y004874D01*
X015944Y004874D01*
X015947Y004857D01*
X015953Y004842D01*
X015962Y004827D01*
X015974Y004815D01*
X015989Y004806D01*
X016004Y004800D01*
X016021Y004797D01*
X016021Y004806D01*
X016004Y004809D01*
X015988Y004817D01*
X015974Y004827D01*
X015964Y004841D01*
X015956Y004857D01*
X015953Y004874D01*
X015962Y004874D01*
X015965Y004859D01*
X015971Y004846D01*
X015981Y004834D01*
X015993Y004824D01*
X016006Y004818D01*
X016021Y004815D01*
X017230Y004735D02*
X017230Y004825D01*
X017231Y004824D02*
X017243Y004827D01*
X017255Y004832D01*
X017265Y004840D01*
X017273Y004850D01*
X017278Y004862D01*
X017281Y004874D01*
X017370Y004875D01*
X017371Y004874D01*
X017368Y004850D01*
X017361Y004827D01*
X017351Y004805D01*
X017337Y004785D01*
X017320Y004768D01*
X017300Y004754D01*
X017278Y004744D01*
X017255Y004737D01*
X017231Y004734D01*
X017231Y004743D01*
X017253Y004746D01*
X017275Y004752D01*
X017295Y004762D01*
X017314Y004775D01*
X017330Y004791D01*
X017343Y004810D01*
X017353Y004830D01*
X017359Y004852D01*
X017362Y004874D01*
X017353Y004874D01*
X017350Y004853D01*
X017344Y004833D01*
X017335Y004814D01*
X017323Y004797D01*
X017308Y004782D01*
X017291Y004770D01*
X017272Y004761D01*
X017252Y004755D01*
X017231Y004752D01*
X017231Y004761D01*
X017250Y004764D01*
X017269Y004769D01*
X017286Y004778D01*
X017302Y004789D01*
X017316Y004803D01*
X017327Y004819D01*
X017336Y004836D01*
X017341Y004855D01*
X017344Y004874D01*
X017335Y004874D01*
X017332Y004854D01*
X017326Y004835D01*
X017316Y004817D01*
X017303Y004802D01*
X017288Y004789D01*
X017270Y004779D01*
X017251Y004773D01*
X017231Y004770D01*
X017231Y004779D01*
X017249Y004782D01*
X017267Y004788D01*
X017283Y004797D01*
X017297Y004808D01*
X017308Y004822D01*
X017317Y004838D01*
X017323Y004856D01*
X017326Y004874D01*
X017317Y004874D01*
X017314Y004855D01*
X017307Y004838D01*
X017297Y004822D01*
X017283Y004808D01*
X017267Y004798D01*
X017250Y004791D01*
X017231Y004788D01*
X017231Y004797D01*
X017248Y004800D01*
X017263Y004806D01*
X017278Y004815D01*
X017290Y004827D01*
X017299Y004842D01*
X017305Y004857D01*
X017308Y004874D01*
X017299Y004874D01*
X017296Y004857D01*
X017288Y004841D01*
X017278Y004827D01*
X017264Y004817D01*
X017248Y004809D01*
X017231Y004806D01*
X017231Y004815D01*
X017246Y004818D01*
X017259Y004824D01*
X017271Y004834D01*
X017281Y004846D01*
X017287Y004859D01*
X017290Y004874D01*
X017370Y005383D02*
X017280Y005383D01*
X017281Y005384D02*
X017278Y005396D01*
X017273Y005408D01*
X017265Y005418D01*
X017255Y005426D01*
X017243Y005431D01*
X017231Y005434D01*
X017230Y005523D01*
X017231Y005524D01*
X017255Y005521D01*
X017278Y005514D01*
X017300Y005504D01*
X017320Y005490D01*
X017337Y005473D01*
X017351Y005453D01*
X017361Y005431D01*
X017368Y005408D01*
X017371Y005384D01*
X017362Y005384D01*
X017359Y005406D01*
X017353Y005428D01*
X017343Y005448D01*
X017330Y005467D01*
X017314Y005483D01*
X017295Y005496D01*
X017275Y005506D01*
X017253Y005512D01*
X017231Y005515D01*
X017231Y005506D01*
X017252Y005503D01*
X017272Y005497D01*
X017291Y005488D01*
X017308Y005476D01*
X017323Y005461D01*
X017335Y005444D01*
X017344Y005425D01*
X017350Y005405D01*
X017353Y005384D01*
X017344Y005384D01*
X017341Y005403D01*
X017336Y005422D01*
X017327Y005439D01*
X017316Y005455D01*
X017302Y005469D01*
X017286Y005480D01*
X017269Y005489D01*
X017250Y005494D01*
X017231Y005497D01*
X017231Y005488D01*
X017251Y005485D01*
X017270Y005479D01*
X017288Y005469D01*
X017303Y005456D01*
X017316Y005441D01*
X017326Y005423D01*
X017332Y005404D01*
X017335Y005384D01*
X017326Y005384D01*
X017323Y005402D01*
X017317Y005420D01*
X017308Y005436D01*
X017297Y005450D01*
X017283Y005461D01*
X017267Y005470D01*
X017249Y005476D01*
X017231Y005479D01*
X017231Y005470D01*
X017250Y005467D01*
X017267Y005460D01*
X017283Y005450D01*
X017297Y005436D01*
X017307Y005420D01*
X017314Y005403D01*
X017317Y005384D01*
X017308Y005384D01*
X017305Y005401D01*
X017299Y005416D01*
X017290Y005431D01*
X017278Y005443D01*
X017263Y005452D01*
X017248Y005458D01*
X017231Y005461D01*
X017231Y005452D01*
X017248Y005449D01*
X017264Y005441D01*
X017278Y005431D01*
X017288Y005417D01*
X017296Y005401D01*
X017299Y005384D01*
X017290Y005384D01*
X017287Y005399D01*
X017281Y005412D01*
X017271Y005424D01*
X017259Y005434D01*
X017246Y005440D01*
X017231Y005443D01*
D17*
X017226Y004004D03*
X016226Y004004D03*
X015226Y004004D03*
X014226Y004004D03*
X013226Y004004D03*
X012226Y004004D03*
X012226Y001854D03*
X013226Y001854D03*
X014226Y001854D03*
X015226Y001854D03*
X016226Y001854D03*
X017226Y001854D03*
X018226Y001854D03*
X019226Y001854D03*
X019226Y004004D03*
X018226Y004004D03*
X008426Y004004D03*
X007426Y004004D03*
X006426Y004004D03*
X005426Y004004D03*
X004426Y004004D03*
X003426Y004004D03*
X002426Y004004D03*
X001426Y004004D03*
X001426Y001854D03*
X002426Y001854D03*
X003426Y001854D03*
X004426Y001854D03*
X005426Y001854D03*
X006426Y001854D03*
X007426Y001854D03*
X008426Y001854D03*
D18*
X004001Y009329D03*
X001851Y009329D03*
D19*
X004481Y006930D02*
X004921Y006930D01*
X004921Y007223D01*
X004848Y006763D02*
X004921Y006689D01*
X004921Y006543D01*
X004848Y006469D01*
X004848Y006302D02*
X004481Y006302D01*
X004554Y006469D02*
X004481Y006543D01*
X004481Y006689D01*
X004554Y006763D01*
X004628Y006763D01*
X004701Y006689D01*
X004775Y006763D01*
X004848Y006763D01*
X004701Y006689D02*
X004701Y006616D01*
X004848Y006302D02*
X004921Y006229D01*
X004921Y006082D01*
X004848Y006009D01*
X004481Y006009D01*
X005636Y009809D02*
X005856Y009809D01*
X005929Y009882D01*
X005929Y010176D01*
X005856Y010249D01*
X005636Y010249D01*
X005636Y009809D01*
X006096Y009809D02*
X006390Y009809D01*
X006243Y009809D02*
X006243Y010249D01*
X006096Y010102D01*
X008406Y011809D02*
X008406Y012249D01*
X008553Y012102D01*
X008700Y012249D01*
X008700Y011809D01*
X008867Y012029D02*
X009160Y012029D01*
X009014Y012176D02*
X009014Y011882D01*
X008500Y013009D02*
X008500Y013449D01*
X008353Y013302D01*
X008206Y013449D01*
X008206Y013009D01*
X008667Y013229D02*
X008960Y013229D01*
X009506Y014188D02*
X009873Y014188D01*
X009946Y014261D01*
X009946Y014408D01*
X009873Y014482D01*
X009506Y014482D01*
X009653Y014648D02*
X009506Y014795D01*
X009946Y014795D01*
X009946Y014648D02*
X009946Y014942D01*
X012406Y013880D02*
X012846Y013880D01*
X012846Y014173D01*
X012846Y013713D02*
X012846Y013419D01*
X012846Y013566D02*
X012406Y013566D01*
X012553Y013419D01*
X012479Y013252D02*
X012406Y013179D01*
X012406Y013032D01*
X012479Y012959D01*
X012773Y012959D01*
X012846Y013032D01*
X012846Y013179D01*
X012773Y013252D01*
X014606Y013179D02*
X014606Y013032D01*
X014679Y012959D01*
X014973Y012959D01*
X015046Y013032D01*
X015046Y013179D01*
X014973Y013252D01*
X015046Y013419D02*
X015046Y013713D01*
X015046Y013566D02*
X014606Y013566D01*
X014753Y013419D01*
X014679Y013252D02*
X014606Y013179D01*
X014606Y013880D02*
X014606Y014100D01*
X014679Y014173D01*
X014826Y014173D01*
X014900Y014100D01*
X014900Y013880D01*
X014900Y014026D02*
X015046Y014173D01*
X015046Y013880D02*
X014606Y013880D01*
X011773Y011416D02*
X011479Y011416D01*
X011626Y011269D02*
X011626Y011563D01*
X011700Y011102D02*
X011406Y011102D01*
X011406Y010809D02*
X011700Y010809D01*
X011846Y010956D01*
X011700Y011102D01*
X010146Y009756D02*
X010000Y009902D01*
X009706Y009902D01*
X009926Y010069D02*
X009926Y010363D01*
X010146Y009756D02*
X010000Y009609D01*
X009706Y009609D01*
X011054Y006863D02*
X010981Y006789D01*
X010981Y006643D01*
X011054Y006569D01*
X010981Y006402D02*
X011348Y006402D01*
X011421Y006329D01*
X011421Y006182D01*
X011348Y006109D01*
X010981Y006109D01*
X011421Y006569D02*
X011128Y006863D01*
X011054Y006863D01*
X011421Y006863D02*
X011421Y006569D01*
X010073Y003963D02*
X009926Y003963D01*
X009926Y003816D01*
X009779Y003669D02*
X010073Y003669D01*
X010146Y003743D01*
X010146Y003889D01*
X010073Y003963D01*
X009779Y003963D02*
X009706Y003889D01*
X009706Y003743D01*
X009779Y003669D01*
X009779Y003502D02*
X009706Y003429D01*
X009706Y003282D01*
X009779Y003209D01*
X010073Y003209D01*
X010146Y003282D01*
X010146Y003429D01*
X010073Y003502D01*
X009779Y003502D01*
X009779Y002963D02*
X009926Y002963D01*
X010000Y002889D01*
X010000Y002669D01*
X010146Y002669D02*
X009706Y002669D01*
X009706Y002889D01*
X009779Y002963D01*
X010000Y002816D02*
X010146Y002963D01*
X010073Y002502D02*
X009779Y002502D01*
X009706Y002429D01*
X009706Y002282D01*
X009779Y002209D01*
X010073Y002209D01*
X010146Y002282D01*
X010146Y002429D01*
X010073Y002502D01*
X010146Y002063D02*
X010146Y001769D01*
X009706Y001769D01*
X009779Y001602D02*
X009706Y001529D01*
X009706Y001382D01*
X009779Y001309D01*
X010073Y001309D01*
X010146Y001382D01*
X010146Y001529D01*
X010073Y001602D01*
X009779Y001602D01*
X017381Y005809D02*
X017748Y005809D01*
X017821Y005882D01*
X017821Y006029D01*
X017748Y006102D01*
X017381Y006102D01*
X017454Y006269D02*
X017381Y006343D01*
X017381Y006489D01*
X017454Y006563D01*
X017528Y006563D01*
X017601Y006489D01*
X017675Y006563D01*
X017748Y006563D01*
X017821Y006489D01*
X017821Y006343D01*
X017748Y006269D01*
X017601Y006416D02*
X017601Y006489D01*
X017675Y006730D02*
X017675Y006950D01*
X017601Y007023D01*
X017454Y007023D01*
X017381Y006950D01*
X017381Y006730D01*
X017821Y006730D01*
X017675Y006876D02*
X017821Y007023D01*
X017907Y009809D02*
X017613Y009809D01*
X017613Y010249D01*
X017453Y010249D02*
X017306Y010249D01*
X017380Y010249D02*
X017380Y009809D01*
X017453Y009809D02*
X017306Y009809D01*
X016907Y009809D02*
X016760Y009956D01*
X016834Y009956D02*
X016613Y009956D01*
X016613Y009809D02*
X016613Y010249D01*
X016834Y010249D01*
X016907Y010176D01*
X016907Y010029D01*
X016834Y009956D01*
X016453Y009809D02*
X016306Y009809D01*
X016380Y009809D02*
X016380Y010249D01*
X016453Y010249D02*
X016306Y010249D01*
X015907Y010176D02*
X015834Y010249D01*
X015687Y010249D01*
X015613Y010176D01*
X015613Y009882D01*
X015687Y009809D01*
X015834Y009809D01*
X015907Y009882D01*
X015907Y010029D01*
X015760Y010029D01*
X015453Y010249D02*
X015306Y010249D01*
X015380Y010249D02*
X015380Y009809D01*
X015453Y009809D02*
X015306Y009809D01*
X006616Y013382D02*
X006616Y013529D01*
X006543Y013602D01*
X006616Y013769D02*
X006323Y014063D01*
X006249Y014063D01*
X006176Y013989D01*
X006176Y013843D01*
X006249Y013769D01*
X006249Y013602D02*
X006176Y013529D01*
X006176Y013382D01*
X006249Y013309D01*
X006543Y013309D01*
X006616Y013382D01*
X006616Y013769D02*
X006616Y014063D01*
X006396Y014230D02*
X006396Y014523D01*
X006249Y014376D02*
X006543Y014376D01*
X002376Y014182D02*
X002376Y013888D01*
X002083Y014182D01*
X002009Y014182D01*
X001936Y014108D01*
X001936Y013961D01*
X002009Y013888D01*
X002009Y013721D02*
X001936Y013648D01*
X001936Y013501D01*
X002009Y013428D01*
X002303Y013428D01*
X002376Y013501D01*
X002376Y013648D01*
X002303Y013721D01*
X002156Y014348D02*
X002156Y014642D01*
D20*
X002215Y009494D02*
X002385Y009494D01*
X002442Y009437D01*
X002442Y009324D01*
X002385Y009267D01*
X002215Y009267D01*
X002215Y009154D02*
X002215Y009494D01*
X002328Y009267D02*
X002442Y009154D01*
X002574Y009154D02*
X002574Y009494D01*
X002574Y009154D02*
X002801Y009154D01*
X002933Y009154D02*
X002933Y009494D01*
X003160Y009494D01*
X003292Y009494D02*
X003462Y009494D01*
X003519Y009437D01*
X003519Y009211D01*
X003462Y009154D01*
X003292Y009154D01*
X003292Y009494D01*
X003047Y009324D02*
X002933Y009324D01*
X002933Y009154D02*
X003160Y009154D01*
X002341Y007268D02*
X002341Y007041D01*
X002001Y007041D01*
X002001Y006795D02*
X002341Y006795D01*
X002341Y006682D02*
X002341Y006909D01*
X002115Y006682D02*
X002001Y006795D01*
X002001Y006436D02*
X002341Y006436D01*
X002341Y006323D02*
X002341Y006550D01*
X002115Y006323D02*
X002001Y006436D01*
X002058Y006191D02*
X002171Y006191D01*
X002228Y006134D01*
X002228Y005964D01*
X002228Y006077D02*
X002341Y006191D01*
X002341Y005964D02*
X002001Y005964D01*
X002001Y006134D01*
X002058Y006191D01*
X001601Y003322D02*
X001601Y003095D01*
X001261Y003095D01*
X001261Y002849D02*
X001601Y002849D01*
X001601Y002736D02*
X001601Y002962D01*
X001375Y002736D02*
X001261Y002849D01*
X001318Y002603D02*
X001431Y002603D01*
X001488Y002547D01*
X001488Y002377D01*
X001488Y002490D02*
X001601Y002603D01*
X001601Y002377D02*
X001261Y002377D01*
X001261Y002547D01*
X001318Y002603D01*
X002261Y002547D02*
X002318Y002603D01*
X002431Y002603D01*
X002488Y002547D01*
X002488Y002377D01*
X002488Y002490D02*
X002601Y002603D01*
X002601Y002736D02*
X002375Y002962D01*
X002318Y002962D01*
X002261Y002906D01*
X002261Y002792D01*
X002318Y002736D01*
X002261Y002547D02*
X002261Y002377D01*
X002601Y002377D01*
X002601Y002736D02*
X002601Y002962D01*
X002601Y003095D02*
X002601Y003322D01*
X002601Y003095D02*
X002261Y003095D01*
X003261Y003095D02*
X003601Y003095D01*
X003601Y003322D01*
X003545Y002962D02*
X003488Y002962D01*
X003431Y002906D01*
X003431Y002849D01*
X003431Y002906D02*
X003375Y002962D01*
X003318Y002962D01*
X003261Y002906D01*
X003261Y002792D01*
X003318Y002736D01*
X003318Y002603D02*
X003431Y002603D01*
X003488Y002547D01*
X003488Y002377D01*
X003488Y002490D02*
X003601Y002603D01*
X003545Y002736D02*
X003601Y002792D01*
X003601Y002906D01*
X003545Y002962D01*
X003318Y002603D02*
X003261Y002547D01*
X003261Y002377D01*
X003601Y002377D01*
X004251Y002354D02*
X004251Y002524D01*
X004308Y002581D01*
X004421Y002581D01*
X004478Y002524D01*
X004478Y002354D01*
X004478Y002467D02*
X004591Y002581D01*
X004421Y002713D02*
X004421Y002940D01*
X004251Y002883D02*
X004421Y002713D01*
X004591Y002883D02*
X004251Y002883D01*
X004251Y003072D02*
X004591Y003072D01*
X004591Y003299D01*
X005251Y003072D02*
X005591Y003072D01*
X005591Y003299D01*
X005535Y002940D02*
X005591Y002883D01*
X005591Y002770D01*
X005535Y002713D01*
X005421Y002713D02*
X005365Y002826D01*
X005365Y002883D01*
X005421Y002940D01*
X005535Y002940D01*
X005251Y002940D02*
X005251Y002713D01*
X005421Y002713D01*
X005421Y002581D02*
X005478Y002524D01*
X005478Y002354D01*
X005478Y002467D02*
X005591Y002581D01*
X005421Y002581D02*
X005308Y002581D01*
X005251Y002524D01*
X005251Y002354D01*
X005591Y002354D01*
X006261Y002377D02*
X006261Y002547D01*
X006318Y002603D01*
X006431Y002603D01*
X006488Y002547D01*
X006488Y002377D01*
X006488Y002490D02*
X006601Y002603D01*
X006545Y002736D02*
X006601Y002792D01*
X006601Y002906D01*
X006545Y002962D01*
X006488Y002962D01*
X006431Y002906D01*
X006431Y002736D01*
X006545Y002736D01*
X006431Y002736D02*
X006318Y002849D01*
X006261Y002962D01*
X006261Y003095D02*
X006601Y003095D01*
X006601Y003322D01*
X007251Y003072D02*
X007591Y003072D01*
X007591Y003299D01*
X007308Y002940D02*
X007535Y002713D01*
X007591Y002713D01*
X007591Y002581D02*
X007478Y002467D01*
X007478Y002524D02*
X007478Y002354D01*
X007591Y002354D02*
X007251Y002354D01*
X007251Y002524D01*
X007308Y002581D01*
X007421Y002581D01*
X007478Y002524D01*
X007251Y002713D02*
X007251Y002940D01*
X007308Y002940D01*
X006601Y002377D02*
X006261Y002377D01*
X004591Y002354D02*
X004251Y002354D01*
X008261Y002377D02*
X008261Y002547D01*
X008318Y002603D01*
X008431Y002603D01*
X008488Y002547D01*
X008488Y002377D01*
X008488Y002490D02*
X008601Y002603D01*
X008545Y002736D02*
X008488Y002736D01*
X008431Y002792D01*
X008431Y002906D01*
X008488Y002962D01*
X008545Y002962D01*
X008601Y002906D01*
X008601Y002792D01*
X008545Y002736D01*
X008431Y002792D02*
X008375Y002736D01*
X008318Y002736D01*
X008261Y002792D01*
X008261Y002906D01*
X008318Y002962D01*
X008375Y002962D01*
X008431Y002906D01*
X008261Y003095D02*
X008601Y003095D01*
X008601Y003322D01*
X008601Y002377D02*
X008261Y002377D01*
X012061Y002477D02*
X012061Y002647D01*
X012118Y002703D01*
X012231Y002703D01*
X012288Y002647D01*
X012288Y002477D01*
X012288Y002590D02*
X012401Y002703D01*
X012345Y002836D02*
X012288Y002836D01*
X012231Y002892D01*
X012231Y003006D01*
X012288Y003062D01*
X012345Y003062D01*
X012401Y003006D01*
X012401Y002892D01*
X012345Y002836D01*
X012231Y002892D02*
X012175Y002836D01*
X012118Y002836D01*
X012061Y002892D01*
X012061Y003006D01*
X012118Y003062D01*
X012175Y003062D01*
X012231Y003006D01*
X012288Y003195D02*
X012288Y003365D01*
X012231Y003422D01*
X012118Y003422D01*
X012061Y003365D01*
X012061Y003195D01*
X012401Y003195D01*
X012288Y003308D02*
X012401Y003422D01*
X013051Y003342D02*
X013051Y003172D01*
X013391Y003172D01*
X013278Y003172D02*
X013278Y003342D01*
X013221Y003399D01*
X013108Y003399D01*
X013051Y003342D01*
X013278Y003285D02*
X013391Y003399D01*
X013108Y003040D02*
X013335Y002813D01*
X013391Y002813D01*
X013391Y002681D02*
X013278Y002567D01*
X013278Y002624D02*
X013278Y002454D01*
X013391Y002454D02*
X013051Y002454D01*
X013051Y002624D01*
X013108Y002681D01*
X013221Y002681D01*
X013278Y002624D01*
X013051Y002813D02*
X013051Y003040D01*
X013108Y003040D01*
X012401Y002477D02*
X012061Y002477D01*
X014061Y002477D02*
X014061Y002647D01*
X014118Y002703D01*
X014231Y002703D01*
X014288Y002647D01*
X014288Y002477D01*
X014288Y002590D02*
X014401Y002703D01*
X014345Y002836D02*
X014231Y002836D01*
X014231Y003006D01*
X014288Y003062D01*
X014345Y003062D01*
X014401Y003006D01*
X014401Y002892D01*
X014345Y002836D01*
X014231Y002836D02*
X014118Y002949D01*
X014061Y003062D01*
X014061Y003195D02*
X014061Y003365D01*
X014118Y003422D01*
X014231Y003422D01*
X014288Y003365D01*
X014288Y003195D01*
X014288Y003308D02*
X014401Y003422D01*
X014401Y003195D02*
X014061Y003195D01*
X014061Y002477D02*
X014401Y002477D01*
X015051Y002454D02*
X015051Y002624D01*
X015108Y002681D01*
X015221Y002681D01*
X015278Y002624D01*
X015278Y002454D01*
X015278Y002567D02*
X015391Y002681D01*
X015335Y002813D02*
X015391Y002870D01*
X015391Y002983D01*
X015335Y003040D01*
X015221Y003040D01*
X015165Y002983D01*
X015165Y002926D01*
X015221Y002813D01*
X015051Y002813D01*
X015051Y003040D01*
X015051Y003172D02*
X015051Y003342D01*
X015108Y003399D01*
X015221Y003399D01*
X015278Y003342D01*
X015278Y003172D01*
X015278Y003285D02*
X015391Y003399D01*
X015391Y003172D02*
X015051Y003172D01*
X015051Y002454D02*
X015391Y002454D01*
X016051Y002454D02*
X016051Y002624D01*
X016108Y002681D01*
X016221Y002681D01*
X016278Y002624D01*
X016278Y002454D01*
X016278Y002567D02*
X016391Y002681D01*
X016221Y002813D02*
X016221Y003040D01*
X016278Y003172D02*
X016278Y003342D01*
X016221Y003399D01*
X016108Y003399D01*
X016051Y003342D01*
X016051Y003172D01*
X016391Y003172D01*
X016278Y003285D02*
X016391Y003399D01*
X016391Y002983D02*
X016051Y002983D01*
X016221Y002813D01*
X016391Y002454D02*
X016051Y002454D01*
X017061Y002477D02*
X017061Y002647D01*
X017118Y002703D01*
X017231Y002703D01*
X017288Y002647D01*
X017288Y002477D01*
X017288Y002590D02*
X017401Y002703D01*
X017345Y002836D02*
X017401Y002892D01*
X017401Y003006D01*
X017345Y003062D01*
X017288Y003062D01*
X017231Y003006D01*
X017231Y002949D01*
X017231Y003006D02*
X017175Y003062D01*
X017118Y003062D01*
X017061Y003006D01*
X017061Y002892D01*
X017118Y002836D01*
X017061Y003195D02*
X017061Y003365D01*
X017118Y003422D01*
X017231Y003422D01*
X017288Y003365D01*
X017288Y003195D01*
X017288Y003308D02*
X017401Y003422D01*
X017401Y003195D02*
X017061Y003195D01*
X017061Y002477D02*
X017401Y002477D01*
X018061Y002477D02*
X018061Y002647D01*
X018118Y002703D01*
X018231Y002703D01*
X018288Y002647D01*
X018288Y002477D01*
X018288Y002590D02*
X018401Y002703D01*
X018401Y002836D02*
X018175Y003062D01*
X018118Y003062D01*
X018061Y003006D01*
X018061Y002892D01*
X018118Y002836D01*
X018401Y002836D02*
X018401Y003062D01*
X018401Y003195D02*
X018061Y003195D01*
X018061Y003365D01*
X018118Y003422D01*
X018231Y003422D01*
X018288Y003365D01*
X018288Y003195D01*
X018288Y003308D02*
X018401Y003422D01*
X019061Y003365D02*
X019061Y003195D01*
X019401Y003195D01*
X019288Y003195D02*
X019288Y003365D01*
X019231Y003422D01*
X019118Y003422D01*
X019061Y003365D01*
X019288Y003308D02*
X019401Y003422D01*
X019401Y003062D02*
X019401Y002836D01*
X019401Y002949D02*
X019061Y002949D01*
X019175Y002836D01*
X019118Y002703D02*
X019231Y002703D01*
X019288Y002647D01*
X019288Y002477D01*
X019288Y002590D02*
X019401Y002703D01*
X019401Y002477D02*
X019061Y002477D01*
X019061Y002647D01*
X019118Y002703D01*
X018401Y002477D02*
X018061Y002477D01*
X017366Y005014D02*
X017252Y005127D01*
X017309Y005127D02*
X017139Y005127D01*
X017139Y005014D02*
X017139Y005354D01*
X017309Y005354D01*
X017366Y005297D01*
X017366Y005184D01*
X017309Y005127D01*
X017006Y005014D02*
X016780Y005014D01*
X016893Y005014D02*
X016893Y005354D01*
X016780Y005241D01*
X016647Y005014D02*
X016421Y005014D01*
X016534Y005014D02*
X016534Y005354D01*
X016421Y005241D01*
X016288Y005297D02*
X016232Y005354D01*
X016061Y005354D01*
X016061Y005014D01*
X016061Y005127D02*
X016232Y005127D01*
X016288Y005184D01*
X016288Y005297D01*
X016175Y005127D02*
X016288Y005014D01*
M02*
