G75*
G70*
%OFA0B0*%
%FSLAX24Y24*%
%IPPOS*%
%LPD*%
%AMOC8*
5,1,8,0,0,1.08239X$1,22.5*
%
%ADD10R,0.0926X0.0789*%
%ADD11R,0.0513X0.0474*%
%ADD12R,0.0828X0.0631*%
%ADD13R,0.0434X0.0356*%
%ADD14R,0.0356X0.0434*%
%ADD15R,0.0249X0.0190*%
%ADD16R,0.0190X0.0249*%
%ADD17R,0.0631X0.0474*%
%ADD18R,0.0316X0.0316*%
%ADD19R,0.0159X0.0218*%
%ADD20R,0.0218X0.0159*%
%ADD21R,0.0690X0.0198*%
%ADD22C,0.0328*%
%ADD23R,0.0328X0.0328*%
%ADD24C,0.0500*%
%ADD25R,0.0218X0.0178*%
%ADD26R,0.0178X0.0218*%
%ADD27R,0.0513X0.0316*%
%ADD28R,0.0474X0.0513*%
%ADD29R,0.0415X0.0552*%
%ADD30C,0.0171*%
%ADD31C,0.0356*%
%ADD32R,0.0474X0.0631*%
%ADD33C,0.1580*%
D10*
X003121Y004480D03*
X004400Y004480D03*
X004100Y008440D03*
X002821Y008440D03*
X002660Y010840D03*
X001381Y010840D03*
D11*
X001806Y010060D03*
X002475Y010060D03*
X003666Y007720D03*
X004335Y007720D03*
D12*
X008852Y007755D03*
X008852Y006810D03*
X010584Y006810D03*
X010584Y007755D03*
D13*
X008200Y007316D03*
X008200Y006804D03*
D14*
X010362Y008313D03*
X010874Y008313D03*
X003896Y009460D03*
X003384Y009460D03*
D15*
X001780Y007820D03*
X001480Y007820D03*
X001480Y007620D03*
X001780Y007620D03*
X001180Y007620D03*
X001180Y007820D03*
X007091Y006563D03*
X007091Y006362D03*
X007331Y006362D03*
X007331Y006563D03*
X007571Y006563D03*
X007571Y006362D03*
X009160Y008220D03*
X009160Y008420D03*
X009580Y008420D03*
X009580Y008220D03*
X013120Y007640D03*
X013120Y007440D03*
X014020Y008280D03*
X014020Y008480D03*
X010691Y001763D03*
X010691Y001562D03*
X010420Y001560D03*
X010420Y001760D03*
D16*
X006951Y002802D03*
X006751Y002802D03*
X006751Y003042D03*
X006751Y003282D03*
X006951Y003282D03*
X006951Y003042D03*
X006951Y005802D03*
X006751Y005802D03*
X013260Y009460D03*
X013461Y009460D03*
X005541Y010720D03*
X005541Y010960D03*
X005340Y010960D03*
X005340Y010720D03*
D17*
X002033Y001826D03*
X001167Y002200D03*
X002033Y002574D03*
X002033Y003446D03*
X002033Y004194D03*
X001167Y003820D03*
X002033Y005066D03*
X002033Y005814D03*
X001167Y005440D03*
D18*
X001165Y006685D03*
X001480Y006685D03*
X001795Y006685D03*
X001795Y007315D03*
X001480Y007315D03*
X001165Y007315D03*
D19*
X003448Y003609D03*
X003645Y003609D03*
X003842Y003609D03*
X004039Y003609D03*
X004236Y003609D03*
X004432Y003609D03*
X004432Y002231D03*
X004236Y002231D03*
X004039Y002231D03*
X003842Y002231D03*
X003645Y002231D03*
X003448Y002231D03*
D20*
X003251Y002428D03*
X003251Y002625D03*
X003251Y002822D03*
X003251Y003018D03*
X003251Y003215D03*
X003251Y003412D03*
X004629Y003412D03*
X004629Y003215D03*
X004629Y003018D03*
X004629Y002822D03*
X004629Y002625D03*
X004629Y002428D03*
D21*
X007154Y008809D03*
X007154Y009065D03*
X007154Y009320D03*
X007154Y009576D03*
X007154Y009832D03*
X007154Y010088D03*
X007154Y010344D03*
X009359Y010344D03*
X009359Y010088D03*
X009359Y009832D03*
X009359Y009576D03*
X009359Y009320D03*
X009359Y009065D03*
X009359Y008809D03*
D22*
X007478Y001210D03*
X007085Y001210D03*
X006691Y001210D03*
X006297Y001210D03*
X005904Y001210D03*
X005510Y001210D03*
X005116Y001210D03*
D23*
X004722Y001210D03*
D24*
X010010Y001390D02*
X010010Y001810D01*
X011110Y001810D02*
X011110Y001390D01*
D25*
X004900Y002222D03*
X004900Y002418D03*
X004900Y002642D03*
X004900Y002838D03*
X013900Y010142D03*
X013900Y010338D03*
X014560Y010922D03*
X014560Y011118D03*
D26*
X015182Y008740D03*
X015379Y008740D03*
X006979Y008320D03*
X006782Y008320D03*
X004039Y003880D03*
X003842Y003880D03*
D27*
X003769Y010226D03*
X003769Y010600D03*
X003769Y010974D03*
X004832Y010974D03*
X004832Y010600D03*
X004832Y010226D03*
D28*
X005380Y010215D03*
X005380Y009545D03*
D29*
X002261Y009160D03*
X001060Y009160D03*
D30*
X007267Y006047D03*
X007267Y005791D03*
X007267Y005535D03*
X007267Y005280D03*
X007267Y005024D03*
X007523Y005024D03*
X007523Y005280D03*
X007779Y005280D03*
X007779Y005024D03*
X008035Y005024D03*
X008035Y005280D03*
X008291Y005280D03*
X008547Y005280D03*
X008547Y005535D03*
X008291Y005535D03*
X008035Y005535D03*
X007779Y005535D03*
X007523Y005535D03*
X007523Y005791D03*
X007779Y005791D03*
X008035Y005791D03*
X008291Y005791D03*
X008547Y005791D03*
X008803Y005791D03*
X009059Y005791D03*
X009315Y005791D03*
X009570Y005791D03*
X009570Y005535D03*
X009315Y005535D03*
X009315Y005280D03*
X009570Y005280D03*
X009826Y005280D03*
X010082Y005280D03*
X010082Y005024D03*
X010338Y005024D03*
X010338Y005280D03*
X010594Y005280D03*
X010850Y005280D03*
X010850Y005024D03*
X010594Y005024D03*
X010594Y004768D03*
X010338Y004768D03*
X010082Y004768D03*
X010082Y004512D03*
X010082Y004256D03*
X010082Y004000D03*
X010082Y003744D03*
X010082Y003488D03*
X010082Y003232D03*
X009826Y003232D03*
X009570Y003232D03*
X009315Y003232D03*
X009315Y002976D03*
X009570Y002976D03*
X009570Y002720D03*
X009315Y002720D03*
X009315Y002465D03*
X009570Y002465D03*
X009826Y002465D03*
X010082Y002465D03*
X010082Y002720D03*
X009826Y002720D03*
X009826Y002976D03*
X010082Y002976D03*
X010338Y002976D03*
X010594Y002976D03*
X010850Y002976D03*
X010850Y002720D03*
X010594Y002720D03*
X010338Y002720D03*
X010338Y002465D03*
X010594Y002465D03*
X010850Y002465D03*
X010850Y003232D03*
X010594Y003232D03*
X010338Y003232D03*
X010338Y003488D03*
X010594Y003488D03*
X010850Y003488D03*
X010850Y003744D03*
X010594Y003744D03*
X010338Y003744D03*
X010338Y004000D03*
X010594Y004000D03*
X010850Y004000D03*
X010850Y004256D03*
X010594Y004256D03*
X010338Y004256D03*
X010338Y004512D03*
X010594Y004512D03*
X010850Y004512D03*
X010850Y004768D03*
X010850Y005535D03*
X010594Y005535D03*
X010338Y005535D03*
X010082Y005535D03*
X009826Y005535D03*
X009826Y005791D03*
X010082Y005791D03*
X010338Y005791D03*
X010594Y005791D03*
X010850Y005791D03*
X010850Y006047D03*
X010594Y006047D03*
X010338Y006047D03*
X010082Y006047D03*
X009826Y006047D03*
X009570Y006047D03*
X009315Y006047D03*
X009059Y006047D03*
X008803Y006047D03*
X008547Y006047D03*
X008291Y006047D03*
X008035Y006047D03*
X007779Y006047D03*
X007523Y006047D03*
X008803Y005535D03*
X009059Y005535D03*
X009059Y005280D03*
X008803Y005280D03*
X008803Y004768D03*
X009059Y004768D03*
X009315Y004768D03*
X009570Y004768D03*
X009570Y004512D03*
X009315Y004512D03*
X009315Y004256D03*
X009570Y004256D03*
X009570Y004000D03*
X009315Y004000D03*
X009315Y003744D03*
X009570Y003744D03*
X009059Y003744D03*
X008803Y003744D03*
X008803Y004000D03*
X009059Y004000D03*
X009059Y004256D03*
X008803Y004256D03*
X008803Y004512D03*
X009059Y004512D03*
X008547Y004512D03*
X008547Y004768D03*
X008035Y004768D03*
X007779Y004768D03*
X007523Y004768D03*
X007267Y004768D03*
X007267Y004512D03*
X007267Y004256D03*
X007267Y004000D03*
X007267Y003744D03*
X007267Y003488D03*
X007267Y003232D03*
X007267Y002976D03*
X007267Y002720D03*
X007267Y002465D03*
X007523Y002465D03*
X007779Y002465D03*
X007779Y002720D03*
X007523Y002720D03*
X007523Y002976D03*
X007779Y002976D03*
X008035Y002976D03*
X008291Y002976D03*
X008547Y002976D03*
X008547Y002720D03*
X008291Y002720D03*
X008035Y002720D03*
X008035Y002465D03*
X008291Y002465D03*
X008547Y002465D03*
X008803Y002465D03*
X009059Y002465D03*
X009059Y002720D03*
X008803Y002720D03*
X008803Y002976D03*
X009059Y002976D03*
X009059Y003232D03*
X008803Y003232D03*
X008547Y003232D03*
X008291Y003232D03*
X008035Y003232D03*
X007779Y003232D03*
X007523Y003232D03*
X007523Y003488D03*
X007779Y003488D03*
X008035Y003488D03*
X008035Y003744D03*
X007779Y003744D03*
X007523Y003744D03*
X007523Y004000D03*
X007779Y004000D03*
X007779Y004256D03*
X007523Y004256D03*
X007523Y004512D03*
X007779Y004512D03*
X008035Y004512D03*
X008035Y004256D03*
X008035Y004000D03*
X008547Y004000D03*
X008547Y003744D03*
X008547Y004256D03*
D31*
X008680Y001060D03*
X008320Y001060D03*
X007960Y001060D03*
X009040Y001060D03*
X009400Y001060D03*
D32*
X012386Y011487D03*
X013134Y011487D03*
X012760Y012353D03*
D33*
X008740Y012040D03*
X007060Y012040D03*
X005380Y012040D03*
X003700Y012040D03*
M02*
