G75*
G70*
%OFA0B0*%
%FSLAX24Y24*%
%IPPOS*%
%LPD*%
%AMOC8*
5,1,8,0,0,1.08239X$1,22.5*
%
%ADD10C,0.0020*%
%ADD11C,0.0080*%
%ADD12C,0.0143*%
%ADD13R,0.0118X0.0118*%
%ADD14C,0.0050*%
%ADD15C,0.0031*%
%ADD16C,0.0010*%
%ADD17C,0.0079*%
D10*
X004190Y012650D02*
X004337Y012650D01*
X004264Y012650D02*
X004264Y012870D01*
X004190Y012797D01*
X004411Y012833D02*
X004448Y012870D01*
X004521Y012870D01*
X004558Y012833D01*
X004558Y012797D01*
X004411Y012650D01*
X004558Y012650D01*
X004632Y012723D02*
X004706Y012650D01*
X004779Y012723D01*
X004779Y012870D01*
X004632Y012870D02*
X004632Y012723D01*
X005870Y012687D02*
X005907Y012650D01*
X005980Y012650D01*
X006017Y012687D01*
X006017Y012760D01*
X005944Y012760D01*
X006017Y012833D02*
X005980Y012870D01*
X005907Y012870D01*
X005870Y012833D01*
X005870Y012687D01*
X006091Y012650D02*
X006091Y012870D01*
X006238Y012650D01*
X006238Y012870D01*
X006312Y012870D02*
X006422Y012870D01*
X006459Y012833D01*
X006459Y012687D01*
X006422Y012650D01*
X006312Y012650D01*
X006312Y012870D01*
X007610Y012870D02*
X007610Y012650D01*
X007757Y012650D02*
X007757Y012870D01*
X007684Y012797D01*
X007610Y012870D01*
X007831Y012797D02*
X007905Y012870D01*
X007905Y012650D01*
X007978Y012650D02*
X007831Y012650D01*
X009290Y012650D02*
X009290Y012870D01*
X009364Y012797D01*
X009437Y012870D01*
X009437Y012650D01*
X009511Y012650D02*
X009658Y012797D01*
X009658Y012833D01*
X009621Y012870D01*
X009548Y012870D01*
X009511Y012833D01*
X009511Y012650D02*
X009658Y012650D01*
D11*
X009305Y007932D02*
X010131Y007932D01*
X010860Y007401D02*
X010860Y007164D01*
X010131Y006633D02*
X009305Y006633D01*
X008576Y007164D02*
X008576Y007401D01*
X009670Y002100D02*
X009560Y001990D01*
X009560Y001600D01*
X009560Y001210D01*
X009670Y001100D01*
X009660Y001600D02*
X009560Y001600D01*
X010410Y001600D02*
X010710Y001600D01*
X011460Y001600D02*
X011560Y001600D01*
X011560Y001990D01*
X011450Y002100D01*
X011560Y001600D02*
X011560Y001210D01*
X011450Y001100D01*
D12*
X008911Y007204D03*
D13*
X009160Y008320D03*
X009580Y008320D03*
X007571Y006462D03*
X007331Y006462D03*
X007091Y006462D03*
X006851Y005802D03*
X006851Y003282D03*
X006851Y003042D03*
X006851Y002802D03*
X010420Y001660D03*
X010691Y001662D03*
X013120Y007540D03*
X014020Y008380D03*
X013360Y009460D03*
X005440Y010720D03*
X005440Y010960D03*
X001780Y007720D03*
X001480Y007720D03*
X001180Y007720D03*
D14*
X001165Y007315D02*
X001165Y006685D01*
X001795Y006685D01*
X001795Y007315D01*
X001165Y007315D01*
X001284Y006449D02*
X001286Y006461D01*
X001291Y006472D01*
X001300Y006481D01*
X001311Y006486D01*
X001323Y006488D01*
X001335Y006486D01*
X001346Y006481D01*
X001355Y006472D01*
X001360Y006461D01*
X001362Y006449D01*
X001360Y006437D01*
X001355Y006426D01*
X001346Y006417D01*
X001335Y006412D01*
X001323Y006410D01*
X001311Y006412D01*
X001300Y006417D01*
X001291Y006426D01*
X001286Y006437D01*
X001284Y006449D01*
X001599Y006449D02*
X001601Y006461D01*
X001606Y006472D01*
X001615Y006481D01*
X001626Y006486D01*
X001638Y006488D01*
X001650Y006486D01*
X001661Y006481D01*
X001670Y006472D01*
X001675Y006461D01*
X001677Y006449D01*
X001675Y006437D01*
X001670Y006426D01*
X001661Y006417D01*
X001650Y006412D01*
X001638Y006410D01*
X001626Y006412D01*
X001615Y006417D01*
X001606Y006426D01*
X001601Y006437D01*
X001599Y006449D01*
X001936Y008845D02*
X001149Y008845D01*
X001149Y009475D01*
X001936Y009475D01*
X001936Y008845D01*
X001975Y008845D01*
X001975Y009475D01*
X001936Y009475D01*
X001975Y009475D02*
X002015Y009475D01*
X002015Y008845D01*
X001975Y008845D01*
X002015Y008845D02*
X002172Y008845D01*
X002172Y009475D01*
X002015Y009475D01*
X003956Y010000D02*
X004645Y010000D01*
X004645Y011200D01*
X003956Y011200D01*
X003956Y010000D01*
X007371Y010580D02*
X007371Y008572D01*
X009143Y008572D01*
X009143Y010580D01*
X007371Y010580D01*
X008857Y008819D02*
X008859Y008827D01*
X008864Y008834D01*
X008871Y008838D01*
X008879Y008839D01*
X008887Y008836D01*
X008893Y008831D01*
X008897Y008823D01*
X008897Y008815D01*
X008893Y008807D01*
X008887Y008802D01*
X008879Y008799D01*
X008871Y008800D01*
X008864Y008804D01*
X008859Y008811D01*
X008857Y008819D01*
X007090Y006224D02*
X010870Y006224D01*
X011027Y006067D01*
X011027Y002287D01*
X007090Y002287D01*
X007090Y006224D01*
X010870Y006224D02*
X010909Y006224D01*
X011027Y006106D01*
X011027Y006067D01*
X011027Y006106D02*
X011027Y006146D01*
X010948Y006224D01*
X011027Y006224D01*
X011027Y006146D01*
X010948Y006224D02*
X010909Y006224D01*
X011067Y006303D02*
X011069Y006315D01*
X011074Y006326D01*
X011083Y006335D01*
X011094Y006340D01*
X011106Y006342D01*
X011118Y006340D01*
X011129Y006335D01*
X011138Y006326D01*
X011143Y006315D01*
X011145Y006303D01*
X011143Y006291D01*
X011138Y006280D01*
X011129Y006271D01*
X011118Y006266D01*
X011106Y006264D01*
X011094Y006266D01*
X011083Y006271D01*
X011074Y006280D01*
X011069Y006291D01*
X011067Y006303D01*
X007774Y001391D02*
X004427Y001391D01*
X004427Y000801D01*
X007774Y000801D01*
X007774Y001391D01*
D15*
X004738Y002123D02*
X003143Y002123D01*
X003143Y003717D01*
X004738Y003717D01*
X004738Y002123D01*
X003428Y002034D02*
X003430Y002042D01*
X003435Y002049D01*
X003442Y002053D01*
X003450Y002054D01*
X003458Y002051D01*
X003464Y002046D01*
X003468Y002038D01*
X003468Y002030D01*
X003464Y002022D01*
X003458Y002017D01*
X003450Y002014D01*
X003442Y002015D01*
X003435Y002019D01*
X003430Y002026D01*
X003428Y002034D01*
D16*
X003280Y003796D02*
X003280Y003916D01*
X003265Y003901D02*
X003295Y003901D01*
X003310Y003886D01*
X003342Y003886D02*
X003357Y003901D01*
X003387Y003901D01*
X003402Y003886D01*
X003402Y003871D01*
X003342Y003811D01*
X003402Y003811D01*
X003310Y003826D02*
X003310Y003841D01*
X003295Y003856D01*
X003265Y003856D01*
X003250Y003871D01*
X003250Y003886D01*
X003265Y003901D01*
X003218Y003901D02*
X003218Y003826D01*
X003203Y003811D01*
X003173Y003811D01*
X003158Y003826D01*
X003158Y003901D01*
X003250Y003826D02*
X003265Y003811D01*
X003295Y003811D01*
X003310Y003826D01*
X001671Y009151D02*
X001570Y009151D01*
X001671Y009251D01*
X001671Y009276D01*
X001646Y009301D01*
X001595Y009301D01*
X001570Y009276D01*
X001523Y009276D02*
X001498Y009301D01*
X001423Y009301D01*
X001423Y009151D01*
X001498Y009151D01*
X001523Y009176D01*
X001523Y009276D01*
D17*
X004448Y010206D02*
X004450Y010219D01*
X004455Y010231D01*
X004464Y010242D01*
X004474Y010250D01*
X004487Y010254D01*
X004500Y010255D01*
X004513Y010252D01*
X004525Y010246D01*
X004535Y010237D01*
X004542Y010226D01*
X004546Y010213D01*
X004546Y010199D01*
X004542Y010186D01*
X004535Y010175D01*
X004525Y010166D01*
X004513Y010160D01*
X004500Y010157D01*
X004487Y010158D01*
X004474Y010162D01*
X004464Y010170D01*
X004455Y010181D01*
X004450Y010193D01*
X004448Y010206D01*
M02*
