G75*
G70*
%OFA0B0*%
%FSLAX24Y24*%
%IPPOS*%
%LPD*%
%AMOC8*
5,1,8,0,0,1.08239X$1,22.5*
%
%ADD10R,0.0218X0.0178*%
%ADD11R,0.0178X0.0218*%
%ADD12R,0.0395X0.0316*%
%ADD13R,0.0190X0.0249*%
%ADD14C,0.0328*%
%ADD15R,0.0328X0.0328*%
%ADD16C,0.0500*%
%ADD17R,0.0946X0.1064*%
%ADD18R,0.0867X0.0277*%
%ADD19R,0.0474X0.0631*%
%ADD20C,0.1580*%
D10*
X008531Y004924D03*
X008531Y005121D03*
X009311Y005121D03*
X009311Y004924D03*
X009551Y004924D03*
X009551Y005121D03*
X010331Y006184D03*
X010331Y006381D03*
X009431Y003561D03*
X009431Y003364D03*
X009191Y003364D03*
X009191Y003561D03*
X008949Y003561D03*
X008949Y003365D03*
X008711Y003364D03*
X008711Y003561D03*
D11*
X008449Y003882D03*
X008252Y003882D03*
X008252Y004122D03*
X008449Y004122D03*
X008449Y004362D03*
X008252Y004362D03*
X008252Y004602D03*
X008449Y004602D03*
X009752Y004482D03*
X009949Y004482D03*
X009949Y004242D03*
X009752Y004242D03*
X009752Y004002D03*
X009949Y004002D03*
X009949Y004902D03*
X009752Y004902D03*
D12*
X002440Y005065D03*
X002440Y005695D03*
D13*
X004200Y003400D03*
X004401Y003400D03*
X004401Y003100D03*
X004200Y003100D03*
X004200Y002800D03*
X004401Y002800D03*
D14*
X005116Y001210D03*
X005510Y001210D03*
X005904Y001210D03*
X006297Y001210D03*
X006691Y001210D03*
X007085Y001210D03*
X007478Y001210D03*
D15*
X004722Y001210D03*
D16*
X010010Y001390D02*
X010010Y001810D01*
X011110Y001810D02*
X011110Y001390D01*
D17*
X001321Y001446D03*
X003408Y001446D03*
X003408Y004754D03*
X001321Y004754D03*
D18*
X003506Y003730D03*
X003506Y003415D03*
X003506Y003100D03*
X003506Y002785D03*
X003506Y002470D03*
D19*
X004946Y004047D03*
X005694Y004047D03*
X005320Y004913D03*
D20*
X005380Y012040D03*
X007060Y012040D03*
X008740Y012040D03*
X003700Y012040D03*
M02*
