%
M48
M72
T01C0.0100
T02C0.0197
T03C0.0400
T04C0.0800
%
T01
X8675Y3872
X8931Y3872
X9187Y3872
X9442Y3872
X9442Y4128
X9187Y4128
X8931Y4128
X8931Y4384
X9187Y4384
X9442Y4384
X9442Y4640
X9187Y4640
X8931Y4640
X8675Y4640
X8675Y4384
X8675Y4128
X9187Y5663
X9442Y5663
X9698Y5663
X9698Y5919
X9442Y5919
X9187Y5919
T02
X4722Y1210
X5116Y1210
X5510Y1210
X5904Y1210
X6297Y1210
X6691Y1210
X7085Y1210
X7478Y1210
T03
X10010Y1600
X11110Y1600
T04
X8740Y12040
X7060Y12040
X5380Y12040
X3700Y12040
M30
