G75*
G70*
%OFA0B0*%
%FSLAX24Y24*%
%IPPOS*%
%LPD*%
%AMOC8*
5,1,8,0,0,1.08239X$1,22.5*
%
%ADD10R,0.0138X0.0098*%
%ADD11R,0.0098X0.0138*%
%ADD12R,0.0315X0.0236*%
%ADD13R,0.0110X0.0169*%
%ADD14C,0.0248*%
%ADD15R,0.0248X0.0248*%
%ADD16C,0.0420*%
%ADD17R,0.0866X0.0984*%
%ADD18R,0.0787X0.0197*%
%ADD19R,0.0394X0.0551*%
%ADD20C,0.0070*%
%ADD21C,0.1500*%
%ADD22C,0.0140*%
D10*
X008531Y004924D03*
X008531Y005121D03*
X009311Y005121D03*
X009311Y004924D03*
X009551Y004924D03*
X009551Y005121D03*
X010331Y006184D03*
X010331Y006381D03*
X009431Y003561D03*
X009431Y003364D03*
X009191Y003364D03*
X009191Y003561D03*
X008949Y003561D03*
X008949Y003365D03*
X008711Y003364D03*
X008711Y003561D03*
D11*
X008449Y003882D03*
X008252Y003882D03*
X008252Y004122D03*
X008449Y004122D03*
X008449Y004362D03*
X008252Y004362D03*
X008252Y004602D03*
X008449Y004602D03*
X009752Y004482D03*
X009949Y004482D03*
X009949Y004242D03*
X009752Y004242D03*
X009752Y004002D03*
X009949Y004002D03*
X009949Y004902D03*
X009752Y004902D03*
D12*
X002440Y005065D03*
X002440Y005695D03*
D13*
X004200Y003400D03*
X004401Y003400D03*
X004401Y003100D03*
X004200Y003100D03*
X004200Y002800D03*
X004401Y002800D03*
D14*
X005116Y001210D03*
X005510Y001210D03*
X005904Y001210D03*
X006297Y001210D03*
X006691Y001210D03*
X007085Y001210D03*
X007478Y001210D03*
D15*
X004722Y001210D03*
D16*
X010010Y001390D02*
X010010Y001810D01*
X011110Y001810D02*
X011110Y001390D01*
D17*
X001321Y001446D03*
X003408Y001446D03*
X003408Y004754D03*
X001321Y004754D03*
D18*
X003506Y003730D03*
X003506Y003415D03*
X003506Y003100D03*
X003506Y002785D03*
X003506Y002470D03*
D19*
X004946Y004047D03*
X005694Y004047D03*
X005320Y004913D03*
D20*
X005029Y004891D02*
X003936Y004891D01*
X003936Y004959D02*
X005029Y004959D01*
X005029Y005028D02*
X003936Y005028D01*
X003936Y005096D02*
X005029Y005096D01*
X005029Y005165D02*
X003936Y005165D01*
X003936Y005233D02*
X005033Y005233D01*
X005029Y005228D02*
X005084Y005284D01*
X005557Y005284D01*
X005612Y005228D01*
X005612Y004598D01*
X005557Y004542D01*
X005084Y004542D01*
X005029Y004598D01*
X005029Y005228D01*
X005029Y004822D02*
X003936Y004822D01*
X003936Y004754D02*
X005029Y004754D01*
X005029Y004685D02*
X003936Y004685D01*
X003936Y004617D02*
X005029Y004617D01*
X005079Y004548D02*
X003936Y004548D01*
X003936Y004480D02*
X008117Y004480D01*
X008120Y004482D02*
X008108Y004471D01*
X008108Y004254D01*
X008120Y004242D01*
X008108Y004231D01*
X008108Y004014D01*
X008120Y004002D01*
X008108Y003991D01*
X008108Y003774D01*
X008164Y003718D01*
X008341Y003718D01*
X008397Y003774D01*
X008397Y003991D01*
X008385Y004002D01*
X008397Y004014D01*
X008397Y004231D01*
X008385Y004242D01*
X008397Y004254D01*
X008397Y004471D01*
X008385Y004482D01*
X008397Y004494D01*
X008397Y004711D01*
X008341Y004766D01*
X008164Y004766D01*
X008108Y004711D01*
X008108Y004494D01*
X008120Y004482D01*
X008108Y004548D02*
X005562Y004548D01*
X005612Y004617D02*
X008108Y004617D01*
X008108Y004685D02*
X005612Y004685D01*
X005612Y004754D02*
X008151Y004754D01*
X008354Y004754D02*
X009846Y004754D01*
X009861Y004738D02*
X010038Y004738D01*
X010094Y004794D01*
X010094Y005011D01*
X010038Y005066D01*
X009861Y005066D01*
X009805Y005011D01*
X009805Y004794D01*
X009861Y004738D01*
X009861Y004646D02*
X009805Y004591D01*
X009805Y004374D01*
X009817Y004362D01*
X009805Y004351D01*
X009805Y004134D01*
X009817Y004122D01*
X009805Y004111D01*
X009805Y003894D01*
X009861Y003838D01*
X010038Y003838D01*
X010094Y003894D01*
X010094Y004111D01*
X010082Y004122D01*
X010094Y004134D01*
X010094Y004351D01*
X010082Y004362D01*
X010094Y004374D01*
X010094Y004591D01*
X010038Y004646D01*
X009861Y004646D01*
X009831Y004617D02*
X008397Y004617D01*
X008397Y004685D02*
X011555Y004685D01*
X011555Y004617D02*
X010068Y004617D01*
X010094Y004548D02*
X011555Y004548D01*
X011555Y004480D02*
X010094Y004480D01*
X010094Y004411D02*
X011555Y004411D01*
X011555Y004343D02*
X010094Y004343D01*
X010094Y004274D02*
X011555Y004274D01*
X011555Y004206D02*
X010094Y004206D01*
X010094Y004137D02*
X011555Y004137D01*
X011555Y004069D02*
X010094Y004069D01*
X010094Y004000D02*
X011555Y004000D01*
X011555Y003931D02*
X010094Y003931D01*
X010062Y003863D02*
X011555Y003863D01*
X011555Y003794D02*
X008397Y003794D01*
X008397Y003863D02*
X009836Y003863D01*
X009805Y003931D02*
X008397Y003931D01*
X008387Y004000D02*
X009805Y004000D01*
X009805Y004069D02*
X008397Y004069D01*
X008397Y004137D02*
X009805Y004137D01*
X009805Y004206D02*
X008397Y004206D01*
X008397Y004274D02*
X009805Y004274D01*
X009805Y004343D02*
X008397Y004343D01*
X008397Y004411D02*
X009805Y004411D01*
X009805Y004480D02*
X008388Y004480D01*
X008397Y004548D02*
X009805Y004548D01*
X010053Y004754D02*
X011555Y004754D01*
X011555Y004822D02*
X010094Y004822D01*
X010094Y004891D02*
X011555Y004891D01*
X011555Y004959D02*
X010094Y004959D01*
X010077Y005028D02*
X011555Y005028D01*
X011555Y005096D02*
X009715Y005096D01*
X009715Y005032D02*
X009715Y005209D01*
X009659Y005265D01*
X009443Y005265D01*
X009431Y005253D01*
X009419Y005265D01*
X009203Y005265D01*
X009147Y005209D01*
X009147Y005032D01*
X009203Y004977D01*
X009419Y004977D01*
X009431Y004988D01*
X009443Y004977D01*
X009659Y004977D01*
X009715Y005032D01*
X009710Y005028D02*
X009822Y005028D01*
X009805Y004959D02*
X005612Y004959D01*
X005612Y004891D02*
X009805Y004891D01*
X009805Y004822D02*
X005612Y004822D01*
X005612Y005028D02*
X008372Y005028D01*
X008367Y005032D02*
X008367Y005209D01*
X008423Y005265D01*
X008639Y005265D01*
X008695Y005209D01*
X008695Y005032D01*
X008639Y004977D01*
X008423Y004977D01*
X008367Y005032D01*
X008367Y005096D02*
X005612Y005096D01*
X005612Y005165D02*
X008367Y005165D01*
X008391Y005233D02*
X005607Y005233D01*
X005458Y004418D02*
X005403Y004362D01*
X005403Y003732D01*
X005458Y003676D01*
X005931Y003676D01*
X005986Y003732D01*
X005986Y004362D01*
X005931Y004418D01*
X005458Y004418D01*
X005452Y004411D02*
X005189Y004411D01*
X005183Y004418D02*
X004710Y004418D01*
X004654Y004362D01*
X004654Y003732D01*
X004710Y003676D01*
X005183Y003676D01*
X005238Y003732D01*
X005238Y004362D01*
X005183Y004418D01*
X005238Y004343D02*
X005403Y004343D01*
X005403Y004274D02*
X005238Y004274D01*
X005238Y004206D02*
X005403Y004206D01*
X005403Y004137D02*
X005238Y004137D01*
X005238Y004069D02*
X005403Y004069D01*
X005403Y004000D02*
X005238Y004000D01*
X005238Y003931D02*
X005403Y003931D01*
X005403Y003863D02*
X005238Y003863D01*
X005238Y003794D02*
X005403Y003794D01*
X005409Y003726D02*
X005232Y003726D01*
X004660Y003726D02*
X003138Y003726D01*
X003138Y003794D02*
X004654Y003794D01*
X004654Y003863D02*
X003117Y003863D01*
X002478Y003863D01*
X002478Y004630D01*
X002458Y004651D01*
X001849Y004651D01*
X001849Y005285D01*
X001794Y005341D01*
X000885Y005341D01*
X000885Y011068D01*
X000899Y011112D01*
X000921Y011153D01*
X000951Y011190D01*
X000987Y011220D01*
X001029Y011242D01*
X001072Y011255D01*
X002273Y011255D01*
X002517Y011356D01*
X002704Y011543D01*
X002704Y011543D01*
X002805Y011788D01*
X002805Y012631D01*
X003096Y012631D01*
X003028Y012563D02*
X002805Y012563D01*
X002805Y012631D02*
X002807Y012650D01*
X002828Y012718D01*
X002861Y012780D01*
X002906Y012835D01*
X002960Y012879D01*
X003023Y012913D01*
X003090Y012933D01*
X003110Y012935D01*
X009502Y012935D01*
X009538Y012922D01*
X009573Y012901D01*
X009601Y012872D01*
X009623Y012838D01*
X009635Y012801D01*
X009635Y011788D01*
X009737Y011543D01*
X009924Y011356D01*
X010168Y011255D01*
X011368Y011255D01*
X011412Y011242D01*
X011454Y011220D01*
X011490Y011190D01*
X011520Y011153D01*
X011542Y011112D01*
X011555Y011068D01*
X011555Y001132D01*
X011542Y001088D01*
X011520Y001047D01*
X011490Y001010D01*
X011454Y000980D01*
X011412Y000958D01*
X011368Y000945D01*
X003936Y000945D01*
X003936Y001978D01*
X003880Y002034D01*
X002935Y002034D01*
X002880Y001978D01*
X002880Y000945D01*
X001849Y000945D01*
X001849Y001549D01*
X002458Y001549D01*
X002478Y001570D01*
X002478Y002337D01*
X003017Y002337D01*
X003017Y002332D01*
X003073Y002277D01*
X003939Y002277D01*
X003995Y002332D01*
X003995Y002608D01*
X003975Y002628D01*
X003995Y002647D01*
X003995Y002923D01*
X003975Y002943D01*
X003995Y002962D01*
X003995Y003238D01*
X003975Y003257D01*
X003995Y003277D01*
X003995Y003553D01*
X003939Y003608D01*
X003138Y003608D01*
X003138Y003843D01*
X003117Y003863D01*
X003138Y003657D02*
X011555Y003657D01*
X011555Y003589D02*
X003959Y003589D01*
X003995Y003520D02*
X004050Y003520D01*
X004050Y003524D02*
X004050Y003276D01*
X004076Y003250D01*
X004050Y003224D01*
X004050Y002976D01*
X004076Y002950D01*
X004050Y002924D01*
X004050Y002676D01*
X004105Y002620D01*
X004294Y002620D01*
X004300Y002626D01*
X004306Y002620D01*
X004495Y002620D01*
X004551Y002676D01*
X004551Y002924D01*
X004525Y002950D01*
X004551Y002976D01*
X004551Y003224D01*
X004525Y003250D01*
X004551Y003276D01*
X004551Y003524D01*
X004495Y003580D01*
X004306Y003580D01*
X004300Y003574D01*
X004294Y003580D01*
X004105Y003580D01*
X004050Y003524D01*
X004050Y003452D02*
X003995Y003452D01*
X003995Y003383D02*
X004050Y003383D01*
X004050Y003315D02*
X003995Y003315D01*
X003986Y003246D02*
X004072Y003246D01*
X004050Y003178D02*
X003995Y003178D01*
X003995Y003109D02*
X004050Y003109D01*
X004050Y003041D02*
X003995Y003041D01*
X003995Y002972D02*
X004053Y002972D01*
X004050Y002904D02*
X003995Y002904D01*
X003995Y002835D02*
X004050Y002835D01*
X004050Y002767D02*
X003995Y002767D01*
X003995Y002698D02*
X004050Y002698D01*
X004096Y002630D02*
X003978Y002630D01*
X003995Y002561D02*
X011555Y002561D01*
X011555Y002493D02*
X003995Y002493D01*
X003995Y002424D02*
X011555Y002424D01*
X011555Y002356D02*
X003995Y002356D01*
X003950Y002287D02*
X011555Y002287D01*
X011555Y002219D02*
X002478Y002219D01*
X002478Y002287D02*
X003062Y002287D01*
X002915Y002013D02*
X002478Y002013D01*
X002478Y001945D02*
X002880Y001945D01*
X002880Y001876D02*
X002478Y001876D01*
X002478Y001808D02*
X002880Y001808D01*
X002880Y001739D02*
X002478Y001739D01*
X002478Y001671D02*
X002880Y001671D01*
X002880Y001602D02*
X002478Y001602D01*
X002880Y001534D02*
X001849Y001534D01*
X001849Y001465D02*
X002880Y001465D01*
X002880Y001397D02*
X001849Y001397D01*
X001849Y001328D02*
X002880Y001328D01*
X002880Y001260D02*
X001849Y001260D01*
X001849Y001191D02*
X002880Y001191D01*
X002880Y001123D02*
X001849Y001123D01*
X001849Y001054D02*
X002880Y001054D01*
X002880Y000986D02*
X001849Y000986D01*
X002478Y002082D02*
X009870Y002082D01*
X009838Y002069D02*
X009752Y001983D01*
X009705Y001871D01*
X009705Y001329D01*
X009752Y001217D01*
X009838Y001131D01*
X009950Y001085D01*
X010071Y001085D01*
X010183Y001131D01*
X010269Y001217D01*
X010315Y001329D01*
X010315Y001871D01*
X010269Y001983D01*
X010183Y002069D01*
X010071Y002115D01*
X009950Y002115D01*
X009838Y002069D01*
X009783Y002013D02*
X003900Y002013D01*
X003936Y001945D02*
X009736Y001945D01*
X009708Y001876D02*
X003936Y001876D01*
X003936Y001808D02*
X009705Y001808D01*
X009705Y001739D02*
X003936Y001739D01*
X003936Y001671D02*
X009705Y001671D01*
X009705Y001602D02*
X003936Y001602D01*
X003936Y001534D02*
X009705Y001534D01*
X009705Y001465D02*
X003936Y001465D01*
X003936Y001397D02*
X004527Y001397D01*
X004503Y001373D02*
X004503Y001047D01*
X004559Y000991D01*
X004886Y000991D01*
X004941Y001047D01*
X004941Y001075D01*
X005025Y000991D01*
X005207Y000991D01*
X005313Y001097D01*
X005419Y000991D01*
X005601Y000991D01*
X005707Y001097D01*
X005813Y000991D01*
X005994Y000991D01*
X006100Y001097D01*
X006206Y000991D01*
X006388Y000991D01*
X006494Y001097D01*
X006600Y000991D01*
X006782Y000991D01*
X006888Y001097D01*
X006994Y000991D01*
X007175Y000991D01*
X007281Y001097D01*
X007388Y000991D01*
X007569Y000991D01*
X007697Y001119D01*
X007697Y001301D01*
X007569Y001429D01*
X007388Y001429D01*
X007281Y001323D01*
X007175Y001429D01*
X006994Y001429D01*
X006888Y001323D01*
X006782Y001429D01*
X006600Y001429D01*
X006494Y001323D01*
X006388Y001429D01*
X006206Y001429D01*
X006100Y001323D01*
X005994Y001429D01*
X005813Y001429D01*
X005707Y001323D01*
X005601Y001429D01*
X005419Y001429D01*
X005313Y001323D01*
X005207Y001429D01*
X005025Y001429D01*
X004941Y001345D01*
X004941Y001373D01*
X004886Y001429D01*
X004559Y001429D01*
X004503Y001373D01*
X004503Y001328D02*
X003936Y001328D01*
X003936Y001260D02*
X004503Y001260D01*
X004503Y001191D02*
X003936Y001191D01*
X003936Y001123D02*
X004503Y001123D01*
X004503Y001054D02*
X003936Y001054D01*
X003936Y000986D02*
X011460Y000986D01*
X011524Y001054D02*
X007633Y001054D01*
X007697Y001123D02*
X009858Y001123D01*
X009778Y001191D02*
X007697Y001191D01*
X007697Y001260D02*
X009734Y001260D01*
X009706Y001328D02*
X007670Y001328D01*
X007601Y001397D02*
X009705Y001397D01*
X010163Y001123D02*
X010958Y001123D01*
X010938Y001131D02*
X011050Y001085D01*
X011171Y001085D01*
X011283Y001131D01*
X011369Y001217D01*
X011415Y001329D01*
X011415Y001871D01*
X011369Y001983D01*
X011283Y002069D01*
X011171Y002115D01*
X011050Y002115D01*
X010938Y002069D01*
X010852Y001983D01*
X010805Y001871D01*
X010805Y001329D01*
X010852Y001217D01*
X010938Y001131D01*
X010878Y001191D02*
X010243Y001191D01*
X010287Y001260D02*
X010834Y001260D01*
X010806Y001328D02*
X010315Y001328D01*
X010315Y001397D02*
X010805Y001397D01*
X010805Y001465D02*
X010315Y001465D01*
X010315Y001534D02*
X010805Y001534D01*
X010805Y001602D02*
X010315Y001602D01*
X010315Y001671D02*
X010805Y001671D01*
X010805Y001739D02*
X010315Y001739D01*
X010315Y001808D02*
X010805Y001808D01*
X010808Y001876D02*
X010313Y001876D01*
X010285Y001945D02*
X010836Y001945D01*
X010883Y002013D02*
X010238Y002013D01*
X010151Y002082D02*
X010970Y002082D01*
X011251Y002082D02*
X011555Y002082D01*
X011555Y002150D02*
X002478Y002150D01*
X004505Y002630D02*
X011555Y002630D01*
X011555Y002698D02*
X004551Y002698D01*
X004551Y002767D02*
X011555Y002767D01*
X011555Y002835D02*
X004551Y002835D01*
X004551Y002904D02*
X011555Y002904D01*
X011555Y002972D02*
X004547Y002972D01*
X004551Y003041D02*
X011555Y003041D01*
X011555Y003109D02*
X004551Y003109D01*
X004551Y003178D02*
X011555Y003178D01*
X011555Y003246D02*
X009566Y003246D01*
X009539Y003220D02*
X009595Y003275D01*
X009595Y003453D01*
X009539Y003508D01*
X009323Y003508D01*
X009311Y003496D01*
X009299Y003508D01*
X009083Y003508D01*
X009070Y003496D01*
X009057Y003509D01*
X008840Y003509D01*
X008829Y003498D01*
X008819Y003508D01*
X008603Y003508D01*
X008547Y003453D01*
X008547Y003275D01*
X008603Y003220D01*
X008819Y003220D01*
X008830Y003231D01*
X008840Y003220D01*
X009057Y003220D01*
X009069Y003233D01*
X009083Y003220D01*
X009299Y003220D01*
X009311Y003231D01*
X009323Y003220D01*
X009539Y003220D01*
X009595Y003315D02*
X011555Y003315D01*
X011555Y003383D02*
X009595Y003383D01*
X009595Y003452D02*
X011555Y003452D01*
X011555Y003520D02*
X004551Y003520D01*
X004551Y003452D02*
X008547Y003452D01*
X008547Y003383D02*
X004551Y003383D01*
X004551Y003315D02*
X008547Y003315D01*
X008576Y003246D02*
X004528Y003246D01*
X004654Y003931D02*
X002478Y003931D01*
X002478Y004000D02*
X004654Y004000D01*
X004654Y004069D02*
X002478Y004069D01*
X002478Y004137D02*
X004654Y004137D01*
X004654Y004206D02*
X003919Y004206D01*
X003936Y004222D02*
X003880Y004166D01*
X002935Y004166D01*
X002880Y004222D01*
X002880Y005285D01*
X002935Y005341D01*
X003880Y005341D01*
X003936Y005285D01*
X003936Y004222D01*
X003936Y004274D02*
X004654Y004274D01*
X004654Y004343D02*
X003936Y004343D01*
X003936Y004411D02*
X004704Y004411D01*
X003919Y005302D02*
X011555Y005302D01*
X011555Y005370D02*
X000885Y005370D01*
X000885Y005439D02*
X011555Y005439D01*
X011555Y005507D02*
X009775Y005507D01*
X009767Y005498D02*
X009863Y005595D01*
X009863Y005732D01*
X009804Y005791D01*
X009863Y005851D01*
X009863Y005988D01*
X009767Y006084D01*
X009630Y006084D01*
X009570Y006025D01*
X009511Y006084D01*
X009374Y006084D01*
X009315Y006025D01*
X009255Y006084D01*
X009118Y006084D01*
X009022Y005988D01*
X009022Y005851D01*
X009081Y005791D01*
X009022Y005732D01*
X009022Y005595D01*
X009118Y005498D01*
X009255Y005498D01*
X009315Y005558D01*
X009374Y005498D01*
X009511Y005498D01*
X009570Y005558D01*
X009630Y005498D01*
X009767Y005498D01*
X009844Y005576D02*
X011555Y005576D01*
X011555Y005644D02*
X009863Y005644D01*
X009863Y005713D02*
X011555Y005713D01*
X011555Y005781D02*
X009814Y005781D01*
X009862Y005850D02*
X011555Y005850D01*
X011555Y005918D02*
X009863Y005918D01*
X009863Y005987D02*
X011555Y005987D01*
X011555Y006055D02*
X010454Y006055D01*
X010439Y006040D02*
X010495Y006095D01*
X010495Y006273D01*
X010439Y006328D01*
X010223Y006328D01*
X010167Y006273D01*
X010167Y006095D01*
X010223Y006040D01*
X010439Y006040D01*
X010495Y006124D02*
X011555Y006124D01*
X011555Y006192D02*
X010495Y006192D01*
X010495Y006261D02*
X011555Y006261D01*
X011555Y006329D02*
X000885Y006329D01*
X000885Y006261D02*
X010167Y006261D01*
X010167Y006192D02*
X000885Y006192D01*
X000885Y006124D02*
X010167Y006124D01*
X010207Y006055D02*
X009796Y006055D01*
X009601Y006055D02*
X009540Y006055D01*
X009345Y006055D02*
X009284Y006055D01*
X009089Y006055D02*
X000885Y006055D01*
X000885Y005987D02*
X009022Y005987D01*
X009022Y005918D02*
X000885Y005918D01*
X000885Y005850D02*
X002188Y005850D01*
X002188Y005852D02*
X002244Y005908D01*
X002637Y005908D01*
X002693Y005852D01*
X002693Y005537D01*
X002637Y005482D01*
X002244Y005482D01*
X002188Y005537D01*
X002188Y005852D01*
X002188Y005781D02*
X000885Y005781D01*
X000885Y005713D02*
X002188Y005713D01*
X002188Y005644D02*
X000885Y005644D01*
X000885Y005576D02*
X002188Y005576D01*
X002218Y005507D02*
X000885Y005507D01*
X001833Y005302D02*
X002896Y005302D01*
X002880Y005233D02*
X002682Y005233D01*
X002693Y005223D02*
X002637Y005278D01*
X002244Y005278D01*
X002188Y005223D01*
X002188Y004908D01*
X002244Y004852D01*
X002637Y004852D01*
X002693Y004908D01*
X002693Y005223D01*
X002693Y005165D02*
X002880Y005165D01*
X002880Y005096D02*
X002693Y005096D01*
X002693Y005028D02*
X002880Y005028D01*
X002880Y004959D02*
X002693Y004959D01*
X002676Y004891D02*
X002880Y004891D01*
X002880Y004822D02*
X001849Y004822D01*
X001849Y004754D02*
X002880Y004754D01*
X002880Y004685D02*
X001849Y004685D01*
X001849Y004891D02*
X002205Y004891D01*
X002188Y004959D02*
X001849Y004959D01*
X001849Y005028D02*
X002188Y005028D01*
X002188Y005096D02*
X001849Y005096D01*
X001849Y005165D02*
X002188Y005165D01*
X002198Y005233D02*
X001849Y005233D01*
X002662Y005507D02*
X009110Y005507D01*
X009041Y005576D02*
X002693Y005576D01*
X002693Y005644D02*
X009022Y005644D01*
X009022Y005713D02*
X002693Y005713D01*
X002693Y005781D02*
X009071Y005781D01*
X009023Y005850D02*
X002693Y005850D01*
X002880Y004617D02*
X002478Y004617D01*
X002478Y004548D02*
X002880Y004548D01*
X002880Y004480D02*
X002478Y004480D01*
X002478Y004411D02*
X002880Y004411D01*
X002880Y004343D02*
X002478Y004343D01*
X002478Y004274D02*
X002880Y004274D01*
X002896Y004206D02*
X002478Y004206D01*
X000885Y006398D02*
X011555Y006398D01*
X011555Y006466D02*
X000885Y006466D01*
X000885Y006535D02*
X011555Y006535D01*
X011555Y006603D02*
X000885Y006603D01*
X000885Y006672D02*
X011555Y006672D01*
X011555Y006740D02*
X000885Y006740D01*
X000885Y006809D02*
X011555Y006809D01*
X011555Y006877D02*
X000885Y006877D01*
X000885Y006946D02*
X011555Y006946D01*
X011555Y007014D02*
X000885Y007014D01*
X000885Y007083D02*
X011555Y007083D01*
X011555Y007151D02*
X000885Y007151D01*
X000885Y007220D02*
X011555Y007220D01*
X011555Y007288D02*
X000885Y007288D01*
X000885Y007357D02*
X011555Y007357D01*
X011555Y007425D02*
X000885Y007425D01*
X000885Y007494D02*
X011555Y007494D01*
X011555Y007562D02*
X000885Y007562D01*
X000885Y007631D02*
X011555Y007631D01*
X011555Y007699D02*
X000885Y007699D01*
X000885Y007768D02*
X011555Y007768D01*
X011555Y007836D02*
X000885Y007836D01*
X000885Y007905D02*
X011555Y007905D01*
X011555Y007973D02*
X000885Y007973D01*
X000885Y008042D02*
X011555Y008042D01*
X011555Y008110D02*
X000885Y008110D01*
X000885Y008179D02*
X011555Y008179D01*
X011555Y008247D02*
X000885Y008247D01*
X000885Y008316D02*
X011555Y008316D01*
X011555Y008384D02*
X000885Y008384D01*
X000885Y008453D02*
X011555Y008453D01*
X011555Y008521D02*
X000885Y008521D01*
X000885Y008590D02*
X011555Y008590D01*
X011555Y008658D02*
X000885Y008658D01*
X000885Y008727D02*
X011555Y008727D01*
X011555Y008795D02*
X000885Y008795D01*
X000885Y008864D02*
X011555Y008864D01*
X011555Y008932D02*
X000885Y008932D01*
X000885Y009001D02*
X011555Y009001D01*
X011555Y009069D02*
X000885Y009069D01*
X000885Y009138D02*
X011555Y009138D01*
X011555Y009206D02*
X000885Y009206D01*
X000885Y009275D02*
X011555Y009275D01*
X011555Y009343D02*
X000885Y009343D01*
X000885Y009412D02*
X011555Y009412D01*
X011555Y009480D02*
X000885Y009480D01*
X000885Y009549D02*
X011555Y009549D01*
X011555Y009617D02*
X000885Y009617D01*
X000885Y009686D02*
X011555Y009686D01*
X011555Y009754D02*
X000885Y009754D01*
X000885Y009823D02*
X011555Y009823D01*
X011555Y009891D02*
X000885Y009891D01*
X000885Y009960D02*
X011555Y009960D01*
X011555Y010028D02*
X000885Y010028D01*
X000885Y010097D02*
X011555Y010097D01*
X011555Y010165D02*
X000885Y010165D01*
X000885Y010234D02*
X011555Y010234D01*
X011555Y010302D02*
X000885Y010302D01*
X000885Y010371D02*
X011555Y010371D01*
X011555Y010439D02*
X000885Y010439D01*
X000885Y010508D02*
X011555Y010508D01*
X011555Y010576D02*
X000885Y010576D01*
X000885Y010645D02*
X011555Y010645D01*
X011555Y010713D02*
X000885Y010713D01*
X000885Y010782D02*
X011555Y010782D01*
X011555Y010850D02*
X000885Y010850D01*
X000885Y010919D02*
X011555Y010919D01*
X011555Y010987D02*
X000885Y010987D01*
X000885Y011056D02*
X011555Y011056D01*
X011536Y011124D02*
X000905Y011124D01*
X000954Y011193D02*
X011487Y011193D01*
X010154Y011261D02*
X009068Y011261D01*
X009219Y011324D02*
X008908Y011195D01*
X008572Y011195D01*
X008262Y011324D01*
X008024Y011561D01*
X007900Y011860D01*
X007777Y011561D01*
X007539Y011324D01*
X007228Y011195D01*
X006892Y011195D01*
X006582Y011324D01*
X006344Y011561D01*
X006215Y011872D01*
X006215Y012208D01*
X006344Y012519D01*
X006582Y012756D01*
X006892Y012885D01*
X007228Y012885D01*
X007539Y012756D01*
X007777Y012519D01*
X007900Y012220D01*
X008024Y012519D01*
X008262Y012756D01*
X008572Y012885D01*
X008908Y012885D01*
X009219Y012756D01*
X009457Y012519D01*
X009585Y012208D01*
X009585Y011872D01*
X009457Y011561D01*
X009219Y011324D01*
X009225Y011330D02*
X009988Y011330D01*
X009924Y011356D02*
X009924Y011356D01*
X009924Y011356D01*
X009882Y011398D02*
X009293Y011398D01*
X009362Y011467D02*
X009813Y011467D01*
X009745Y011535D02*
X009430Y011535D01*
X009474Y011604D02*
X009712Y011604D01*
X009683Y011672D02*
X009503Y011672D01*
X009531Y011741D02*
X009655Y011741D01*
X009635Y011809D02*
X009559Y011809D01*
X009585Y011878D02*
X009635Y011878D01*
X009635Y011946D02*
X009585Y011946D01*
X009585Y012015D02*
X009635Y012015D01*
X009635Y012083D02*
X009585Y012083D01*
X009585Y012152D02*
X009635Y012152D01*
X009635Y012220D02*
X009580Y012220D01*
X009552Y012289D02*
X009635Y012289D01*
X009635Y012357D02*
X009524Y012357D01*
X009495Y012426D02*
X009635Y012426D01*
X009635Y012494D02*
X009467Y012494D01*
X009413Y012563D02*
X009635Y012563D01*
X009635Y012631D02*
X009344Y012631D01*
X009276Y012700D02*
X009635Y012700D01*
X009635Y012768D02*
X009191Y012768D01*
X009025Y012837D02*
X009623Y012837D01*
X009566Y012905D02*
X003008Y012905D01*
X002908Y012837D02*
X003415Y012837D01*
X003532Y012885D02*
X003222Y012756D01*
X002984Y012519D01*
X002855Y012208D01*
X002855Y011872D01*
X002984Y011561D01*
X003222Y011324D01*
X003532Y011195D01*
X003868Y011195D01*
X004179Y011324D01*
X004417Y011561D01*
X004545Y011872D01*
X004545Y012208D01*
X004417Y012519D01*
X004179Y012756D01*
X003868Y012885D01*
X003532Y012885D01*
X003250Y012768D02*
X002855Y012768D01*
X002822Y012700D02*
X003165Y012700D01*
X002974Y012494D02*
X002805Y012494D01*
X002805Y012426D02*
X002945Y012426D01*
X002917Y012357D02*
X002805Y012357D01*
X002805Y012289D02*
X002889Y012289D01*
X002860Y012220D02*
X002805Y012220D01*
X002805Y012152D02*
X002855Y012152D01*
X002855Y012083D02*
X002805Y012083D01*
X002805Y012015D02*
X002855Y012015D01*
X002855Y011946D02*
X002805Y011946D01*
X002805Y011878D02*
X002855Y011878D01*
X002881Y011809D02*
X002805Y011809D01*
X002786Y011741D02*
X002910Y011741D01*
X002938Y011672D02*
X002757Y011672D01*
X002729Y011604D02*
X002967Y011604D01*
X003010Y011535D02*
X002696Y011535D01*
X002627Y011467D02*
X003079Y011467D01*
X003147Y011398D02*
X002559Y011398D01*
X002517Y011356D02*
X002517Y011356D01*
X002453Y011330D02*
X003216Y011330D01*
X003373Y011261D02*
X002287Y011261D01*
X004028Y011261D02*
X006733Y011261D01*
X006576Y011330D02*
X004185Y011330D01*
X004253Y011398D02*
X006507Y011398D01*
X006439Y011467D02*
X004322Y011467D01*
X004390Y011535D02*
X006370Y011535D01*
X006327Y011604D02*
X004434Y011604D01*
X004463Y011672D02*
X006298Y011672D01*
X006270Y011741D02*
X004491Y011741D01*
X004519Y011809D02*
X006241Y011809D01*
X006215Y011878D02*
X004545Y011878D01*
X004545Y011946D02*
X006215Y011946D01*
X006215Y012015D02*
X004545Y012015D01*
X004545Y012083D02*
X006215Y012083D01*
X006215Y012152D02*
X004545Y012152D01*
X004540Y012220D02*
X006220Y012220D01*
X006249Y012289D02*
X004512Y012289D01*
X004484Y012357D02*
X006277Y012357D01*
X006305Y012426D02*
X004455Y012426D01*
X004427Y012494D02*
X006334Y012494D01*
X006388Y012563D02*
X004373Y012563D01*
X004304Y012631D02*
X006456Y012631D01*
X006525Y012700D02*
X004236Y012700D01*
X004151Y012768D02*
X006610Y012768D01*
X006775Y012837D02*
X003985Y012837D01*
X007345Y012837D02*
X008455Y012837D01*
X008290Y012768D02*
X007511Y012768D01*
X007596Y012700D02*
X008205Y012700D01*
X008136Y012631D02*
X007664Y012631D01*
X007733Y012563D02*
X008068Y012563D01*
X008014Y012494D02*
X007787Y012494D01*
X007815Y012426D02*
X007985Y012426D01*
X007957Y012357D02*
X007844Y012357D01*
X007872Y012289D02*
X007929Y012289D01*
X007921Y011809D02*
X007879Y011809D01*
X007851Y011741D02*
X007950Y011741D01*
X007978Y011672D02*
X007823Y011672D01*
X007794Y011604D02*
X008007Y011604D01*
X008050Y011535D02*
X007750Y011535D01*
X007682Y011467D02*
X008119Y011467D01*
X008187Y011398D02*
X007613Y011398D01*
X007545Y011330D02*
X008256Y011330D01*
X008413Y011261D02*
X007388Y011261D01*
X009264Y005507D02*
X009366Y005507D01*
X009519Y005507D02*
X009621Y005507D01*
X009691Y005233D02*
X011555Y005233D01*
X011555Y005165D02*
X009715Y005165D01*
X009171Y005233D02*
X008671Y005233D01*
X008695Y005165D02*
X009147Y005165D01*
X009147Y005096D02*
X008695Y005096D01*
X008690Y005028D02*
X009152Y005028D01*
X008108Y004411D02*
X005937Y004411D01*
X005986Y004343D02*
X008108Y004343D01*
X008108Y004274D02*
X005986Y004274D01*
X005986Y004206D02*
X008108Y004206D01*
X008108Y004137D02*
X005986Y004137D01*
X005986Y004069D02*
X008108Y004069D01*
X008118Y004000D02*
X005986Y004000D01*
X005986Y003931D02*
X008108Y003931D01*
X008108Y003863D02*
X005986Y003863D01*
X005986Y003794D02*
X008108Y003794D01*
X008156Y003726D02*
X005980Y003726D01*
X008349Y003726D02*
X011555Y003726D01*
X011555Y002013D02*
X011338Y002013D01*
X011385Y001945D02*
X011555Y001945D01*
X011555Y001876D02*
X011413Y001876D01*
X011415Y001808D02*
X011555Y001808D01*
X011555Y001739D02*
X011415Y001739D01*
X011415Y001671D02*
X011555Y001671D01*
X011555Y001602D02*
X011415Y001602D01*
X011415Y001534D02*
X011555Y001534D01*
X011555Y001465D02*
X011415Y001465D01*
X011415Y001397D02*
X011555Y001397D01*
X011555Y001328D02*
X011415Y001328D01*
X011387Y001260D02*
X011555Y001260D01*
X011555Y001191D02*
X011343Y001191D01*
X011263Y001123D02*
X011553Y001123D01*
X007356Y001397D02*
X007207Y001397D01*
X007276Y001328D02*
X007287Y001328D01*
X006962Y001397D02*
X006814Y001397D01*
X006882Y001328D02*
X006893Y001328D01*
X006568Y001397D02*
X006420Y001397D01*
X006488Y001328D02*
X006500Y001328D01*
X006174Y001397D02*
X006026Y001397D01*
X006095Y001328D02*
X006106Y001328D01*
X005781Y001397D02*
X005633Y001397D01*
X005701Y001328D02*
X005712Y001328D01*
X005387Y001397D02*
X005239Y001397D01*
X005307Y001328D02*
X005319Y001328D01*
X004993Y001397D02*
X004918Y001397D01*
X004941Y001054D02*
X004962Y001054D01*
X005270Y001054D02*
X005356Y001054D01*
X005664Y001054D02*
X005749Y001054D01*
X006058Y001054D02*
X006143Y001054D01*
X006451Y001054D02*
X006537Y001054D01*
X006845Y001054D02*
X006930Y001054D01*
X007239Y001054D02*
X007324Y001054D01*
D21*
X007060Y012040D03*
X005380Y012040D03*
X003700Y012040D03*
X008740Y012040D03*
D22*
X009187Y005919D03*
X009442Y005919D03*
X009698Y005919D03*
X009698Y005663D03*
X009442Y005663D03*
X009187Y005663D03*
X009187Y004640D03*
X008931Y004640D03*
X008931Y004384D03*
X009187Y004384D03*
X009442Y004384D03*
X009442Y004640D03*
X009442Y004128D03*
X009187Y004128D03*
X008931Y004128D03*
X008931Y003872D03*
X009187Y003872D03*
X009442Y003872D03*
X008675Y003872D03*
X008675Y004128D03*
X008675Y004384D03*
X008675Y004640D03*
M02*
